<?xml version="1.0" encoding="utf-8" standalone="no"?>
<!DOCTYPE svg PUBLIC "-//W3C//DTD SVG 1.1//EN"
  "http://www.w3.org/Graphics/SVG/1.1/DTD/svg11.dtd">
<svg xmlns:xlink="http://www.w3.org/1999/xlink" width="1080pt" height="720pt" viewBox="0 0 1080 720" xmlns="http://www.w3.org/2000/svg" version="1.1">
 <metadata>
  <rdf:RDF xmlns:dc="http://purl.org/dc/elements/1.1/" xmlns:cc="http://creativecommons.org/ns#" xmlns:rdf="http://www.w3.org/1999/02/22-rdf-syntax-ns#">
   <cc:Work>
    <dc:type rdf:resource="http://purl.org/dc/dcmitype/StillImage"/>
    <dc:date>2024-10-01T09:39:30.905157</dc:date>
    <dc:format>image/svg+xml</dc:format>
    <dc:creator>
     <cc:Agent>
      <dc:title>Matplotlib v3.9.2, https://matplotlib.org/</dc:title>
     </cc:Agent>
    </dc:creator>
   </cc:Work>
  </rdf:RDF>
 </metadata>
 <defs>
  <style type="text/css">*{stroke-linejoin: round; stroke-linecap: butt}</style>
 </defs>
 <g id="figure_1">
  <g id="patch_1">
   <path d="M 0 720 
L 1080 720 
L 1080 0 
L 0 0 
z
" style="fill: #ffffff"/>
  </g>
  <g id="axes_1">
   <g id="patch_2">
    <path d="M 30.49 539.168 
L 172.218779 539.168 
L 172.218779 26.88 
L 30.49 26.88 
z
" style="fill: #ffffff"/>
   </g>
   <g id="patch_3">
    <path d="M 172.218779 515.882182 
L 142.875346 515.882182 
L 142.875346 471.528242 
L 172.218779 471.528242 
z
" clip-path="url(#peec2d9414d)" style="fill: #808080; opacity: 0.5"/>
   </g>
   <g id="patch_4">
    <path d="M 172.218779 471.528242 
L 172.218779 471.528242 
L 172.218779 427.174303 
L 172.218779 427.174303 
z
" clip-path="url(#peec2d9414d)" style="fill: #808080; opacity: 0.5"/>
   </g>
   <g id="patch_5">
    <path d="M 172.218779 427.174303 
L 154.612719 427.174303 
L 154.612719 382.820364 
L 172.218779 382.820364 
z
" clip-path="url(#peec2d9414d)" style="fill: #808080; opacity: 0.5"/>
   </g>
   <g id="patch_6">
    <path d="M 172.218779 382.820364 
L 154.612719 382.820364 
L 154.612719 338.466424 
L 172.218779 338.466424 
z
" clip-path="url(#peec2d9414d)" style="fill: #808080; opacity: 0.5"/>
   </g>
   <g id="patch_7">
    <path d="M 172.218779 338.466424 
L 84.188481 338.466424 
L 84.188481 294.112485 
L 172.218779 294.112485 
z
" clip-path="url(#peec2d9414d)" style="fill: #808080; opacity: 0.5"/>
   </g>
   <g id="patch_8">
    <path d="M 172.218779 294.112485 
L 43.107676 294.112485 
L 43.107676 249.758545 
L 172.218779 249.758545 
z
" clip-path="url(#peec2d9414d)" style="fill: #808080; opacity: 0.5"/>
   </g>
   <g id="patch_9">
    <path d="M 172.218779 249.758545 
L 37.238989 249.758545 
L 37.238989 205.404606 
L 172.218779 205.404606 
z
" clip-path="url(#peec2d9414d)" style="fill: #808080; opacity: 0.5"/>
   </g>
   <g id="patch_10">
    <path d="M 172.218779 205.404606 
L 72.451108 205.404606 
L 72.451108 161.050667 
L 172.218779 161.050667 
z
" clip-path="url(#peec2d9414d)" style="fill: #808080; opacity: 0.5"/>
   </g>
   <g id="patch_11">
    <path d="M 172.218779 161.050667 
L 107.663227 161.050667 
L 107.663227 116.696727 
L 172.218779 116.696727 
z
" clip-path="url(#peec2d9414d)" style="fill: #808080; opacity: 0.5"/>
   </g>
   <g id="patch_12">
    <path d="M 172.218779 116.696727 
L 125.269287 116.696727 
L 125.269287 72.342788 
L 172.218779 72.342788 
z
" clip-path="url(#peec2d9414d)" style="fill: #808080; opacity: 0.5"/>
   </g>
   <g id="matplotlib.axis_1"/>
   <g id="matplotlib.axis_2">
    <g id="ytick_1">
     <g id="line2d_1">
      <defs>
       <path id="m6cff0bb033" d="M 0 0 
L -3.5 0 
" style="stroke: #000000; stroke-width: 0.8"/>
      </defs>
      <g>
       <use xlink:href="#m6cff0bb033" x="30.49" y="494.972468" style="stroke: #000000; stroke-width: 0.8"/>
      </g>
     </g>
     <g id="text_1">
      <!-- 0 -->
      <g transform="translate(17.1275 498.771686) scale(0.1 -0.1)">
       <defs>
        <path id="DejaVuSans-30" d="M 2034 4250 
Q 1547 4250 1301 3770 
Q 1056 3291 1056 2328 
Q 1056 1369 1301 889 
Q 1547 409 2034 409 
Q 2525 409 2770 889 
Q 3016 1369 3016 2328 
Q 3016 3291 2770 3770 
Q 2525 4250 2034 4250 
z
M 2034 4750 
Q 2819 4750 3233 4129 
Q 3647 3509 3647 2328 
Q 3647 1150 3233 529 
Q 2819 -91 2034 -91 
Q 1250 -91 836 529 
Q 422 1150 422 2328 
Q 422 3509 836 4129 
Q 1250 4750 2034 4750 
z
" transform="scale(0.015625)"/>
       </defs>
       <use xlink:href="#DejaVuSans-30"/>
      </g>
     </g>
    </g>
    <g id="ytick_2">
     <g id="line2d_2">
      <g>
       <use xlink:href="#m6cff0bb033" x="30.49" y="399.928312" style="stroke: #000000; stroke-width: 0.8"/>
      </g>
     </g>
     <g id="text_2">
      <!-- 5 -->
      <g transform="translate(17.1275 403.72753) scale(0.1 -0.1)">
       <defs>
        <path id="DejaVuSans-35" d="M 691 4666 
L 3169 4666 
L 3169 4134 
L 1269 4134 
L 1269 2991 
Q 1406 3038 1543 3061 
Q 1681 3084 1819 3084 
Q 2600 3084 3056 2656 
Q 3513 2228 3513 1497 
Q 3513 744 3044 326 
Q 2575 -91 1722 -91 
Q 1428 -91 1123 -41 
Q 819 9 494 109 
L 494 744 
Q 775 591 1075 516 
Q 1375 441 1709 441 
Q 2250 441 2565 725 
Q 2881 1009 2881 1497 
Q 2881 1984 2565 2268 
Q 2250 2553 1709 2553 
Q 1456 2553 1204 2497 
Q 953 2441 691 2322 
L 691 4666 
z
" transform="scale(0.015625)"/>
       </defs>
       <use xlink:href="#DejaVuSans-35"/>
      </g>
     </g>
    </g>
    <g id="ytick_3">
     <g id="line2d_3">
      <g>
       <use xlink:href="#m6cff0bb033" x="30.49" y="304.884156" style="stroke: #000000; stroke-width: 0.8"/>
      </g>
     </g>
     <g id="text_3">
      <!-- 10 -->
      <g transform="translate(10.765 308.683375) scale(0.1 -0.1)">
       <defs>
        <path id="DejaVuSans-31" d="M 794 531 
L 1825 531 
L 1825 4091 
L 703 3866 
L 703 4441 
L 1819 4666 
L 2450 4666 
L 2450 531 
L 3481 531 
L 3481 0 
L 794 0 
L 794 531 
z
" transform="scale(0.015625)"/>
       </defs>
       <use xlink:href="#DejaVuSans-31"/>
       <use xlink:href="#DejaVuSans-30" x="63.623047"/>
      </g>
     </g>
    </g>
    <g id="ytick_4">
     <g id="line2d_4">
      <g>
       <use xlink:href="#m6cff0bb033" x="30.49" y="209.84" style="stroke: #000000; stroke-width: 0.8"/>
      </g>
     </g>
     <g id="text_4">
      <!-- 15 -->
      <g transform="translate(10.765 213.639219) scale(0.1 -0.1)">
       <use xlink:href="#DejaVuSans-31"/>
       <use xlink:href="#DejaVuSans-35" x="63.623047"/>
      </g>
     </g>
    </g>
    <g id="ytick_5">
     <g id="line2d_5">
      <g>
       <use xlink:href="#m6cff0bb033" x="30.49" y="114.795844" style="stroke: #000000; stroke-width: 0.8"/>
      </g>
     </g>
     <g id="text_5">
      <!-- 20 -->
      <g transform="translate(10.765 118.595063) scale(0.1 -0.1)">
       <defs>
        <path id="DejaVuSans-32" d="M 1228 531 
L 3431 531 
L 3431 0 
L 469 0 
L 469 531 
Q 828 903 1448 1529 
Q 2069 2156 2228 2338 
Q 2531 2678 2651 2914 
Q 2772 3150 2772 3378 
Q 2772 3750 2511 3984 
Q 2250 4219 1831 4219 
Q 1534 4219 1204 4116 
Q 875 4013 500 3803 
L 500 4441 
Q 881 4594 1212 4672 
Q 1544 4750 1819 4750 
Q 2544 4750 2975 4387 
Q 3406 4025 3406 3419 
Q 3406 3131 3298 2873 
Q 3191 2616 2906 2266 
Q 2828 2175 2409 1742 
Q 1991 1309 1228 531 
z
" transform="scale(0.015625)"/>
       </defs>
       <use xlink:href="#DejaVuSans-32"/>
       <use xlink:href="#DejaVuSans-30" x="63.623047"/>
      </g>
     </g>
    </g>
   </g>
   <g id="line2d_6">
    <path d="M 160.498031 493.705212 
L 159.602312 487.483217 
L 159.036017 482.150078 
L 158.67988 476.816939 
L 158.542993 471.4838 
L 158.619643 466.150661 
L 158.950662 459.928665 
L 159.577276 452.817813 
L 160.970031 440.373822 
L 161.872187 431.485257 
L 162.363454 424.374405 
L 162.552119 418.15241 
L 162.505246 412.819271 
L 162.251908 407.486132 
L 161.785531 402.152993 
L 161.102444 396.819854 
L 160.198203 391.486715 
L 159.064235 386.153576 
L 157.685378 380.820437 
L 156.333011 376.376154 
L 154.777765 371.931872 
L 152.999905 367.487589 
L 150.97836 363.043306 
L 148.692406 358.599024 
L 146.123551 354.154741 
L 143.257425 349.710459 
L 140.085502 345.266176 
L 136.60649 340.821894 
L 132.827271 336.377611 
L 128.763321 331.933329 
L 123.54508 326.60019 
L 118.008176 321.267051 
L 111.240305 315.045055 
L 99.234947 304.378777 
L 88.319119 294.601356 
L 81.686283 288.37936 
L 76.32009 283.046221 
L 72.132364 278.601939 
L 68.244571 274.157656 
L 64.689547 269.713374 
L 62.102975 266.157948 
L 59.756462 262.602522 
L 57.6572 259.047096 
L 55.8094 255.49167 
L 54.214384 251.936244 
L 52.870739 248.380818 
L 51.77456 244.825392 
L 50.919735 241.269966 
L 50.298283 237.71454 
L 49.900705 234.159114 
L 49.716332 230.603688 
L 49.733665 227.048262 
L 49.940665 223.492836 
L 50.447364 219.048553 
L 51.207009 214.604271 
L 52.195768 210.159988 
L 53.390536 205.715706 
L 55.065273 200.382567 
L 56.969809 195.049428 
L 59.441041 188.827432 
L 62.143205 182.605437 
L 65.480393 175.494585 
L 69.068316 168.383733 
L 72.915075 161.272881 
L 76.513004 155.050885 
L 80.348205 148.82889 
L 84.433714 142.606894 
L 88.767106 136.384899 
L 93.990948 129.274047 
L 100.814113 120.385482 
L 115.244927 101.719495 
L 120.434481 94.608643 
L 125.334878 87.497791 
L 129.929035 80.386939 
L 134.239854 73.276087 
L 138.811186 65.276379 
L 143.632371 56.387814 
L 146.881647 50.165818 
L 146.881647 50.165818 
" clip-path="url(#peec2d9414d)" style="fill: none; stroke: #ff0000; stroke-opacity: 0.3; stroke-width: 1.5; stroke-linecap: square"/>
   </g>
   <g id="line2d_7">
    <path d="M 170.706796 493.705212 
L 169.981872 481.261221 
L 169.134803 470.594943 
L 168.127934 460.817522 
L 166.981635 451.928957 
L 165.72983 443.929248 
L 164.239505 435.92954 
L 162.690525 428.818688 
L 160.908765 421.707836 
L 158.873954 414.596984 
L 156.870894 408.374988 
L 154.6479 402.152993 
L 152.194921 395.930997 
L 149.503852 389.709002 
L 146.568965 383.487006 
L 143.387334 377.265011 
L 139.959258 371.043015 
L 136.288654 364.821019 
L 132.383409 358.599024 
L 127.648758 351.488172 
L 122.649027 344.37732 
L 116.749251 336.377611 
L 109.228123 326.60019 
L 97.947098 312.378486 
L 86.030863 297.267925 
L 79.981741 289.268217 
L 74.87045 282.157365 
L 70.666218 275.935369 
L 67.301835 270.60223 
L 64.190405 265.269091 
L 61.360662 259.935952 
L 59.237022 255.49167 
L 57.341672 251.047387 
L 55.68737 246.603105 
L 54.285372 242.158822 
L 53.145302 237.71454 
L 52.275044 233.270257 
L 51.680651 228.825975 
L 51.406614 225.270549 
L 51.313052 221.715123 
L 51.400386 218.159697 
L 51.668224 214.604271 
L 52.254949 210.159988 
L 53.117679 205.715706 
L 54.250412 201.271423 
L 55.645315 196.827141 
L 57.29281 192.382858 
L 59.181683 187.938576 
L 61.299216 183.494293 
L 63.631325 179.050011 
L 66.69149 173.716872 
L 70.010197 168.383733 
L 74.168565 162.161737 
L 78.587913 155.939742 
L 84.570838 147.940033 
L 92.194317 138.162612 
L 115.985409 107.941491 
L 121.918268 99.941782 
L 127.564823 91.942074 
L 132.304276 84.831222 
L 136.75366 77.72037 
L 140.394732 71.498374 
L 143.792587 65.276379 
L 146.943772 59.054383 
L 149.848407 52.832388 
L 151.018491 50.165818 
L 151.018491 50.165818 
" clip-path="url(#peec2d9414d)" style="fill: none; stroke: #0000ff; stroke-width: 1.5; stroke-linecap: square"/>
   </g>
   <g id="patch_13">
    <path d="M 30.49 539.168 
L 30.49 26.88 
" style="fill: none; stroke: #000000; stroke-width: 0.8; stroke-linejoin: miter; stroke-linecap: square"/>
   </g>
   <g id="patch_14">
    <path d="M 172.218779 539.168 
L 172.218779 26.88 
" style="fill: none; stroke: #000000; stroke-width: 0.8; stroke-linejoin: miter; stroke-linecap: square"/>
   </g>
   <g id="patch_15">
    <path d="M 30.49 539.168 
L 172.218779 539.168 
" style="fill: none; stroke: #000000; stroke-width: 0.8; stroke-linejoin: miter; stroke-linecap: square"/>
   </g>
   <g id="patch_16">
    <path d="M 30.49 26.88 
L 172.218779 26.88 
" style="fill: none; stroke: #000000; stroke-width: 0.8; stroke-linejoin: miter; stroke-linecap: square"/>
   </g>
   <g id="legend_1">
    <g id="patch_17">
     <path d="M 37.49 534.168 
L 143.947812 534.168 
Q 145.947812 534.168 145.947812 532.168 
L 145.947812 489.133625 
Q 145.947812 487.133625 143.947812 487.133625 
L 37.49 487.133625 
Q 35.49 487.133625 35.49 489.133625 
L 35.49 532.168 
Q 35.49 534.168 37.49 534.168 
z
" style="fill: #ffffff; opacity: 0.8; stroke: #cccccc; stroke-linejoin: miter"/>
    </g>
    <g id="line2d_8">
     <path d="M 39.49 495.232063 
L 49.49 495.232063 
L 59.49 495.232063 
" style="fill: none; stroke: #ff0000; stroke-opacity: 0.3; stroke-width: 1.5; stroke-linecap: square"/>
    </g>
    <g id="text_6">
     <!-- KDE Estimate -->
     <g transform="translate(67.49 498.732063) scale(0.1 -0.1)">
      <defs>
       <path id="DejaVuSans-4b" d="M 628 4666 
L 1259 4666 
L 1259 2694 
L 3353 4666 
L 4166 4666 
L 1850 2491 
L 4331 0 
L 3500 0 
L 1259 2247 
L 1259 0 
L 628 0 
L 628 4666 
z
" transform="scale(0.015625)"/>
       <path id="DejaVuSans-44" d="M 1259 4147 
L 1259 519 
L 2022 519 
Q 2988 519 3436 956 
Q 3884 1394 3884 2338 
Q 3884 3275 3436 3711 
Q 2988 4147 2022 4147 
L 1259 4147 
z
M 628 4666 
L 1925 4666 
Q 3281 4666 3915 4102 
Q 4550 3538 4550 2338 
Q 4550 1131 3912 565 
Q 3275 0 1925 0 
L 628 0 
L 628 4666 
z
" transform="scale(0.015625)"/>
       <path id="DejaVuSans-45" d="M 628 4666 
L 3578 4666 
L 3578 4134 
L 1259 4134 
L 1259 2753 
L 3481 2753 
L 3481 2222 
L 1259 2222 
L 1259 531 
L 3634 531 
L 3634 0 
L 628 0 
L 628 4666 
z
" transform="scale(0.015625)"/>
       <path id="DejaVuSans-20" transform="scale(0.015625)"/>
       <path id="DejaVuSans-73" d="M 2834 3397 
L 2834 2853 
Q 2591 2978 2328 3040 
Q 2066 3103 1784 3103 
Q 1356 3103 1142 2972 
Q 928 2841 928 2578 
Q 928 2378 1081 2264 
Q 1234 2150 1697 2047 
L 1894 2003 
Q 2506 1872 2764 1633 
Q 3022 1394 3022 966 
Q 3022 478 2636 193 
Q 2250 -91 1575 -91 
Q 1294 -91 989 -36 
Q 684 19 347 128 
L 347 722 
Q 666 556 975 473 
Q 1284 391 1588 391 
Q 1994 391 2212 530 
Q 2431 669 2431 922 
Q 2431 1156 2273 1281 
Q 2116 1406 1581 1522 
L 1381 1569 
Q 847 1681 609 1914 
Q 372 2147 372 2553 
Q 372 3047 722 3315 
Q 1072 3584 1716 3584 
Q 2034 3584 2315 3537 
Q 2597 3491 2834 3397 
z
" transform="scale(0.015625)"/>
       <path id="DejaVuSans-74" d="M 1172 4494 
L 1172 3500 
L 2356 3500 
L 2356 3053 
L 1172 3053 
L 1172 1153 
Q 1172 725 1289 603 
Q 1406 481 1766 481 
L 2356 481 
L 2356 0 
L 1766 0 
Q 1100 0 847 248 
Q 594 497 594 1153 
L 594 3053 
L 172 3053 
L 172 3500 
L 594 3500 
L 594 4494 
L 1172 4494 
z
" transform="scale(0.015625)"/>
       <path id="DejaVuSans-69" d="M 603 3500 
L 1178 3500 
L 1178 0 
L 603 0 
L 603 3500 
z
M 603 4863 
L 1178 4863 
L 1178 4134 
L 603 4134 
L 603 4863 
z
" transform="scale(0.015625)"/>
       <path id="DejaVuSans-6d" d="M 3328 2828 
Q 3544 3216 3844 3400 
Q 4144 3584 4550 3584 
Q 5097 3584 5394 3201 
Q 5691 2819 5691 2113 
L 5691 0 
L 5113 0 
L 5113 2094 
Q 5113 2597 4934 2840 
Q 4756 3084 4391 3084 
Q 3944 3084 3684 2787 
Q 3425 2491 3425 1978 
L 3425 0 
L 2847 0 
L 2847 2094 
Q 2847 2600 2669 2842 
Q 2491 3084 2119 3084 
Q 1678 3084 1418 2786 
Q 1159 2488 1159 1978 
L 1159 0 
L 581 0 
L 581 3500 
L 1159 3500 
L 1159 2956 
Q 1356 3278 1631 3431 
Q 1906 3584 2284 3584 
Q 2666 3584 2933 3390 
Q 3200 3197 3328 2828 
z
" transform="scale(0.015625)"/>
       <path id="DejaVuSans-61" d="M 2194 1759 
Q 1497 1759 1228 1600 
Q 959 1441 959 1056 
Q 959 750 1161 570 
Q 1363 391 1709 391 
Q 2188 391 2477 730 
Q 2766 1069 2766 1631 
L 2766 1759 
L 2194 1759 
z
M 3341 1997 
L 3341 0 
L 2766 0 
L 2766 531 
Q 2569 213 2275 61 
Q 1981 -91 1556 -91 
Q 1019 -91 701 211 
Q 384 513 384 1019 
Q 384 1609 779 1909 
Q 1175 2209 1959 2209 
L 2766 2209 
L 2766 2266 
Q 2766 2663 2505 2880 
Q 2244 3097 1772 3097 
Q 1472 3097 1187 3025 
Q 903 2953 641 2809 
L 641 3341 
Q 956 3463 1253 3523 
Q 1550 3584 1831 3584 
Q 2591 3584 2966 3190 
Q 3341 2797 3341 1997 
z
" transform="scale(0.015625)"/>
       <path id="DejaVuSans-65" d="M 3597 1894 
L 3597 1613 
L 953 1613 
Q 991 1019 1311 708 
Q 1631 397 2203 397 
Q 2534 397 2845 478 
Q 3156 559 3463 722 
L 3463 178 
Q 3153 47 2828 -22 
Q 2503 -91 2169 -91 
Q 1331 -91 842 396 
Q 353 884 353 1716 
Q 353 2575 817 3079 
Q 1281 3584 2069 3584 
Q 2775 3584 3186 3129 
Q 3597 2675 3597 1894 
z
M 3022 2063 
Q 3016 2534 2758 2815 
Q 2500 3097 2075 3097 
Q 1594 3097 1305 2825 
Q 1016 2553 972 2059 
L 3022 2063 
z
" transform="scale(0.015625)"/>
      </defs>
      <use xlink:href="#DejaVuSans-4b"/>
      <use xlink:href="#DejaVuSans-44" x="65.576172"/>
      <use xlink:href="#DejaVuSans-45" x="142.578125"/>
      <use xlink:href="#DejaVuSans-20" x="205.761719"/>
      <use xlink:href="#DejaVuSans-45" x="237.548828"/>
      <use xlink:href="#DejaVuSans-73" x="300.732422"/>
      <use xlink:href="#DejaVuSans-74" x="352.832031"/>
      <use xlink:href="#DejaVuSans-69" x="392.041016"/>
      <use xlink:href="#DejaVuSans-6d" x="419.824219"/>
      <use xlink:href="#DejaVuSans-61" x="517.236328"/>
      <use xlink:href="#DejaVuSans-74" x="578.515625"/>
      <use xlink:href="#DejaVuSans-65" x="617.724609"/>
     </g>
    </g>
    <g id="line2d_9">
     <path d="M 39.49 509.910188 
L 49.49 509.910188 
L 59.49 509.910188 
" style="fill: none; stroke: #0000ff; stroke-width: 1.5; stroke-linecap: square"/>
    </g>
    <g id="text_7">
     <!-- Norm estimate -->
     <g transform="translate(67.49 513.410188) scale(0.1 -0.1)">
      <defs>
       <path id="DejaVuSans-4e" d="M 628 4666 
L 1478 4666 
L 3547 763 
L 3547 4666 
L 4159 4666 
L 4159 0 
L 3309 0 
L 1241 3903 
L 1241 0 
L 628 0 
L 628 4666 
z
" transform="scale(0.015625)"/>
       <path id="DejaVuSans-6f" d="M 1959 3097 
Q 1497 3097 1228 2736 
Q 959 2375 959 1747 
Q 959 1119 1226 758 
Q 1494 397 1959 397 
Q 2419 397 2687 759 
Q 2956 1122 2956 1747 
Q 2956 2369 2687 2733 
Q 2419 3097 1959 3097 
z
M 1959 3584 
Q 2709 3584 3137 3096 
Q 3566 2609 3566 1747 
Q 3566 888 3137 398 
Q 2709 -91 1959 -91 
Q 1206 -91 779 398 
Q 353 888 353 1747 
Q 353 2609 779 3096 
Q 1206 3584 1959 3584 
z
" transform="scale(0.015625)"/>
       <path id="DejaVuSans-72" d="M 2631 2963 
Q 2534 3019 2420 3045 
Q 2306 3072 2169 3072 
Q 1681 3072 1420 2755 
Q 1159 2438 1159 1844 
L 1159 0 
L 581 0 
L 581 3500 
L 1159 3500 
L 1159 2956 
Q 1341 3275 1631 3429 
Q 1922 3584 2338 3584 
Q 2397 3584 2469 3576 
Q 2541 3569 2628 3553 
L 2631 2963 
z
" transform="scale(0.015625)"/>
      </defs>
      <use xlink:href="#DejaVuSans-4e"/>
      <use xlink:href="#DejaVuSans-6f" x="74.804688"/>
      <use xlink:href="#DejaVuSans-72" x="135.986328"/>
      <use xlink:href="#DejaVuSans-6d" x="175.349609"/>
      <use xlink:href="#DejaVuSans-20" x="272.761719"/>
      <use xlink:href="#DejaVuSans-65" x="304.548828"/>
      <use xlink:href="#DejaVuSans-73" x="366.072266"/>
      <use xlink:href="#DejaVuSans-74" x="418.171875"/>
      <use xlink:href="#DejaVuSans-69" x="457.380859"/>
      <use xlink:href="#DejaVuSans-6d" x="485.164062"/>
      <use xlink:href="#DejaVuSans-61" x="582.576172"/>
      <use xlink:href="#DejaVuSans-74" x="643.855469"/>
      <use xlink:href="#DejaVuSans-65" x="683.064453"/>
     </g>
    </g>
    <g id="patch_18">
     <path d="M 39.49 528.088313 
L 59.49 528.088313 
L 59.49 521.088313 
L 39.49 521.088313 
z
" style="fill: #808080; opacity: 0.5"/>
    </g>
    <g id="text_8">
     <!-- Histogram -->
     <g transform="translate(67.49 528.088313) scale(0.1 -0.1)">
      <defs>
       <path id="DejaVuSans-48" d="M 628 4666 
L 1259 4666 
L 1259 2753 
L 3553 2753 
L 3553 4666 
L 4184 4666 
L 4184 0 
L 3553 0 
L 3553 2222 
L 1259 2222 
L 1259 0 
L 628 0 
L 628 4666 
z
" transform="scale(0.015625)"/>
       <path id="DejaVuSans-67" d="M 2906 1791 
Q 2906 2416 2648 2759 
Q 2391 3103 1925 3103 
Q 1463 3103 1205 2759 
Q 947 2416 947 1791 
Q 947 1169 1205 825 
Q 1463 481 1925 481 
Q 2391 481 2648 825 
Q 2906 1169 2906 1791 
z
M 3481 434 
Q 3481 -459 3084 -895 
Q 2688 -1331 1869 -1331 
Q 1566 -1331 1297 -1286 
Q 1028 -1241 775 -1147 
L 775 -588 
Q 1028 -725 1275 -790 
Q 1522 -856 1778 -856 
Q 2344 -856 2625 -561 
Q 2906 -266 2906 331 
L 2906 616 
Q 2728 306 2450 153 
Q 2172 0 1784 0 
Q 1141 0 747 490 
Q 353 981 353 1791 
Q 353 2603 747 3093 
Q 1141 3584 1784 3584 
Q 2172 3584 2450 3431 
Q 2728 3278 2906 2969 
L 2906 3500 
L 3481 3500 
L 3481 434 
z
" transform="scale(0.015625)"/>
      </defs>
      <use xlink:href="#DejaVuSans-48"/>
      <use xlink:href="#DejaVuSans-69" x="75.195312"/>
      <use xlink:href="#DejaVuSans-73" x="102.978516"/>
      <use xlink:href="#DejaVuSans-74" x="155.078125"/>
      <use xlink:href="#DejaVuSans-6f" x="194.287109"/>
      <use xlink:href="#DejaVuSans-67" x="255.46875"/>
      <use xlink:href="#DejaVuSans-72" x="318.945312"/>
      <use xlink:href="#DejaVuSans-61" x="360.058594"/>
      <use xlink:href="#DejaVuSans-6d" x="421.337891"/>
     </g>
    </g>
   </g>
  </g>
  <g id="axes_2">
   <g id="patch_19">
    <path d="M 216.788779 539.168 
L 1067.161452 539.168 
L 1067.161452 26.88 
L 216.788779 26.88 
z
" style="fill: #ffffff"/>
   </g>
   <g id="PathCollection_1">
    <defs>
     <path id="m801ec0d174" d="M 0 5 
C 1.326016 5 2.597899 4.473168 3.535534 3.535534 
C 4.473168 2.597899 5 1.326016 5 0 
C 5 -1.326016 4.473168 -2.597899 3.535534 -3.535534 
C 2.597899 -4.473168 1.326016 -5 0 -5 
C -1.326016 -5 -2.597899 -4.473168 -3.535534 -3.535534 
C -4.473168 -2.597899 -5 -1.326016 -5 0 
C -5 1.326016 -4.473168 2.597899 -3.535534 3.535534 
C -2.597899 4.473168 -1.326016 5 0 5 
z
" style="stroke: #000000"/>
    </defs>
    <g clip-path="url(#pdcd1c16ca5)">
     <use xlink:href="#m801ec0d174" x="492.193565" y="230.464582" style="fill: #ff0000; stroke: #000000"/>
     <use xlink:href="#m801ec0d174" x="482.530239" y="273.377018" style="fill: #ff0000; stroke: #000000"/>
     <use xlink:href="#m801ec0d174" x="463.203588" y="264.395345" style="fill: #ff0000; stroke: #000000"/>
     <use xlink:href="#m801ec0d174" x="535.678531" y="208.842036" style="fill: #ff0000; stroke: #000000"/>
     <use xlink:href="#m801ec0d174" x="337.580352" y="135.658036" style="fill: #ff0000; stroke: #000000"/>
     <use xlink:href="#m801ec0d174" x="434.21361" y="171.584727" style="fill: #ff0000; stroke: #000000"/>
     <use xlink:href="#m801ec0d174" x="477.698576" y="218.489018" style="fill: #ff0000; stroke: #000000"/>
     <use xlink:href="#m801ec0d174" x="352.075341" y="266.391273" style="fill: #ff0000; stroke: #000000"/>
     <use xlink:href="#m801ec0d174" x="443.876936" y="226.805382" style="fill: #ff0000; stroke: #000000"/>
     <use xlink:href="#m801ec0d174" x="424.550284" y="253.7504" style="fill: #ff0000; stroke: #000000"/>
     <use xlink:href="#m801ec0d174" x="448.708599" y="238.115636" style="fill: #ff0000; stroke: #000000"/>
     <use xlink:href="#m801ec0d174" x="434.21361" y="217.1584" style="fill: #ff0000; stroke: #000000"/>
     <use xlink:href="#m801ec0d174" x="468.035251" y="210.172655" style="fill: #ff0000; stroke: #000000"/>
     <use xlink:href="#m801ec0d174" x="458.371925" y="90.749673" style="fill: #ff0000; stroke: #000000"/>
     <use xlink:href="#m801ec0d174" x="453.540262" y="267.389236" style="fill: #ff0000; stroke: #000000"/>
     <use xlink:href="#m801ec0d174" x="487.361902" y="233.125818" style="fill: #ff0000; stroke: #000000"/>
     <use xlink:href="#m801ec0d174" x="472.866913" y="186.886836" style="fill: #ff0000; stroke: #000000"/>
     <use xlink:href="#m801ec0d174" x="487.361902" y="384.483636" style="fill: #ff0000; stroke: #000000"/>
     <use xlink:href="#m801ec0d174" x="390.728644" y="227.803345" style="fill: #ff0000; stroke: #000000"/>
     <use xlink:href="#m801ec0d174" x="477.698576" y="214.497164" style="fill: #ff0000; stroke: #000000"/>
     <use xlink:href="#m801ec0d174" x="506.688554" y="218.489018" style="fill: #ff0000; stroke: #000000"/>
     <use xlink:href="#m801ec0d174" x="477.698576" y="223.146182" style="fill: #ff0000; stroke: #000000"/>
     <use xlink:href="#m801ec0d174" x="472.866913" y="480.6208" style="fill: #ff0000; stroke: #000000"/>
     <use xlink:href="#m801ec0d174" x="443.876936" y="131.333527" style="fill: #ff0000; stroke: #000000"/>
     <use xlink:href="#m801ec0d174" x="526.015206" y="438.706327" style="fill: #ff0000; stroke: #000000"/>
     <use xlink:href="#m801ec0d174" x="381.065318" y="398.787782" style="fill: #ff0000; stroke: #000000"/>
     <use xlink:href="#m801ec0d174" x="410.055296" y="213.166545" style="fill: #ff0000; stroke: #000000"/>
     <use xlink:href="#m801ec0d174" x="453.540262" y="235.4544" style="fill: #ff0000; stroke: #000000"/>
     <use xlink:href="#m801ec0d174" x="429.381947" y="373.506036" style="fill: #ff0000; stroke: #000000"/>
     <use xlink:href="#m801ec0d174" x="501.856891" y="415.753164" style="fill: #ff0000; stroke: #000000"/>
     <use xlink:href="#m801ec0d174" x="390.728644" y="273.709673" style="fill: #ff0000; stroke: #000000"/>
     <use xlink:href="#m801ec0d174" x="453.540262" y="314.293527" style="fill: #ff0000; stroke: #000000"/>
     <use xlink:href="#m801ec0d174" x="429.381947" y="111.374255" style="fill: #ff0000; stroke: #000000"/>
     <use xlink:href="#m801ec0d174" x="429.381947" y="314.293527" style="fill: #ff0000; stroke: #000000"/>
     <use xlink:href="#m801ec0d174" x="429.381947" y="91.082327" style="fill: #ff0000; stroke: #000000"/>
     <use xlink:href="#m801ec0d174" x="477.698576" y="361.530473" style="fill: #ff0000; stroke: #000000"/>
     <use xlink:href="#m801ec0d174" x="337.580352" y="176.241891" style="fill: #ff0000; stroke: #000000"/>
     <use xlink:href="#m801ec0d174" x="482.530239" y="113.037527" style="fill: #ff0000; stroke: #000000"/>
     <use xlink:href="#m801ec0d174" x="424.550284" y="191.544" style="fill: #ff0000; stroke: #000000"/>
     <use xlink:href="#m801ec0d174" x="492.193565" y="314.293527" style="fill: #ff0000; stroke: #000000"/>
     <use xlink:href="#m801ec0d174" x="434.21361" y="242.7728" style="fill: #ff0000; stroke: #000000"/>
     <use xlink:href="#m801ec0d174" x="429.381947" y="186.886836" style="fill: #ff0000; stroke: #000000"/>
     <use xlink:href="#m801ec0d174" x="337.580352" y="223.478836" style="fill: #ff0000; stroke: #000000"/>
     <use xlink:href="#m801ec0d174" x="424.550284" y="227.138036" style="fill: #ff0000; stroke: #000000"/>
     <use xlink:href="#m801ec0d174" x="521.183543" y="463.988073" style="fill: #ff0000; stroke: #000000"/>
     <use xlink:href="#m801ec0d174" x="453.540262" y="234.456436" style="fill: #ff0000; stroke: #000000"/>
     <use xlink:href="#m801ec0d174" x="492.193565" y="246.099345" style="fill: #ff0000; stroke: #000000"/>
     <use xlink:href="#m801ec0d174" x="468.035251" y="212.501236" style="fill: #ff0000; stroke: #000000"/>
     <use xlink:href="#m801ec0d174" x="482.530239" y="277.701527" style="fill: #ff0000; stroke: #000000"/>
     <use xlink:href="#m801ec0d174" x="429.381947" y="193.872582" style="fill: #ff0000; stroke: #000000"/>
     <use xlink:href="#m801ec0d174" x="497.025228" y="196.533818" style="fill: #ff0000; stroke: #000000"/>
     <use xlink:href="#m801ec0d174" x="468.035251" y="193.872582" style="fill: #ff0000; stroke: #000000"/>
     <use xlink:href="#m801ec0d174" x="497.025228" y="273.709673" style="fill: #ff0000; stroke: #000000"/>
     <use xlink:href="#m801ec0d174" x="472.866913" y="268.054545" style="fill: #ff0000; stroke: #000000"/>
     <use xlink:href="#m801ec0d174" x="482.530239" y="165.264291" style="fill: #ff0000; stroke: #000000"/>
     <use xlink:href="#m801ec0d174" x="352.075341" y="277.701527" style="fill: #ff0000; stroke: #000000"/>
     <use xlink:href="#m801ec0d174" x="395.560307" y="202.188945" style="fill: #ff0000; stroke: #000000"/>
     <use xlink:href="#m801ec0d174" x="453.540262" y="212.833891" style="fill: #ff0000; stroke: #000000"/>
     <use xlink:href="#m801ec0d174" x="477.698576" y="234.123782" style="fill: #ff0000; stroke: #000000"/>
     <use xlink:href="#m801ec0d174" x="443.876936" y="260.736145" style="fill: #ff0000; stroke: #000000"/>
     <use xlink:href="#m801ec0d174" x="472.866913" y="213.831855" style="fill: #ff0000; stroke: #000000"/>
     <use xlink:href="#m801ec0d174" x="419.718621" y="250.423855" style="fill: #ff0000; stroke: #000000"/>
     <use xlink:href="#m801ec0d174" x="468.035251" y="197.531782" style="fill: #ff0000; stroke: #000000"/>
     <use xlink:href="#m801ec0d174" x="371.401992" y="206.513455" style="fill: #ff0000; stroke: #000000"/>
     <use xlink:href="#m801ec0d174" x="579.163498" y="147.300945" style="fill: #ff0000; stroke: #000000"/>
     <use xlink:href="#m801ec0d174" x="472.866913" y="76.445527" style="fill: #ff0000; stroke: #000000"/>
     <use xlink:href="#m801ec0d174" x="550.17352" y="495.590255" style="fill: #ff0000; stroke: #000000"/>
     <use xlink:href="#m801ec0d174" x="405.223633" y="290.009745" style="fill: #ff0000; stroke: #000000"/>
     <use xlink:href="#m801ec0d174" x="526.015206" y="480.288145" style="fill: #ff0000; stroke: #000000"/>
     <use xlink:href="#m801ec0d174" x="337.580352" y="296.330182" style="fill: #ff0000; stroke: #000000"/>
     <use xlink:href="#m801ec0d174" x="468.035251" y="55.820945" style="fill: #ff0000; stroke: #000000"/>
     <use xlink:href="#m801ec0d174" x="453.540262" y="120.023273" style="fill: #ff0000; stroke: #000000"/>
     <use xlink:href="#m801ec0d174" x="468.035251" y="137.986618" style="fill: #ff0000; stroke: #000000"/>
     <use xlink:href="#m801ec0d174" x="468.035251" y="207.844073" style="fill: #ff0000; stroke: #000000"/>
     <use xlink:href="#m801ec0d174" x="405.223633" y="295.664873" style="fill: #ff0000; stroke: #000000"/>
     <use xlink:href="#m801ec0d174" x="472.866913" y="213.831855" style="fill: #ff0000; stroke: #000000"/>
     <use xlink:href="#m801ec0d174" x="477.698576" y="191.211345" style="fill: #ff0000; stroke: #000000"/>
     <use xlink:href="#m801ec0d174" x="414.886958" y="172.250036" style="fill: #ff0000; stroke: #000000"/>
     <use xlink:href="#m801ec0d174" x="400.39197" y="187.8848" style="fill: #ff0000; stroke: #000000"/>
     <use xlink:href="#m801ec0d174" x="337.580352" y="212.833891" style="fill: #ff0000; stroke: #000000"/>
     <use xlink:href="#m801ec0d174" x="255.442082" y="263.064727" style="fill: #ff0000; stroke: #000000"/>
     <use xlink:href="#m801ec0d174" x="439.045273" y="254.083055" style="fill: #ff0000; stroke: #000000"/>
     <use xlink:href="#m801ec0d174" x="414.886958" y="237.782982" style="fill: #ff0000; stroke: #000000"/>
     <use xlink:href="#m801ec0d174" x="501.856891" y="217.823709" style="fill: #ff0000; stroke: #000000"/>
     <use xlink:href="#m801ec0d174" x="443.876936" y="410.430691" style="fill: #ff0000; stroke: #000000"/>
     <use xlink:href="#m801ec0d174" x="487.361902" y="236.452364" style="fill: #ff0000; stroke: #000000"/>
     <use xlink:href="#m801ec0d174" x="1028.508149" y="493.594327" style="fill: #ff0000; stroke: #000000"/>
    </g>
   </g>
   <g id="PathCollection_2">
    <defs>
     <path id="m133301b1cc" d="M 0 2.236068 
C 0.593012 2.236068 1.161816 2.000462 1.581139 1.581139 
C 2.000462 1.161816 2.236068 0.593012 2.236068 0 
C 2.236068 -0.593012 2.000462 -1.161816 1.581139 -1.581139 
C 1.161816 -2.000462 0.593012 -2.236068 0 -2.236068 
C -0.593012 -2.236068 -1.161816 -2.000462 -1.581139 -1.581139 
C -2.000462 -1.161816 -2.236068 -0.593012 -2.236068 0 
C -2.236068 0.593012 -2.000462 1.161816 -1.581139 1.581139 
C -1.161816 2.000462 -0.593012 2.236068 0 2.236068 
z
" style="stroke: #000000"/>
    </defs>
    <g clip-path="url(#pdcd1c16ca5)">
     <use xlink:href="#m133301b1cc" x="477.698576" y="287.681164" style="fill: #808080; stroke: #000000"/>
     <use xlink:href="#m133301b1cc" x="530.846868" y="326.601745" style="fill: #808080; stroke: #000000"/>
     <use xlink:href="#m133301b1cc" x="492.193565" y="226.805382" style="fill: #808080; stroke: #000000"/>
     <use xlink:href="#m133301b1cc" x="535.678531" y="302.317964" style="fill: #808080; stroke: #000000"/>
     <use xlink:href="#m133301b1cc" x="530.846868" y="383.485673" style="fill: #808080; stroke: #000000"/>
     <use xlink:href="#m133301b1cc" x="535.678531" y="251.089164" style="fill: #808080; stroke: #000000"/>
     <use xlink:href="#m133301b1cc" x="521.183543" y="477.294255" style="fill: #808080; stroke: #000000"/>
     <use xlink:href="#m133301b1cc" x="535.678531" y="214.497164" style="fill: #808080; stroke: #000000"/>
     <use xlink:href="#m133301b1cc" x="511.520217" y="147.300945" style="fill: #808080; stroke: #000000"/>
     <use xlink:href="#m133301b1cc" x="458.371925" y="196.866473" style="fill: #808080; stroke: #000000"/>
     <use xlink:href="#m133301b1cc" x="540.510194" y="403.444945" style="fill: #808080; stroke: #000000"/>
     <use xlink:href="#m133301b1cc" x="511.520217" y="189.548073" style="fill: #808080; stroke: #000000"/>
     <use xlink:href="#m133301b1cc" x="501.856891" y="204.184873" style="fill: #808080; stroke: #000000"/>
     <use xlink:href="#m133301b1cc" x="516.35188" y="136.988655" style="fill: #808080; stroke: #000000"/>
     <use xlink:href="#m133301b1cc" x="526.015206" y="329.928291" style="fill: #808080; stroke: #000000"/>
     <use xlink:href="#m133301b1cc" x="487.361902" y="312.630255" style="fill: #808080; stroke: #000000"/>
     <use xlink:href="#m133301b1cc" x="516.35188" y="128.006982" style="fill: #808080; stroke: #000000"/>
     <use xlink:href="#m133301b1cc" x="477.698576" y="235.4544" style="fill: #808080; stroke: #000000"/>
     <use xlink:href="#m133301b1cc" x="550.17352" y="247.097309" style="fill: #808080; stroke: #000000"/>
     <use xlink:href="#m133301b1cc" x="482.530239" y="258.407564" style="fill: #808080; stroke: #000000"/>
     <use xlink:href="#m133301b1cc" x="535.678531" y="116.696727" style="fill: #808080; stroke: #000000"/>
     <use xlink:href="#m133301b1cc" x="506.688554" y="113.370182" style="fill: #808080; stroke: #000000"/>
     <use xlink:href="#m133301b1cc" x="472.866913" y="249.093236" style="fill: #808080; stroke: #000000"/>
     <use xlink:href="#m133301b1cc" x="434.21361" y="208.842036" style="fill: #808080; stroke: #000000"/>
     <use xlink:href="#m133301b1cc" x="492.193565" y="480.6208" style="fill: #808080; stroke: #000000"/>
     <use xlink:href="#m133301b1cc" x="477.698576" y="248.427927" style="fill: #808080; stroke: #000000"/>
     <use xlink:href="#m133301b1cc" x="468.035251" y="130.668218" style="fill: #808080; stroke: #000000"/>
     <use xlink:href="#m133301b1cc" x="501.856891" y="235.121745" style="fill: #808080; stroke: #000000"/>
     <use xlink:href="#m133301b1cc" x="555.005183" y="323.940509" style="fill: #808080; stroke: #000000"/>
     <use xlink:href="#m133301b1cc" x="501.856891" y="184.558255" style="fill: #808080; stroke: #000000"/>
     <use xlink:href="#m133301b1cc" x="492.193565" y="160.274473" style="fill: #808080; stroke: #000000"/>
     <use xlink:href="#m133301b1cc" x="545.341857" y="293.336291" style="fill: #808080; stroke: #000000"/>
     <use xlink:href="#m133301b1cc" x="545.341857" y="264.728" style="fill: #808080; stroke: #000000"/>
     <use xlink:href="#m133301b1cc" x="506.688554" y="193.207273" style="fill: #808080; stroke: #000000"/>
     <use xlink:href="#m133301b1cc" x="477.698576" y="159.941818" style="fill: #808080; stroke: #000000"/>
     <use xlink:href="#m133301b1cc" x="540.510194" y="176.574545" style="fill: #808080; stroke: #000000"/>
     <use xlink:href="#m133301b1cc" x="472.866913" y="199.860364" style="fill: #808080; stroke: #000000"/>
     <use xlink:href="#m133301b1cc" x="506.688554" y="157.613236" style="fill: #808080; stroke: #000000"/>
     <use xlink:href="#m133301b1cc" x="521.183543" y="233.458473" style="fill: #808080; stroke: #000000"/>
     <use xlink:href="#m133301b1cc" x="487.361902" y="50.165818" style="fill: #808080; stroke: #000000"/>
     <use xlink:href="#m133301b1cc" x="501.856891" y="327.599709" style="fill: #808080; stroke: #000000"/>
     <use xlink:href="#m133301b1cc" x="472.866913" y="219.154327" style="fill: #808080; stroke: #000000"/>
     <use xlink:href="#m133301b1cc" x="516.35188" y="289.011782" style="fill: #808080; stroke: #000000"/>
     <use xlink:href="#m133301b1cc" x="492.193565" y="133.994764" style="fill: #808080; stroke: #000000"/>
     <use xlink:href="#m133301b1cc" x="501.856891" y="287.348509" style="fill: #808080; stroke: #000000"/>
     <use xlink:href="#m133301b1cc" x="535.678531" y="50.498473" style="fill: #808080; stroke: #000000"/>
     <use xlink:href="#m133301b1cc" x="501.856891" y="149.629527" style="fill: #808080; stroke: #000000"/>
     <use xlink:href="#m133301b1cc" x="579.163498" y="284.021964" style="fill: #808080; stroke: #000000"/>
     <use xlink:href="#m133301b1cc" x="511.520217" y="137.653964" style="fill: #808080; stroke: #000000"/>
     <use xlink:href="#m133301b1cc" x="516.35188" y="274.042327" style="fill: #808080; stroke: #000000"/>
     <use xlink:href="#m133301b1cc" x="497.025228" y="279.3648" style="fill: #808080; stroke: #000000"/>
     <use xlink:href="#m133301b1cc" x="521.183543" y="328.930327" style="fill: #808080; stroke: #000000"/>
     <use xlink:href="#m133301b1cc" x="468.035251" y="268.3872" style="fill: #808080; stroke: #000000"/>
     <use xlink:href="#m133301b1cc" x="497.025228" y="305.311855" style="fill: #808080; stroke: #000000"/>
     <use xlink:href="#m133301b1cc" x="516.35188" y="87.755782" style="fill: #808080; stroke: #000000"/>
     <use xlink:href="#m133301b1cc" x="530.846868" y="279.032145" style="fill: #808080; stroke: #000000"/>
     <use xlink:href="#m133301b1cc" x="497.025228" y="278.034182" style="fill: #808080; stroke: #000000"/>
     <use xlink:href="#m133301b1cc" x="506.688554" y="203.186909" style="fill: #808080; stroke: #000000"/>
     <use xlink:href="#m133301b1cc" x="526.015206" y="241.442182" style="fill: #808080; stroke: #000000"/>
     <use xlink:href="#m133301b1cc" x="492.193565" y="300.654691" style="fill: #808080; stroke: #000000"/>
     <use xlink:href="#m133301b1cc" x="506.688554" y="262.399418" style="fill: #808080; stroke: #000000"/>
     <use xlink:href="#m133301b1cc" x="477.698576" y="211.835927" style="fill: #808080; stroke: #000000"/>
     <use xlink:href="#m133301b1cc" x="477.698576" y="152.623418" style="fill: #808080; stroke: #000000"/>
     <use xlink:href="#m133301b1cc" x="477.698576" y="252.419782" style="fill: #808080; stroke: #000000"/>
     <use xlink:href="#m133301b1cc" x="477.698576" y="143.309091" style="fill: #808080; stroke: #000000"/>
     <use xlink:href="#m133301b1cc" x="526.015206" y="165.9296" style="fill: #808080; stroke: #000000"/>
     <use xlink:href="#m133301b1cc" x="472.866913" y="145.637673" style="fill: #808080; stroke: #000000"/>
     <use xlink:href="#m133301b1cc" x="526.015206" y="206.846109" style="fill: #808080; stroke: #000000"/>
     <use xlink:href="#m133301b1cc" x="530.846868" y="225.807418" style="fill: #808080; stroke: #000000"/>
     <use xlink:href="#m133301b1cc" x="516.35188" y="61.476073" style="fill: #808080; stroke: #000000"/>
     <use xlink:href="#m133301b1cc" x="501.856891" y="214.164509" style="fill: #808080; stroke: #000000"/>
     <use xlink:href="#m133301b1cc" x="468.035251" y="332.589527" style="fill: #808080; stroke: #000000"/>
     <use xlink:href="#m133301b1cc" x="482.530239" y="113.370182" style="fill: #808080; stroke: #000000"/>
     <use xlink:href="#m133301b1cc" x="448.708599" y="171.584727" style="fill: #808080; stroke: #000000"/>
     <use xlink:href="#m133301b1cc" x="482.530239" y="515.882182" style="fill: #808080; stroke: #000000"/>
     <use xlink:href="#m133301b1cc" x="550.17352" y="388.808145" style="fill: #808080; stroke: #000000"/>
     <use xlink:href="#m133301b1cc" x="443.876936" y="257.4096" style="fill: #808080; stroke: #000000"/>
     <use xlink:href="#m133301b1cc" x="472.866913" y="57.816873" style="fill: #808080; stroke: #000000"/>
     <use xlink:href="#m133301b1cc" x="458.371925" y="250.423855" style="fill: #808080; stroke: #000000"/>
     <use xlink:href="#m133301b1cc" x="506.688554" y="267.056582" style="fill: #808080; stroke: #000000"/>
     <use xlink:href="#m133301b1cc" x="477.698576" y="308.305745" style="fill: #808080; stroke: #000000"/>
     <use xlink:href="#m133301b1cc" x="429.381947" y="179.901091" style="fill: #808080; stroke: #000000"/>
     <use xlink:href="#m133301b1cc" x="472.866913" y="82.433309" style="fill: #808080; stroke: #000000"/>
     <use xlink:href="#m133301b1cc" x="487.361902" y="301.985309" style="fill: #808080; stroke: #000000"/>
     <use xlink:href="#m133301b1cc" x="516.35188" y="257.742255" style="fill: #808080; stroke: #000000"/>
     <use xlink:href="#m133301b1cc" x="511.520217" y="89.0864" style="fill: #808080; stroke: #000000"/>
     <use xlink:href="#m133301b1cc" x="472.866913" y="150.627491" style="fill: #808080; stroke: #000000"/>
     <use xlink:href="#m133301b1cc" x="453.540262" y="232.460509" style="fill: #808080; stroke: #000000"/>
     <use xlink:href="#m133301b1cc" x="468.035251" y="277.368873" style="fill: #808080; stroke: #000000"/>
     <use xlink:href="#m133301b1cc" x="487.361902" y="168.258182" style="fill: #808080; stroke: #000000"/>
     <use xlink:href="#m133301b1cc" x="463.203588" y="202.188945" style="fill: #808080; stroke: #000000"/>
     <use xlink:href="#m133301b1cc" x="511.520217" y="60.478109" style="fill: #808080; stroke: #000000"/>
     <use xlink:href="#m133301b1cc" x="482.530239" y="104.388509" style="fill: #808080; stroke: #000000"/>
     <use xlink:href="#m133301b1cc" x="472.866913" y="335.583418" style="fill: #808080; stroke: #000000"/>
     <use xlink:href="#m133301b1cc" x="497.025228" y="189.880727" style="fill: #808080; stroke: #000000"/>
     <use xlink:href="#m133301b1cc" x="448.708599" y="125.013091" style="fill: #808080; stroke: #000000"/>
     <use xlink:href="#m133301b1cc" x="574.331835" y="224.144145" style="fill: #808080; stroke: #000000"/>
     <use xlink:href="#m133301b1cc" x="453.540262" y="201.856291" style="fill: #808080; stroke: #000000"/>
     <use xlink:href="#m133301b1cc" x="448.708599" y="229.466618" style="fill: #808080; stroke: #000000"/>
     <use xlink:href="#m133301b1cc" x="448.708599" y="204.850182" style="fill: #808080; stroke: #000000"/>
     <use xlink:href="#m133301b1cc" x="482.530239" y="277.701527" style="fill: #808080; stroke: #000000"/>
     <use xlink:href="#m133301b1cc" x="482.530239" y="251.754473" style="fill: #808080; stroke: #000000"/>
     <use xlink:href="#m133301b1cc" x="400.39197" y="270.715782" style="fill: #808080; stroke: #000000"/>
     <use xlink:href="#m133301b1cc" x="472.866913" y="498.584145" style="fill: #808080; stroke: #000000"/>
     <use xlink:href="#m133301b1cc" x="482.530239" y="500.580073" style="fill: #808080; stroke: #000000"/>
     <use xlink:href="#m133301b1cc" x="487.361902" y="148.964218" style="fill: #808080; stroke: #000000"/>
     <use xlink:href="#m133301b1cc" x="516.35188" y="197.531782" style="fill: #808080; stroke: #000000"/>
    </g>
   </g>
   <g id="matplotlib.axis_3">
    <g id="xtick_1">
     <g id="line2d_10">
      <path d="M 284.43206 539.168 
L 284.43206 26.88 
" clip-path="url(#pdcd1c16ca5)" style="fill: none; stroke: #b0b0b0; stroke-width: 0.8; stroke-linecap: square"/>
     </g>
     <g id="line2d_11">
      <defs>
       <path id="maec4a0eebf" d="M 0 0 
L 0 3.5 
" style="stroke: #000000; stroke-width: 0.8"/>
      </defs>
      <g>
       <use xlink:href="#maec4a0eebf" x="284.43206" y="539.168" style="stroke: #000000; stroke-width: 0.8"/>
      </g>
     </g>
     <g id="text_9">
      <!-- 80 -->
      <g transform="translate(278.06956 553.766438) scale(0.1 -0.1)">
       <defs>
        <path id="DejaVuSans-38" d="M 2034 2216 
Q 1584 2216 1326 1975 
Q 1069 1734 1069 1313 
Q 1069 891 1326 650 
Q 1584 409 2034 409 
Q 2484 409 2743 651 
Q 3003 894 3003 1313 
Q 3003 1734 2745 1975 
Q 2488 2216 2034 2216 
z
M 1403 2484 
Q 997 2584 770 2862 
Q 544 3141 544 3541 
Q 544 4100 942 4425 
Q 1341 4750 2034 4750 
Q 2731 4750 3128 4425 
Q 3525 4100 3525 3541 
Q 3525 3141 3298 2862 
Q 3072 2584 2669 2484 
Q 3125 2378 3379 2068 
Q 3634 1759 3634 1313 
Q 3634 634 3220 271 
Q 2806 -91 2034 -91 
Q 1263 -91 848 271 
Q 434 634 434 1313 
Q 434 1759 690 2068 
Q 947 2378 1403 2484 
z
M 1172 3481 
Q 1172 3119 1398 2916 
Q 1625 2713 2034 2713 
Q 2441 2713 2670 2916 
Q 2900 3119 2900 3481 
Q 2900 3844 2670 4047 
Q 2441 4250 2034 4250 
Q 1625 4250 1398 4047 
Q 1172 3844 1172 3481 
z
" transform="scale(0.015625)"/>
       </defs>
       <use xlink:href="#DejaVuSans-38"/>
       <use xlink:href="#DejaVuSans-30" x="63.623047"/>
      </g>
     </g>
    </g>
    <g id="xtick_2">
     <g id="line2d_12">
      <path d="M 381.065318 539.168 
L 381.065318 26.88 
" clip-path="url(#pdcd1c16ca5)" style="fill: none; stroke: #b0b0b0; stroke-width: 0.8; stroke-linecap: square"/>
     </g>
     <g id="line2d_13">
      <g>
       <use xlink:href="#maec4a0eebf" x="381.065318" y="539.168" style="stroke: #000000; stroke-width: 0.8"/>
      </g>
     </g>
     <g id="text_10">
      <!-- 100 -->
      <g transform="translate(371.521568 553.766438) scale(0.1 -0.1)">
       <use xlink:href="#DejaVuSans-31"/>
       <use xlink:href="#DejaVuSans-30" x="63.623047"/>
       <use xlink:href="#DejaVuSans-30" x="127.246094"/>
      </g>
     </g>
    </g>
    <g id="xtick_3">
     <g id="line2d_14">
      <path d="M 477.698576 539.168 
L 477.698576 26.88 
" clip-path="url(#pdcd1c16ca5)" style="fill: none; stroke: #b0b0b0; stroke-width: 0.8; stroke-linecap: square"/>
     </g>
     <g id="line2d_15">
      <g>
       <use xlink:href="#maec4a0eebf" x="477.698576" y="539.168" style="stroke: #000000; stroke-width: 0.8"/>
      </g>
     </g>
     <g id="text_11">
      <!-- 120 -->
      <g transform="translate(468.154826 553.766438) scale(0.1 -0.1)">
       <use xlink:href="#DejaVuSans-31"/>
       <use xlink:href="#DejaVuSans-32" x="63.623047"/>
       <use xlink:href="#DejaVuSans-30" x="127.246094"/>
      </g>
     </g>
    </g>
    <g id="xtick_4">
     <g id="line2d_16">
      <path d="M 574.331835 539.168 
L 574.331835 26.88 
" clip-path="url(#pdcd1c16ca5)" style="fill: none; stroke: #b0b0b0; stroke-width: 0.8; stroke-linecap: square"/>
     </g>
     <g id="line2d_17">
      <g>
       <use xlink:href="#maec4a0eebf" x="574.331835" y="539.168" style="stroke: #000000; stroke-width: 0.8"/>
      </g>
     </g>
     <g id="text_12">
      <!-- 140 -->
      <g transform="translate(564.788085 553.766438) scale(0.1 -0.1)">
       <defs>
        <path id="DejaVuSans-34" d="M 2419 4116 
L 825 1625 
L 2419 1625 
L 2419 4116 
z
M 2253 4666 
L 3047 4666 
L 3047 1625 
L 3713 1625 
L 3713 1100 
L 3047 1100 
L 3047 0 
L 2419 0 
L 2419 1100 
L 313 1100 
L 313 1709 
L 2253 4666 
z
" transform="scale(0.015625)"/>
       </defs>
       <use xlink:href="#DejaVuSans-31"/>
       <use xlink:href="#DejaVuSans-34" x="63.623047"/>
       <use xlink:href="#DejaVuSans-30" x="127.246094"/>
      </g>
     </g>
    </g>
    <g id="xtick_5">
     <g id="line2d_18">
      <path d="M 670.965093 539.168 
L 670.965093 26.88 
" clip-path="url(#pdcd1c16ca5)" style="fill: none; stroke: #b0b0b0; stroke-width: 0.8; stroke-linecap: square"/>
     </g>
     <g id="line2d_19">
      <g>
       <use xlink:href="#maec4a0eebf" x="670.965093" y="539.168" style="stroke: #000000; stroke-width: 0.8"/>
      </g>
     </g>
     <g id="text_13">
      <!-- 160 -->
      <g transform="translate(661.421343 553.766438) scale(0.1 -0.1)">
       <defs>
        <path id="DejaVuSans-36" d="M 2113 2584 
Q 1688 2584 1439 2293 
Q 1191 2003 1191 1497 
Q 1191 994 1439 701 
Q 1688 409 2113 409 
Q 2538 409 2786 701 
Q 3034 994 3034 1497 
Q 3034 2003 2786 2293 
Q 2538 2584 2113 2584 
z
M 3366 4563 
L 3366 3988 
Q 3128 4100 2886 4159 
Q 2644 4219 2406 4219 
Q 1781 4219 1451 3797 
Q 1122 3375 1075 2522 
Q 1259 2794 1537 2939 
Q 1816 3084 2150 3084 
Q 2853 3084 3261 2657 
Q 3669 2231 3669 1497 
Q 3669 778 3244 343 
Q 2819 -91 2113 -91 
Q 1303 -91 875 529 
Q 447 1150 447 2328 
Q 447 3434 972 4092 
Q 1497 4750 2381 4750 
Q 2619 4750 2861 4703 
Q 3103 4656 3366 4563 
z
" transform="scale(0.015625)"/>
       </defs>
       <use xlink:href="#DejaVuSans-31"/>
       <use xlink:href="#DejaVuSans-36" x="63.623047"/>
       <use xlink:href="#DejaVuSans-30" x="127.246094"/>
      </g>
     </g>
    </g>
    <g id="xtick_6">
     <g id="line2d_20">
      <path d="M 767.598351 539.168 
L 767.598351 26.88 
" clip-path="url(#pdcd1c16ca5)" style="fill: none; stroke: #b0b0b0; stroke-width: 0.8; stroke-linecap: square"/>
     </g>
     <g id="line2d_21">
      <g>
       <use xlink:href="#maec4a0eebf" x="767.598351" y="539.168" style="stroke: #000000; stroke-width: 0.8"/>
      </g>
     </g>
     <g id="text_14">
      <!-- 180 -->
      <g transform="translate(758.054601 553.766438) scale(0.1 -0.1)">
       <use xlink:href="#DejaVuSans-31"/>
       <use xlink:href="#DejaVuSans-38" x="63.623047"/>
       <use xlink:href="#DejaVuSans-30" x="127.246094"/>
      </g>
     </g>
    </g>
    <g id="xtick_7">
     <g id="line2d_22">
      <path d="M 864.23161 539.168 
L 864.23161 26.88 
" clip-path="url(#pdcd1c16ca5)" style="fill: none; stroke: #b0b0b0; stroke-width: 0.8; stroke-linecap: square"/>
     </g>
     <g id="line2d_23">
      <g>
       <use xlink:href="#maec4a0eebf" x="864.23161" y="539.168" style="stroke: #000000; stroke-width: 0.8"/>
      </g>
     </g>
     <g id="text_15">
      <!-- 200 -->
      <g transform="translate(854.68786 553.766438) scale(0.1 -0.1)">
       <use xlink:href="#DejaVuSans-32"/>
       <use xlink:href="#DejaVuSans-30" x="63.623047"/>
       <use xlink:href="#DejaVuSans-30" x="127.246094"/>
      </g>
     </g>
    </g>
    <g id="xtick_8">
     <g id="line2d_24">
      <path d="M 960.864868 539.168 
L 960.864868 26.88 
" clip-path="url(#pdcd1c16ca5)" style="fill: none; stroke: #b0b0b0; stroke-width: 0.8; stroke-linecap: square"/>
     </g>
     <g id="line2d_25">
      <g>
       <use xlink:href="#maec4a0eebf" x="960.864868" y="539.168" style="stroke: #000000; stroke-width: 0.8"/>
      </g>
     </g>
     <g id="text_16">
      <!-- 220 -->
      <g transform="translate(951.321118 553.766438) scale(0.1 -0.1)">
       <use xlink:href="#DejaVuSans-32"/>
       <use xlink:href="#DejaVuSans-32" x="63.623047"/>
       <use xlink:href="#DejaVuSans-30" x="127.246094"/>
      </g>
     </g>
    </g>
    <g id="xtick_9">
     <g id="line2d_26">
      <path d="M 1057.498126 539.168 
L 1057.498126 26.88 
" clip-path="url(#pdcd1c16ca5)" style="fill: none; stroke: #b0b0b0; stroke-width: 0.8; stroke-linecap: square"/>
     </g>
     <g id="line2d_27">
      <g>
       <use xlink:href="#maec4a0eebf" x="1057.498126" y="539.168" style="stroke: #000000; stroke-width: 0.8"/>
      </g>
     </g>
     <g id="text_17">
      <!-- 240 -->
      <g transform="translate(1047.954376 553.766438) scale(0.1 -0.1)">
       <use xlink:href="#DejaVuSans-32"/>
       <use xlink:href="#DejaVuSans-34" x="63.623047"/>
       <use xlink:href="#DejaVuSans-30" x="127.246094"/>
      </g>
     </g>
    </g>
    <g id="text_18">
     <!-- Day of Year -->
     <g transform="translate(613.516522 567.444563) scale(0.1 -0.1)">
      <defs>
       <path id="DejaVuSans-79" d="M 2059 -325 
Q 1816 -950 1584 -1140 
Q 1353 -1331 966 -1331 
L 506 -1331 
L 506 -850 
L 844 -850 
Q 1081 -850 1212 -737 
Q 1344 -625 1503 -206 
L 1606 56 
L 191 3500 
L 800 3500 
L 1894 763 
L 2988 3500 
L 3597 3500 
L 2059 -325 
z
" transform="scale(0.015625)"/>
       <path id="DejaVuSans-66" d="M 2375 4863 
L 2375 4384 
L 1825 4384 
Q 1516 4384 1395 4259 
Q 1275 4134 1275 3809 
L 1275 3500 
L 2222 3500 
L 2222 3053 
L 1275 3053 
L 1275 0 
L 697 0 
L 697 3053 
L 147 3053 
L 147 3500 
L 697 3500 
L 697 3744 
Q 697 4328 969 4595 
Q 1241 4863 1831 4863 
L 2375 4863 
z
" transform="scale(0.015625)"/>
       <path id="DejaVuSans-59" d="M -13 4666 
L 666 4666 
L 1959 2747 
L 3244 4666 
L 3922 4666 
L 2272 2222 
L 2272 0 
L 1638 0 
L 1638 2222 
L -13 4666 
z
" transform="scale(0.015625)"/>
      </defs>
      <use xlink:href="#DejaVuSans-44"/>
      <use xlink:href="#DejaVuSans-61" x="77.001953"/>
      <use xlink:href="#DejaVuSans-79" x="138.28125"/>
      <use xlink:href="#DejaVuSans-20" x="197.460938"/>
      <use xlink:href="#DejaVuSans-6f" x="229.248047"/>
      <use xlink:href="#DejaVuSans-66" x="290.429688"/>
      <use xlink:href="#DejaVuSans-20" x="325.634766"/>
      <use xlink:href="#DejaVuSans-59" x="357.421875"/>
      <use xlink:href="#DejaVuSans-65" x="405.255859"/>
      <use xlink:href="#DejaVuSans-61" x="466.779297"/>
      <use xlink:href="#DejaVuSans-72" x="528.058594"/>
     </g>
    </g>
   </g>
   <g id="matplotlib.axis_4">
    <g id="ytick_6">
     <g id="line2d_28">
      <path d="M 216.788779 517.2128 
L 1067.161452 517.2128 
" clip-path="url(#pdcd1c16ca5)" style="fill: none; stroke: #b0b0b0; stroke-width: 0.8; stroke-linecap: square"/>
     </g>
     <g id="line2d_29">
      <g>
       <use xlink:href="#m6cff0bb033" x="216.788779" y="517.2128" style="stroke: #000000; stroke-width: 0.8"/>
      </g>
     </g>
     <g id="text_19">
      <!-- 0 -->
      <g transform="translate(203.426279 521.012019) scale(0.1 -0.1)">
       <use xlink:href="#DejaVuSans-30"/>
      </g>
     </g>
    </g>
    <g id="ytick_7">
     <g id="line2d_30">
      <path d="M 216.788779 417.416436 
L 1067.161452 417.416436 
" clip-path="url(#pdcd1c16ca5)" style="fill: none; stroke: #b0b0b0; stroke-width: 0.8; stroke-linecap: square"/>
     </g>
     <g id="line2d_31">
      <g>
       <use xlink:href="#m6cff0bb033" x="216.788779" y="417.416436" style="stroke: #000000; stroke-width: 0.8"/>
      </g>
     </g>
     <g id="text_20">
      <!-- 5 -->
      <g transform="translate(203.426279 421.215655) scale(0.1 -0.1)">
       <use xlink:href="#DejaVuSans-35"/>
      </g>
     </g>
    </g>
    <g id="ytick_8">
     <g id="line2d_32">
      <path d="M 216.788779 317.620073 
L 1067.161452 317.620073 
" clip-path="url(#pdcd1c16ca5)" style="fill: none; stroke: #b0b0b0; stroke-width: 0.8; stroke-linecap: square"/>
     </g>
     <g id="line2d_33">
      <g>
       <use xlink:href="#m6cff0bb033" x="216.788779" y="317.620073" style="stroke: #000000; stroke-width: 0.8"/>
      </g>
     </g>
     <g id="text_21">
      <!-- 10 -->
      <g transform="translate(197.063779 321.419291) scale(0.1 -0.1)">
       <use xlink:href="#DejaVuSans-31"/>
       <use xlink:href="#DejaVuSans-30" x="63.623047"/>
      </g>
     </g>
    </g>
    <g id="ytick_9">
     <g id="line2d_34">
      <path d="M 216.788779 217.823709 
L 1067.161452 217.823709 
" clip-path="url(#pdcd1c16ca5)" style="fill: none; stroke: #b0b0b0; stroke-width: 0.8; stroke-linecap: square"/>
     </g>
     <g id="line2d_35">
      <g>
       <use xlink:href="#m6cff0bb033" x="216.788779" y="217.823709" style="stroke: #000000; stroke-width: 0.8"/>
      </g>
     </g>
     <g id="text_22">
      <!-- 15 -->
      <g transform="translate(197.063779 221.622928) scale(0.1 -0.1)">
       <use xlink:href="#DejaVuSans-31"/>
       <use xlink:href="#DejaVuSans-35" x="63.623047"/>
      </g>
     </g>
    </g>
    <g id="ytick_10">
     <g id="line2d_36">
      <path d="M 216.788779 118.027345 
L 1067.161452 118.027345 
" clip-path="url(#pdcd1c16ca5)" style="fill: none; stroke: #b0b0b0; stroke-width: 0.8; stroke-linecap: square"/>
     </g>
     <g id="line2d_37">
      <g>
       <use xlink:href="#m6cff0bb033" x="216.788779" y="118.027345" style="stroke: #000000; stroke-width: 0.8"/>
      </g>
     </g>
     <g id="text_23">
      <!-- 20 -->
      <g transform="translate(197.063779 121.826564) scale(0.1 -0.1)">
       <use xlink:href="#DejaVuSans-32"/>
       <use xlink:href="#DejaVuSans-30" x="63.623047"/>
      </g>
     </g>
    </g>
    <g id="text_24">
     <!-- Time (Decimal) -->
     <g transform="translate(190.984091 321.1365) rotate(-90) scale(0.1 -0.1)">
      <defs>
       <path id="DejaVuSans-54" d="M -19 4666 
L 3928 4666 
L 3928 4134 
L 2272 4134 
L 2272 0 
L 1638 0 
L 1638 4134 
L -19 4134 
L -19 4666 
z
" transform="scale(0.015625)"/>
       <path id="DejaVuSans-28" d="M 1984 4856 
Q 1566 4138 1362 3434 
Q 1159 2731 1159 2009 
Q 1159 1288 1364 580 
Q 1569 -128 1984 -844 
L 1484 -844 
Q 1016 -109 783 600 
Q 550 1309 550 2009 
Q 550 2706 781 3412 
Q 1013 4119 1484 4856 
L 1984 4856 
z
" transform="scale(0.015625)"/>
       <path id="DejaVuSans-63" d="M 3122 3366 
L 3122 2828 
Q 2878 2963 2633 3030 
Q 2388 3097 2138 3097 
Q 1578 3097 1268 2742 
Q 959 2388 959 1747 
Q 959 1106 1268 751 
Q 1578 397 2138 397 
Q 2388 397 2633 464 
Q 2878 531 3122 666 
L 3122 134 
Q 2881 22 2623 -34 
Q 2366 -91 2075 -91 
Q 1284 -91 818 406 
Q 353 903 353 1747 
Q 353 2603 823 3093 
Q 1294 3584 2113 3584 
Q 2378 3584 2631 3529 
Q 2884 3475 3122 3366 
z
" transform="scale(0.015625)"/>
       <path id="DejaVuSans-6c" d="M 603 4863 
L 1178 4863 
L 1178 0 
L 603 0 
L 603 4863 
z
" transform="scale(0.015625)"/>
       <path id="DejaVuSans-29" d="M 513 4856 
L 1013 4856 
Q 1481 4119 1714 3412 
Q 1947 2706 1947 2009 
Q 1947 1309 1714 600 
Q 1481 -109 1013 -844 
L 513 -844 
Q 928 -128 1133 580 
Q 1338 1288 1338 2009 
Q 1338 2731 1133 3434 
Q 928 4138 513 4856 
z
" transform="scale(0.015625)"/>
      </defs>
      <use xlink:href="#DejaVuSans-54"/>
      <use xlink:href="#DejaVuSans-69" x="57.958984"/>
      <use xlink:href="#DejaVuSans-6d" x="85.742188"/>
      <use xlink:href="#DejaVuSans-65" x="183.154297"/>
      <use xlink:href="#DejaVuSans-20" x="244.677734"/>
      <use xlink:href="#DejaVuSans-28" x="276.464844"/>
      <use xlink:href="#DejaVuSans-44" x="315.478516"/>
      <use xlink:href="#DejaVuSans-65" x="392.480469"/>
      <use xlink:href="#DejaVuSans-63" x="454.003906"/>
      <use xlink:href="#DejaVuSans-69" x="508.984375"/>
      <use xlink:href="#DejaVuSans-6d" x="536.767578"/>
      <use xlink:href="#DejaVuSans-61" x="634.179688"/>
      <use xlink:href="#DejaVuSans-6c" x="695.458984"/>
      <use xlink:href="#DejaVuSans-29" x="723.242188"/>
     </g>
    </g>
   </g>
   <g id="patch_20">
    <path d="M 216.788779 539.168 
L 216.788779 26.88 
" style="fill: none; stroke: #000000; stroke-width: 0.8; stroke-linejoin: miter; stroke-linecap: square"/>
   </g>
   <g id="patch_21">
    <path d="M 1067.161452 539.168 
L 1067.161452 26.88 
" style="fill: none; stroke: #000000; stroke-width: 0.8; stroke-linejoin: miter; stroke-linecap: square"/>
   </g>
   <g id="patch_22">
    <path d="M 216.788779 539.168 
L 1067.161452 539.168 
" style="fill: none; stroke: #000000; stroke-width: 0.8; stroke-linejoin: miter; stroke-linecap: square"/>
   </g>
   <g id="patch_23">
    <path d="M 216.788779 26.88 
L 1067.161452 26.88 
" style="fill: none; stroke: #000000; stroke-width: 0.8; stroke-linejoin: miter; stroke-linecap: square"/>
   </g>
   <g id="text_25">
    <!-- Historic Breakup (with density estimates) and 2025 Predictions -->
    <g transform="translate(452.725741 20.88) scale(0.12 -0.12)">
     <defs>
      <path id="DejaVuSans-42" d="M 1259 2228 
L 1259 519 
L 2272 519 
Q 2781 519 3026 730 
Q 3272 941 3272 1375 
Q 3272 1813 3026 2020 
Q 2781 2228 2272 2228 
L 1259 2228 
z
M 1259 4147 
L 1259 2741 
L 2194 2741 
Q 2656 2741 2882 2914 
Q 3109 3088 3109 3444 
Q 3109 3797 2882 3972 
Q 2656 4147 2194 4147 
L 1259 4147 
z
M 628 4666 
L 2241 4666 
Q 2963 4666 3353 4366 
Q 3744 4066 3744 3513 
Q 3744 3084 3544 2831 
Q 3344 2578 2956 2516 
Q 3422 2416 3680 2098 
Q 3938 1781 3938 1306 
Q 3938 681 3513 340 
Q 3088 0 2303 0 
L 628 0 
L 628 4666 
z
" transform="scale(0.015625)"/>
      <path id="DejaVuSans-6b" d="M 581 4863 
L 1159 4863 
L 1159 1991 
L 2875 3500 
L 3609 3500 
L 1753 1863 
L 3688 0 
L 2938 0 
L 1159 1709 
L 1159 0 
L 581 0 
L 581 4863 
z
" transform="scale(0.015625)"/>
      <path id="DejaVuSans-75" d="M 544 1381 
L 544 3500 
L 1119 3500 
L 1119 1403 
Q 1119 906 1312 657 
Q 1506 409 1894 409 
Q 2359 409 2629 706 
Q 2900 1003 2900 1516 
L 2900 3500 
L 3475 3500 
L 3475 0 
L 2900 0 
L 2900 538 
Q 2691 219 2414 64 
Q 2138 -91 1772 -91 
Q 1169 -91 856 284 
Q 544 659 544 1381 
z
M 1991 3584 
L 1991 3584 
z
" transform="scale(0.015625)"/>
      <path id="DejaVuSans-70" d="M 1159 525 
L 1159 -1331 
L 581 -1331 
L 581 3500 
L 1159 3500 
L 1159 2969 
Q 1341 3281 1617 3432 
Q 1894 3584 2278 3584 
Q 2916 3584 3314 3078 
Q 3713 2572 3713 1747 
Q 3713 922 3314 415 
Q 2916 -91 2278 -91 
Q 1894 -91 1617 61 
Q 1341 213 1159 525 
z
M 3116 1747 
Q 3116 2381 2855 2742 
Q 2594 3103 2138 3103 
Q 1681 3103 1420 2742 
Q 1159 2381 1159 1747 
Q 1159 1113 1420 752 
Q 1681 391 2138 391 
Q 2594 391 2855 752 
Q 3116 1113 3116 1747 
z
" transform="scale(0.015625)"/>
      <path id="DejaVuSans-77" d="M 269 3500 
L 844 3500 
L 1563 769 
L 2278 3500 
L 2956 3500 
L 3675 769 
L 4391 3500 
L 4966 3500 
L 4050 0 
L 3372 0 
L 2619 2869 
L 1863 0 
L 1184 0 
L 269 3500 
z
" transform="scale(0.015625)"/>
      <path id="DejaVuSans-68" d="M 3513 2113 
L 3513 0 
L 2938 0 
L 2938 2094 
Q 2938 2591 2744 2837 
Q 2550 3084 2163 3084 
Q 1697 3084 1428 2787 
Q 1159 2491 1159 1978 
L 1159 0 
L 581 0 
L 581 4863 
L 1159 4863 
L 1159 2956 
Q 1366 3272 1645 3428 
Q 1925 3584 2291 3584 
Q 2894 3584 3203 3211 
Q 3513 2838 3513 2113 
z
" transform="scale(0.015625)"/>
      <path id="DejaVuSans-64" d="M 2906 2969 
L 2906 4863 
L 3481 4863 
L 3481 0 
L 2906 0 
L 2906 525 
Q 2725 213 2448 61 
Q 2172 -91 1784 -91 
Q 1150 -91 751 415 
Q 353 922 353 1747 
Q 353 2572 751 3078 
Q 1150 3584 1784 3584 
Q 2172 3584 2448 3432 
Q 2725 3281 2906 2969 
z
M 947 1747 
Q 947 1113 1208 752 
Q 1469 391 1925 391 
Q 2381 391 2643 752 
Q 2906 1113 2906 1747 
Q 2906 2381 2643 2742 
Q 2381 3103 1925 3103 
Q 1469 3103 1208 2742 
Q 947 2381 947 1747 
z
" transform="scale(0.015625)"/>
      <path id="DejaVuSans-6e" d="M 3513 2113 
L 3513 0 
L 2938 0 
L 2938 2094 
Q 2938 2591 2744 2837 
Q 2550 3084 2163 3084 
Q 1697 3084 1428 2787 
Q 1159 2491 1159 1978 
L 1159 0 
L 581 0 
L 581 3500 
L 1159 3500 
L 1159 2956 
Q 1366 3272 1645 3428 
Q 1925 3584 2291 3584 
Q 2894 3584 3203 3211 
Q 3513 2838 3513 2113 
z
" transform="scale(0.015625)"/>
      <path id="DejaVuSans-50" d="M 1259 4147 
L 1259 2394 
L 2053 2394 
Q 2494 2394 2734 2622 
Q 2975 2850 2975 3272 
Q 2975 3691 2734 3919 
Q 2494 4147 2053 4147 
L 1259 4147 
z
M 628 4666 
L 2053 4666 
Q 2838 4666 3239 4311 
Q 3641 3956 3641 3272 
Q 3641 2581 3239 2228 
Q 2838 1875 2053 1875 
L 1259 1875 
L 1259 0 
L 628 0 
L 628 4666 
z
" transform="scale(0.015625)"/>
     </defs>
     <use xlink:href="#DejaVuSans-48"/>
     <use xlink:href="#DejaVuSans-69" x="75.195312"/>
     <use xlink:href="#DejaVuSans-73" x="102.978516"/>
     <use xlink:href="#DejaVuSans-74" x="155.078125"/>
     <use xlink:href="#DejaVuSans-6f" x="194.287109"/>
     <use xlink:href="#DejaVuSans-72" x="255.46875"/>
     <use xlink:href="#DejaVuSans-69" x="296.582031"/>
     <use xlink:href="#DejaVuSans-63" x="324.365234"/>
     <use xlink:href="#DejaVuSans-20" x="379.345703"/>
     <use xlink:href="#DejaVuSans-42" x="411.132812"/>
     <use xlink:href="#DejaVuSans-72" x="479.736328"/>
     <use xlink:href="#DejaVuSans-65" x="518.599609"/>
     <use xlink:href="#DejaVuSans-61" x="580.123047"/>
     <use xlink:href="#DejaVuSans-6b" x="641.402344"/>
     <use xlink:href="#DejaVuSans-75" x="696.1875"/>
     <use xlink:href="#DejaVuSans-70" x="759.566406"/>
     <use xlink:href="#DejaVuSans-20" x="823.042969"/>
     <use xlink:href="#DejaVuSans-28" x="854.830078"/>
     <use xlink:href="#DejaVuSans-77" x="893.84375"/>
     <use xlink:href="#DejaVuSans-69" x="975.630859"/>
     <use xlink:href="#DejaVuSans-74" x="1003.414062"/>
     <use xlink:href="#DejaVuSans-68" x="1042.623047"/>
     <use xlink:href="#DejaVuSans-20" x="1106.001953"/>
     <use xlink:href="#DejaVuSans-64" x="1137.789062"/>
     <use xlink:href="#DejaVuSans-65" x="1201.265625"/>
     <use xlink:href="#DejaVuSans-6e" x="1262.789062"/>
     <use xlink:href="#DejaVuSans-73" x="1326.167969"/>
     <use xlink:href="#DejaVuSans-69" x="1378.267578"/>
     <use xlink:href="#DejaVuSans-74" x="1406.050781"/>
     <use xlink:href="#DejaVuSans-79" x="1445.259766"/>
     <use xlink:href="#DejaVuSans-20" x="1504.439453"/>
     <use xlink:href="#DejaVuSans-65" x="1536.226562"/>
     <use xlink:href="#DejaVuSans-73" x="1597.75"/>
     <use xlink:href="#DejaVuSans-74" x="1649.849609"/>
     <use xlink:href="#DejaVuSans-69" x="1689.058594"/>
     <use xlink:href="#DejaVuSans-6d" x="1716.841797"/>
     <use xlink:href="#DejaVuSans-61" x="1814.253906"/>
     <use xlink:href="#DejaVuSans-74" x="1875.533203"/>
     <use xlink:href="#DejaVuSans-65" x="1914.742188"/>
     <use xlink:href="#DejaVuSans-73" x="1976.265625"/>
     <use xlink:href="#DejaVuSans-29" x="2028.365234"/>
     <use xlink:href="#DejaVuSans-20" x="2067.378906"/>
     <use xlink:href="#DejaVuSans-61" x="2099.166016"/>
     <use xlink:href="#DejaVuSans-6e" x="2160.445312"/>
     <use xlink:href="#DejaVuSans-64" x="2223.824219"/>
     <use xlink:href="#DejaVuSans-20" x="2287.300781"/>
     <use xlink:href="#DejaVuSans-32" x="2319.087891"/>
     <use xlink:href="#DejaVuSans-30" x="2382.710938"/>
     <use xlink:href="#DejaVuSans-32" x="2446.333984"/>
     <use xlink:href="#DejaVuSans-35" x="2509.957031"/>
     <use xlink:href="#DejaVuSans-20" x="2573.580078"/>
     <use xlink:href="#DejaVuSans-50" x="2605.367188"/>
     <use xlink:href="#DejaVuSans-72" x="2663.919922"/>
     <use xlink:href="#DejaVuSans-65" x="2702.783203"/>
     <use xlink:href="#DejaVuSans-64" x="2764.306641"/>
     <use xlink:href="#DejaVuSans-69" x="2827.783203"/>
     <use xlink:href="#DejaVuSans-63" x="2855.566406"/>
     <use xlink:href="#DejaVuSans-74" x="2910.546875"/>
     <use xlink:href="#DejaVuSans-69" x="2949.755859"/>
     <use xlink:href="#DejaVuSans-6f" x="2977.539062"/>
     <use xlink:href="#DejaVuSans-6e" x="3038.720703"/>
     <use xlink:href="#DejaVuSans-73" x="3102.099609"/>
    </g>
   </g>
   <g id="legend_2">
    <g id="patch_24">
     <path d="M 944.650515 64.23625 
L 1060.161452 64.23625 
Q 1062.161452 64.23625 1062.161452 62.23625 
L 1062.161452 33.88 
Q 1062.161452 31.88 1060.161452 31.88 
L 944.650515 31.88 
Q 942.650515 31.88 942.650515 33.88 
L 942.650515 62.23625 
Q 942.650515 64.23625 944.650515 64.23625 
z
" style="fill: #ffffff; opacity: 0.8; stroke: #cccccc; stroke-linejoin: miter"/>
    </g>
    <g id="PathCollection_3">
     <g>
      <use xlink:href="#m801ec0d174" x="956.650515" y="40.853438" style="fill: #ff0000; stroke: #000000"/>
     </g>
    </g>
    <g id="text_26">
     <!-- 2025 Predictions -->
     <g transform="translate(974.650515 43.478438) scale(0.1 -0.1)">
      <use xlink:href="#DejaVuSans-32"/>
      <use xlink:href="#DejaVuSans-30" x="63.623047"/>
      <use xlink:href="#DejaVuSans-32" x="127.246094"/>
      <use xlink:href="#DejaVuSans-35" x="190.869141"/>
      <use xlink:href="#DejaVuSans-20" x="254.492188"/>
      <use xlink:href="#DejaVuSans-50" x="286.279297"/>
      <use xlink:href="#DejaVuSans-72" x="344.832031"/>
      <use xlink:href="#DejaVuSans-65" x="383.695312"/>
      <use xlink:href="#DejaVuSans-64" x="445.21875"/>
      <use xlink:href="#DejaVuSans-69" x="508.695312"/>
      <use xlink:href="#DejaVuSans-63" x="536.478516"/>
      <use xlink:href="#DejaVuSans-74" x="591.458984"/>
      <use xlink:href="#DejaVuSans-69" x="630.667969"/>
      <use xlink:href="#DejaVuSans-6f" x="658.451172"/>
      <use xlink:href="#DejaVuSans-6e" x="719.632812"/>
      <use xlink:href="#DejaVuSans-73" x="783.011719"/>
     </g>
    </g>
    <g id="PathCollection_4">
     <g>
      <use xlink:href="#m133301b1cc" x="956.650515" y="55.531563" style="fill: #808080; stroke: #000000"/>
     </g>
    </g>
    <g id="text_27">
     <!-- Historic Breakup -->
     <g transform="translate(974.650515 58.156563) scale(0.1 -0.1)">
      <use xlink:href="#DejaVuSans-48"/>
      <use xlink:href="#DejaVuSans-69" x="75.195312"/>
      <use xlink:href="#DejaVuSans-73" x="102.978516"/>
      <use xlink:href="#DejaVuSans-74" x="155.078125"/>
      <use xlink:href="#DejaVuSans-6f" x="194.287109"/>
      <use xlink:href="#DejaVuSans-72" x="255.46875"/>
      <use xlink:href="#DejaVuSans-69" x="296.582031"/>
      <use xlink:href="#DejaVuSans-63" x="324.365234"/>
      <use xlink:href="#DejaVuSans-20" x="379.345703"/>
      <use xlink:href="#DejaVuSans-42" x="411.132812"/>
      <use xlink:href="#DejaVuSans-72" x="479.736328"/>
      <use xlink:href="#DejaVuSans-65" x="518.599609"/>
      <use xlink:href="#DejaVuSans-61" x="580.123047"/>
      <use xlink:href="#DejaVuSans-6b" x="641.402344"/>
      <use xlink:href="#DejaVuSans-75" x="696.1875"/>
      <use xlink:href="#DejaVuSans-70" x="759.566406"/>
     </g>
    </g>
   </g>
  </g>
  <g id="axes_3"/>
  <g id="axes_4">
   <g id="patch_25">
    <path d="M 216.788779 709.2 
L 1067.161452 709.2 
L 1067.161452 581.128 
L 216.788779 581.128 
z
" style="fill: #ffffff"/>
   </g>
   <g id="patch_26">
    <path d="M 255.442082 581.128 
L 325.720816 581.128 
L 325.720816 586.611336 
L 255.442082 586.611336 
z
" clip-path="url(#pe52133a162)" style="fill: #808080; opacity: 0.5"/>
   </g>
   <g id="patch_27">
    <path d="M 325.720816 581.128 
L 395.999549 581.128 
L 395.999549 586.611336 
L 325.720816 586.611336 
z
" clip-path="url(#pe52133a162)" style="fill: #808080; opacity: 0.5"/>
   </g>
   <g id="patch_28">
    <path d="M 395.999549 581.128 
L 466.278282 581.128 
L 466.278282 614.028017 
L 395.999549 614.028017 
z
" clip-path="url(#pe52133a162)" style="fill: #808080; opacity: 0.5"/>
   </g>
   <g id="patch_29">
    <path d="M 466.278282 581.128 
L 536.557016 581.128 
L 536.557016 608.544681 
L 466.278282 608.544681 
z
" clip-path="url(#pe52133a162)" style="fill: #808080; opacity: 0.5"/>
   </g>
   <g id="patch_30">
    <path d="M 536.557016 581.128 
L 606.835749 581.128 
L 606.835749 701.761395 
L 536.557016 701.761395 
z
" clip-path="url(#pe52133a162)" style="fill: #808080; opacity: 0.5"/>
   </g>
   <g id="patch_31">
    <path d="M 606.835749 581.128 
L 677.114482 581.128 
L 677.114482 696.278059 
L 606.835749 696.278059 
z
" clip-path="url(#pe52133a162)" style="fill: #808080; opacity: 0.5"/>
   </g>
   <g id="patch_32">
    <path d="M 677.114482 581.128 
L 747.393216 581.128 
L 747.393216 679.828051 
L 677.114482 679.828051 
z
" clip-path="url(#pe52133a162)" style="fill: #808080; opacity: 0.5"/>
   </g>
   <g id="patch_33">
    <path d="M 747.393216 581.128 
L 817.671949 581.128 
L 817.671949 663.378042 
L 747.393216 663.378042 
z
" clip-path="url(#pe52133a162)" style="fill: #808080; opacity: 0.5"/>
   </g>
   <g id="patch_34">
    <path d="M 817.671949 581.128 
L 887.950682 581.128 
L 887.950682 652.41137 
L 817.671949 652.41137 
z
" clip-path="url(#pe52133a162)" style="fill: #808080; opacity: 0.5"/>
   </g>
   <g id="patch_35">
    <path d="M 887.950682 581.128 
L 958.229416 581.128 
L 958.229416 597.578008 
L 887.950682 597.578008 
z
" clip-path="url(#pe52133a162)" style="fill: #808080; opacity: 0.5"/>
   </g>
   <g id="patch_36">
    <path d="M 958.229416 581.128 
L 1028.508149 581.128 
L 1028.508149 592.094672 
L 958.229416 592.094672 
z
" clip-path="url(#pe52133a162)" style="fill: #808080; opacity: 0.5"/>
   </g>
   <g id="matplotlib.axis_5"/>
   <g id="matplotlib.axis_6">
    <g id="text_28">
     <!-- Density -->
     <g transform="translate(210.709091 664.172594) rotate(-90) scale(0.1 -0.1)">
      <use xlink:href="#DejaVuSans-44"/>
      <use xlink:href="#DejaVuSans-65" x="77.001953"/>
      <use xlink:href="#DejaVuSans-6e" x="138.525391"/>
      <use xlink:href="#DejaVuSans-73" x="201.904297"/>
      <use xlink:href="#DejaVuSans-69" x="254.003906"/>
      <use xlink:href="#DejaVuSans-74" x="281.787109"/>
      <use xlink:href="#DejaVuSans-79" x="320.996094"/>
     </g>
    </g>
   </g>
   <g id="line2d_38">
    <path d="M 255.442082 582.140464 
L 275.58208 582.717672 
L 292.623616 583.416377 
L 308.115922 584.271015 
L 322.058998 585.263075 
L 334.452843 586.357808 
L 346.846687 587.686738 
L 357.691301 589.068617 
L 368.535916 590.679683 
L 379.38053 592.543565 
L 388.675913 594.359837 
L 397.971297 596.392399 
L 407.26668 598.653729 
L 416.562064 601.154696 
L 425.857448 603.904098 
L 435.152831 606.908194 
L 444.448215 610.170223 
L 453.743598 613.689946 
L 463.038982 617.463209 
L 472.334365 621.481556 
L 481.629749 625.731894 
L 492.474363 630.959574 
L 503.318977 636.441129 
L 515.712822 642.956402 
L 532.754359 652.199223 
L 560.640509 667.375239 
L 573.034354 673.841098 
L 582.329738 678.465676 
L 591.625121 682.836599 
L 599.371274 686.246435 
L 607.117427 689.41276 
L 614.86358 692.307068 
L 621.060503 694.408718 
L 627.257425 696.306651 
L 633.454347 697.989381 
L 639.65127 699.446615 
L 645.848192 700.669353 
L 652.045114 701.64999 
L 658.242037 702.382384 
L 664.438959 702.86193 
L 670.635882 703.085598 
L 676.832804 703.051976 
L 683.029726 702.761276 
L 689.226649 702.215336 
L 695.423571 701.417599 
L 701.620493 700.373077 
L 707.817416 699.088302 
L 714.014338 697.571252 
L 720.211261 695.831272 
L 726.408183 693.878978 
L 732.605105 691.726151 
L 740.351258 688.77274 
L 748.097411 685.553123 
L 755.843564 682.096155 
L 765.138948 677.677156 
L 774.434331 673.014004 
L 785.278946 667.338356 
L 800.771251 658.955128 
L 833.305094 641.269844 
L 845.698939 634.816279 
L 856.543553 629.404478 
L 867.388167 624.258398 
L 876.683551 620.085349 
L 885.978934 616.149291 
L 895.274318 612.461704 
L 904.569701 609.029538 
L 913.865085 605.855566 
L 923.160468 602.938791 
L 932.455852 600.274892 
L 941.751236 597.856692 
L 951.046619 595.674634 
L 960.342003 593.71725 
L 969.637386 591.971613 
L 980.482 590.183996 
L 991.326615 588.64233 
L 1002.171229 587.322925 
L 1014.565074 586.05706 
L 1026.958918 585.016877 
L 1028.508149 584.901104 
L 1028.508149 584.901104 
" clip-path="url(#pe52133a162)" style="fill: none; stroke: #0000ff; stroke-width: 1.5; stroke-linecap: square"/>
   </g>
   <g id="line2d_39">
    <path d="M 255.442082 584.274637 
L 286.426694 584.529535 
L 303.468231 584.813448 
L 315.862075 585.249689 
L 326.70669 585.860357 
L 336.002073 586.58608 
L 345.297457 587.517153 
L 354.59284 588.664485 
L 363.888224 590.033711 
L 373.183607 591.626407 
L 382.478991 593.440928 
L 391.774375 595.472718 
L 401.069758 597.714342 
L 411.914372 600.581365 
L 422.758986 603.702861 
L 433.603601 607.066052 
L 444.448215 610.673325 
L 453.743598 613.980608 
L 463.038982 617.526033 
L 470.785135 620.702425 
L 478.531288 624.121889 
L 486.277441 627.824496 
L 492.474363 631.014071 
L 498.671286 634.419322 
L 504.868208 638.044442 
L 512.614361 642.874767 
L 520.360514 647.999972 
L 529.655897 654.438024 
L 551.345126 669.602693 
L 557.542048 673.641303 
L 563.738971 677.408044 
L 568.386662 680.01271 
L 573.034354 682.400077 
L 577.682046 684.549252 
L 582.329738 686.444377 
L 586.977429 688.075123 
L 591.625121 689.436963 
L 596.272813 690.531241 
L 600.920505 691.364998 
L 605.568197 691.950604 
L 610.215888 692.305188 
L 614.86358 692.449905 
L 619.511272 692.409081 
L 625.708194 692.112105 
L 631.905117 691.598466 
L 641.2005 690.564176 
L 670.635882 687.023545 
L 683.029726 685.885275 
L 715.563569 683.125169 
L 723.309722 682.189386 
L 731.055875 681.040442 
L 738.802028 679.647395 
L 746.548181 677.994469 
L 754.294334 676.080494 
L 762.040487 673.916746 
L 769.78664 671.523669 
L 779.082023 668.38569 
L 788.377407 665.001403 
L 799.222021 660.797398 
L 810.066635 656.365232 
L 822.46048 651.059353 
L 834.854325 645.520803 
L 848.7974 639.042094 
L 867.388167 630.114947 
L 890.626626 618.962775 
L 901.47124 614.00297 
L 910.766624 609.990292 
L 918.512777 606.864673 
L 926.25893 603.973044 
L 934.005083 601.342202 
L 941.751236 598.990852 
L 947.948158 597.317515 
L 954.14508 595.829032 
L 961.891233 594.221141 
L 969.637386 592.876714 
L 977.383539 591.768424 
L 986.678923 590.700985 
L 997.523537 589.73052 
L 1011.466612 588.747148 
L 1028.508149 587.680946 
L 1028.508149 587.680946 
" clip-path="url(#pe52133a162)" style="fill: none; stroke: #ff0000; stroke-opacity: 0.3; stroke-width: 1.5; stroke-linecap: square"/>
   </g>
   <g id="patch_37">
    <path d="M 216.788779 709.2 
L 216.788779 581.128 
" style="fill: none; stroke: #000000; stroke-width: 0.8; stroke-linejoin: miter; stroke-linecap: square"/>
   </g>
   <g id="patch_38">
    <path d="M 1067.161452 709.2 
L 1067.161452 581.128 
" style="fill: none; stroke: #000000; stroke-width: 0.8; stroke-linejoin: miter; stroke-linecap: square"/>
   </g>
   <g id="patch_39">
    <path d="M 216.788779 709.2 
L 1067.161452 709.2 
" style="fill: none; stroke: #000000; stroke-width: 0.8; stroke-linejoin: miter; stroke-linecap: square"/>
   </g>
   <g id="patch_40">
    <path d="M 216.788779 581.128 
L 1067.161452 581.128 
" style="fill: none; stroke: #000000; stroke-width: 0.8; stroke-linejoin: miter; stroke-linecap: square"/>
   </g>
   <g id="legend_3">
    <g id="patch_41">
     <path d="M 223.788779 704.2 
L 339.152841 704.2 
Q 341.152841 704.2 341.152841 702.2 
L 341.152841 659.165625 
Q 341.152841 657.165625 339.152841 657.165625 
L 223.788779 657.165625 
Q 221.788779 657.165625 221.788779 659.165625 
L 221.788779 702.2 
Q 221.788779 704.2 223.788779 704.2 
z
" style="fill: #ffffff; opacity: 0.8; stroke: #cccccc; stroke-linejoin: miter"/>
    </g>
    <g id="patch_42">
     <path d="M 225.788779 668.764063 
L 245.788779 668.764063 
L 245.788779 661.764063 
L 225.788779 661.764063 
z
" style="fill: #808080; opacity: 0.5"/>
    </g>
    <g id="text_29">
     <!-- Histogram -->
     <g transform="translate(253.788779 668.764063) scale(0.1 -0.1)">
      <use xlink:href="#DejaVuSans-48"/>
      <use xlink:href="#DejaVuSans-69" x="75.195312"/>
      <use xlink:href="#DejaVuSans-73" x="102.978516"/>
      <use xlink:href="#DejaVuSans-74" x="155.078125"/>
      <use xlink:href="#DejaVuSans-6f" x="194.287109"/>
      <use xlink:href="#DejaVuSans-67" x="255.46875"/>
      <use xlink:href="#DejaVuSans-72" x="318.945312"/>
      <use xlink:href="#DejaVuSans-61" x="360.058594"/>
      <use xlink:href="#DejaVuSans-6d" x="421.337891"/>
     </g>
    </g>
    <g id="line2d_40">
     <path d="M 225.788779 679.942188 
L 235.788779 679.942188 
L 245.788779 679.942188 
" style="fill: none; stroke: #0000ff; stroke-width: 1.5; stroke-linecap: square"/>
    </g>
    <g id="text_30">
     <!-- Normal estimate -->
     <g transform="translate(253.788779 683.442188) scale(0.1 -0.1)">
      <use xlink:href="#DejaVuSans-4e"/>
      <use xlink:href="#DejaVuSans-6f" x="74.804688"/>
      <use xlink:href="#DejaVuSans-72" x="135.986328"/>
      <use xlink:href="#DejaVuSans-6d" x="175.349609"/>
      <use xlink:href="#DejaVuSans-61" x="272.761719"/>
      <use xlink:href="#DejaVuSans-6c" x="334.041016"/>
      <use xlink:href="#DejaVuSans-20" x="361.824219"/>
      <use xlink:href="#DejaVuSans-65" x="393.611328"/>
      <use xlink:href="#DejaVuSans-73" x="455.134766"/>
      <use xlink:href="#DejaVuSans-74" x="507.234375"/>
      <use xlink:href="#DejaVuSans-69" x="546.443359"/>
      <use xlink:href="#DejaVuSans-6d" x="574.226562"/>
      <use xlink:href="#DejaVuSans-61" x="671.638672"/>
      <use xlink:href="#DejaVuSans-74" x="732.917969"/>
      <use xlink:href="#DejaVuSans-65" x="772.126953"/>
     </g>
    </g>
    <g id="line2d_41">
     <path d="M 225.788779 694.620313 
L 235.788779 694.620313 
L 245.788779 694.620313 
" style="fill: none; stroke: #ff0000; stroke-opacity: 0.3; stroke-width: 1.5; stroke-linecap: square"/>
    </g>
    <g id="text_31">
     <!-- KDE Estimate -->
     <g transform="translate(253.788779 698.120313) scale(0.1 -0.1)">
      <use xlink:href="#DejaVuSans-4b"/>
      <use xlink:href="#DejaVuSans-44" x="65.576172"/>
      <use xlink:href="#DejaVuSans-45" x="142.578125"/>
      <use xlink:href="#DejaVuSans-20" x="205.761719"/>
      <use xlink:href="#DejaVuSans-45" x="237.548828"/>
      <use xlink:href="#DejaVuSans-73" x="300.732422"/>
      <use xlink:href="#DejaVuSans-74" x="352.832031"/>
      <use xlink:href="#DejaVuSans-69" x="392.041016"/>
      <use xlink:href="#DejaVuSans-6d" x="419.824219"/>
      <use xlink:href="#DejaVuSans-61" x="517.236328"/>
      <use xlink:href="#DejaVuSans-74" x="578.515625"/>
      <use xlink:href="#DejaVuSans-65" x="617.724609"/>
     </g>
    </g>
   </g>
  </g>
 </g>
 <defs>
  <clipPath id="peec2d9414d">
   <rect x="30.49" y="26.88" width="141.728779" height="512.288"/>
  </clipPath>
  <clipPath id="pdcd1c16ca5">
   <rect x="216.788779" y="26.88" width="850.372673" height="512.288"/>
  </clipPath>
  <clipPath id="pe52133a162">
   <rect x="216.788779" y="581.128" width="850.372673" height="128.072"/>
  </clipPath>
 </defs>
</svg>
