<?xml version="1.0" encoding="utf-8" standalone="no"?>
<!DOCTYPE svg PUBLIC "-//W3C//DTD SVG 1.1//EN"
  "http://www.w3.org/Graphics/SVG/1.1/DTD/svg11.dtd">
<svg xmlns:xlink="http://www.w3.org/1999/xlink" width="1080pt" height="720pt" viewBox="0 0 1080 720" xmlns="http://www.w3.org/2000/svg" version="1.1">
 <metadata>
  <rdf:RDF xmlns:dc="http://purl.org/dc/elements/1.1/" xmlns:cc="http://creativecommons.org/ns#" xmlns:rdf="http://www.w3.org/1999/02/22-rdf-syntax-ns#">
   <cc:Work>
    <dc:type rdf:resource="http://purl.org/dc/dcmitype/StillImage"/>
    <dc:date>2024-10-02T08:41:29.472334</dc:date>
    <dc:format>image/svg+xml</dc:format>
    <dc:creator>
     <cc:Agent>
      <dc:title>Matplotlib v3.9.2, https://matplotlib.org/</dc:title>
     </cc:Agent>
    </dc:creator>
   </cc:Work>
  </rdf:RDF>
 </metadata>
 <defs>
  <style type="text/css">*{stroke-linejoin: round; stroke-linecap: butt}</style>
 </defs>
 <g id="figure_1">
  <g id="patch_1">
   <path d="M 0 720 
L 1080 720 
L 1080 0 
L 0 0 
z
" style="fill: #ffffff"/>
  </g>
  <g id="axes_1">
   <g id="patch_2">
    <path d="M 30.49 539.168 
L 172.51 539.168 
L 172.51 26.88 
L 30.49 26.88 
z
" style="fill: #ffffff"/>
   </g>
   <g id="patch_3">
    <path d="M 172.51 515.882182 
L 143.106273 515.882182 
L 143.106273 471.528242 
L 172.51 471.528242 
z
" clip-path="url(#p2e2adcf28b)" style="fill: #808080; opacity: 0.5"/>
   </g>
   <g id="patch_4">
    <path d="M 172.51 471.528242 
L 172.51 471.528242 
L 172.51 427.174303 
L 172.51 427.174303 
z
" clip-path="url(#p2e2adcf28b)" style="fill: #808080; opacity: 0.5"/>
   </g>
   <g id="patch_5">
    <path d="M 172.51 427.174303 
L 154.867764 427.174303 
L 154.867764 382.820364 
L 172.51 382.820364 
z
" clip-path="url(#p2e2adcf28b)" style="fill: #808080; opacity: 0.5"/>
   </g>
   <g id="patch_6">
    <path d="M 172.51 382.820364 
L 154.867764 382.820364 
L 154.867764 338.466424 
L 172.51 338.466424 
z
" clip-path="url(#p2e2adcf28b)" style="fill: #808080; opacity: 0.5"/>
   </g>
   <g id="patch_7">
    <path d="M 172.51 338.466424 
L 84.29882 338.466424 
L 84.29882 294.112485 
L 172.51 294.112485 
z
" clip-path="url(#p2e2adcf28b)" style="fill: #808080; opacity: 0.5"/>
   </g>
   <g id="patch_8">
    <path d="M 172.51 294.112485 
L 43.133602 294.112485 
L 43.133602 249.758545 
L 172.51 249.758545 
z
" clip-path="url(#p2e2adcf28b)" style="fill: #808080; opacity: 0.5"/>
   </g>
   <g id="patch_9">
    <path d="M 172.51 249.758545 
L 37.252857 249.758545 
L 37.252857 205.404606 
L 172.51 205.404606 
z
" clip-path="url(#p2e2adcf28b)" style="fill: #808080; opacity: 0.5"/>
   </g>
   <g id="patch_10">
    <path d="M 172.51 205.404606 
L 72.537329 205.404606 
L 72.537329 161.050667 
L 172.51 161.050667 
z
" clip-path="url(#p2e2adcf28b)" style="fill: #808080; opacity: 0.5"/>
   </g>
   <g id="patch_11">
    <path d="M 172.51 161.050667 
L 107.821801 161.050667 
L 107.821801 116.696727 
L 172.51 116.696727 
z
" clip-path="url(#p2e2adcf28b)" style="fill: #808080; opacity: 0.5"/>
   </g>
   <g id="patch_12">
    <path d="M 172.51 116.696727 
L 125.464037 116.696727 
L 125.464037 72.342788 
L 172.51 72.342788 
z
" clip-path="url(#p2e2adcf28b)" style="fill: #808080; opacity: 0.5"/>
   </g>
   <g id="matplotlib.axis_1"/>
   <g id="matplotlib.axis_2">
    <g id="ytick_1">
     <g id="line2d_1">
      <defs>
       <path id="mbe19650f5a" d="M 0 0 
L -3.5 0 
" style="stroke: #000000; stroke-width: 0.8"/>
      </defs>
      <g>
       <use xlink:href="#mbe19650f5a" x="30.49" y="494.972468" style="stroke: #000000; stroke-width: 0.8"/>
      </g>
     </g>
     <g id="text_1">
      <!-- 0 -->
      <g transform="translate(17.1275 498.771686) scale(0.1 -0.1)">
       <defs>
        <path id="DejaVuSans-30" d="M 2034 4250 
Q 1547 4250 1301 3770 
Q 1056 3291 1056 2328 
Q 1056 1369 1301 889 
Q 1547 409 2034 409 
Q 2525 409 2770 889 
Q 3016 1369 3016 2328 
Q 3016 3291 2770 3770 
Q 2525 4250 2034 4250 
z
M 2034 4750 
Q 2819 4750 3233 4129 
Q 3647 3509 3647 2328 
Q 3647 1150 3233 529 
Q 2819 -91 2034 -91 
Q 1250 -91 836 529 
Q 422 1150 422 2328 
Q 422 3509 836 4129 
Q 1250 4750 2034 4750 
z
" transform="scale(0.015625)"/>
       </defs>
       <use xlink:href="#DejaVuSans-30"/>
      </g>
     </g>
    </g>
    <g id="ytick_2">
     <g id="line2d_2">
      <g>
       <use xlink:href="#mbe19650f5a" x="30.49" y="399.928312" style="stroke: #000000; stroke-width: 0.8"/>
      </g>
     </g>
     <g id="text_2">
      <!-- 5 -->
      <g transform="translate(17.1275 403.72753) scale(0.1 -0.1)">
       <defs>
        <path id="DejaVuSans-35" d="M 691 4666 
L 3169 4666 
L 3169 4134 
L 1269 4134 
L 1269 2991 
Q 1406 3038 1543 3061 
Q 1681 3084 1819 3084 
Q 2600 3084 3056 2656 
Q 3513 2228 3513 1497 
Q 3513 744 3044 326 
Q 2575 -91 1722 -91 
Q 1428 -91 1123 -41 
Q 819 9 494 109 
L 494 744 
Q 775 591 1075 516 
Q 1375 441 1709 441 
Q 2250 441 2565 725 
Q 2881 1009 2881 1497 
Q 2881 1984 2565 2268 
Q 2250 2553 1709 2553 
Q 1456 2553 1204 2497 
Q 953 2441 691 2322 
L 691 4666 
z
" transform="scale(0.015625)"/>
       </defs>
       <use xlink:href="#DejaVuSans-35"/>
      </g>
     </g>
    </g>
    <g id="ytick_3">
     <g id="line2d_3">
      <g>
       <use xlink:href="#mbe19650f5a" x="30.49" y="304.884156" style="stroke: #000000; stroke-width: 0.8"/>
      </g>
     </g>
     <g id="text_3">
      <!-- 10 -->
      <g transform="translate(10.765 308.683375) scale(0.1 -0.1)">
       <defs>
        <path id="DejaVuSans-31" d="M 794 531 
L 1825 531 
L 1825 4091 
L 703 3866 
L 703 4441 
L 1819 4666 
L 2450 4666 
L 2450 531 
L 3481 531 
L 3481 0 
L 794 0 
L 794 531 
z
" transform="scale(0.015625)"/>
       </defs>
       <use xlink:href="#DejaVuSans-31"/>
       <use xlink:href="#DejaVuSans-30" x="63.623047"/>
      </g>
     </g>
    </g>
    <g id="ytick_4">
     <g id="line2d_4">
      <g>
       <use xlink:href="#mbe19650f5a" x="30.49" y="209.84" style="stroke: #000000; stroke-width: 0.8"/>
      </g>
     </g>
     <g id="text_4">
      <!-- 15 -->
      <g transform="translate(10.765 213.639219) scale(0.1 -0.1)">
       <use xlink:href="#DejaVuSans-31"/>
       <use xlink:href="#DejaVuSans-35" x="63.623047"/>
      </g>
     </g>
    </g>
    <g id="ytick_5">
     <g id="line2d_5">
      <g>
       <use xlink:href="#mbe19650f5a" x="30.49" y="114.795844" style="stroke: #000000; stroke-width: 0.8"/>
      </g>
     </g>
     <g id="text_5">
      <!-- 20 -->
      <g transform="translate(10.765 118.595063) scale(0.1 -0.1)">
       <defs>
        <path id="DejaVuSans-32" d="M 1228 531 
L 3431 531 
L 3431 0 
L 469 0 
L 469 531 
Q 828 903 1448 1529 
Q 2069 2156 2228 2338 
Q 2531 2678 2651 2914 
Q 2772 3150 2772 3378 
Q 2772 3750 2511 3984 
Q 2250 4219 1831 4219 
Q 1534 4219 1204 4116 
Q 875 4013 500 3803 
L 500 4441 
Q 881 4594 1212 4672 
Q 1544 4750 1819 4750 
Q 2544 4750 2975 4387 
Q 3406 4025 3406 3419 
Q 3406 3131 3298 2873 
Q 3191 2616 2906 2266 
Q 2828 2175 2409 1742 
Q 1991 1309 1228 531 
z
" transform="scale(0.015625)"/>
       </defs>
       <use xlink:href="#DejaVuSans-32"/>
       <use xlink:href="#DejaVuSans-30" x="63.623047"/>
      </g>
     </g>
    </g>
   </g>
   <g id="line2d_6">
    <path d="M 160.765169 493.705212 
L 159.867609 487.483217 
L 159.300151 482.150078 
L 158.943282 476.816939 
L 158.806114 471.4838 
L 158.882921 466.150661 
L 159.21462 459.928665 
L 159.842522 452.817813 
L 161.238139 440.373822 
L 162.142149 431.485257 
L 162.634424 424.374405 
L 162.823478 418.15241 
L 162.776508 412.819271 
L 162.522649 407.486132 
L 162.055314 402.152993 
L 161.370824 396.819854 
L 160.464725 391.486715 
L 159.328427 386.153576 
L 157.946736 380.820437 
L 156.59159 376.376154 
L 155.033149 371.931872 
L 153.251636 367.487589 
L 151.225937 363.043306 
L 148.935286 358.599024 
L 146.361153 354.154741 
L 143.489137 349.710459 
L 140.310696 345.266176 
L 136.824536 340.821894 
L 133.037551 336.377611 
L 128.965251 331.933329 
L 123.736287 326.60019 
L 118.188006 321.267051 
L 111.406229 315.045055 
L 99.376203 304.378777 
L 88.437944 294.601356 
L 81.79148 288.37936 
L 76.41426 283.046221 
L 72.21793 278.601939 
L 68.322148 274.157656 
L 64.759819 269.713374 
L 62.167932 266.157948 
L 59.816598 262.602522 
L 57.713022 259.047096 
L 55.861426 255.49167 
L 54.263132 251.936244 
L 52.916727 248.380818 
L 51.818295 244.825392 
L 50.961713 241.269966 
L 50.338985 237.71454 
L 49.940589 234.159114 
L 49.755838 230.603688 
L 49.773206 227.048262 
L 49.980632 223.492836 
L 50.488372 219.048553 
L 51.249578 214.604271 
L 52.240369 210.159988 
L 53.437591 205.715706 
L 55.11577 200.382567 
L 57.024219 195.049428 
L 59.500529 188.827432 
L 62.208245 182.605437 
L 65.552291 175.494585 
L 69.147585 168.383733 
L 73.002249 161.272881 
L 76.607571 155.050885 
L 80.450652 148.82889 
L 84.544556 142.606894 
L 88.886853 136.384899 
L 94.121428 129.274047 
L 100.958613 120.385482 
L 115.41908 101.719495 
L 120.619297 94.608643 
L 125.529763 87.497791 
L 130.13336 80.386939 
L 134.453037 73.276087 
L 139.033762 65.276379 
L 143.864854 56.387814 
L 147.120806 50.165818 
L 147.120806 50.165818 
" clip-path="url(#p2e2adcf28b)" style="fill: none; stroke: #ff0000; stroke-opacity: 0.3; stroke-width: 1.5; stroke-linecap: square"/>
   </g>
   <g id="line2d_7">
    <path d="M 170.99491 493.705212 
L 170.329012 482.150078 
L 169.49974 471.4838 
L 168.512828 461.706378 
L 167.387987 452.817813 
L 166.158357 444.818105 
L 164.692988 436.818396 
L 163.168519 429.707544 
L 161.413384 422.596692 
L 159.407163 415.48584 
L 157.430555 409.263845 
L 155.235133 403.041849 
L 152.810584 396.819854 
L 150.148481 390.597858 
L 147.242715 384.375863 
L 144.089929 378.153867 
L 140.689936 371.931872 
L 137.046121 365.709876 
L 133.165797 359.48788 
L 128.456568 352.377028 
L 123.478107 345.266176 
L 117.596133 337.266468 
L 110.780476 328.377903 
L 100.928142 315.933912 
L 86.144987 297.267925 
L 80.083436 289.268217 
L 74.961642 282.157365 
L 70.748771 275.935369 
L 67.377475 270.60223 
L 64.259652 265.269091 
L 61.424094 259.935952 
L 59.296091 255.49167 
L 57.396847 251.047387 
L 55.739145 246.603105 
L 54.334266 242.158822 
L 53.191853 237.71454 
L 52.319807 233.270257 
L 51.724193 228.825975 
L 51.449593 225.270549 
L 51.355839 221.715123 
L 51.443352 218.159697 
L 51.71174 214.604271 
L 52.1598 211.048845 
L 52.969409 206.604562 
L 54.050929 202.16028 
L 55.39687 197.715997 
L 56.997976 193.271715 
L 58.843328 188.827432 
L 60.920474 184.38315 
L 63.215561 179.938867 
L 66.236018 174.605728 
L 69.520418 169.272589 
L 73.645844 163.050594 
L 78.040038 156.828598 
L 83.325311 149.717746 
L 90.213828 140.829181 
L 103.667471 123.940908 
L 113.442301 111.496917 
L 120.153565 102.608352 
L 125.913368 94.608643 
L 130.765397 87.497791 
L 135.33542 80.386939 
L 139.086402 74.164944 
L 142.596334 67.942948 
L 145.860112 61.720953 
L 148.876369 55.498957 
L 151.26615 50.165818 
L 151.26615 50.165818 
" clip-path="url(#p2e2adcf28b)" style="fill: none; stroke: #0000ff; stroke-width: 1.5; stroke-linecap: square"/>
   </g>
   <g id="patch_13">
    <path d="M 30.49 539.168 
L 30.49 26.88 
" style="fill: none; stroke: #000000; stroke-width: 0.8; stroke-linejoin: miter; stroke-linecap: square"/>
   </g>
   <g id="patch_14">
    <path d="M 172.51 539.168 
L 172.51 26.88 
" style="fill: none; stroke: #000000; stroke-width: 0.8; stroke-linejoin: miter; stroke-linecap: square"/>
   </g>
   <g id="patch_15">
    <path d="M 30.49 539.168 
L 172.51 539.168 
" style="fill: none; stroke: #000000; stroke-width: 0.8; stroke-linejoin: miter; stroke-linecap: square"/>
   </g>
   <g id="patch_16">
    <path d="M 30.49 26.88 
L 172.51 26.88 
" style="fill: none; stroke: #000000; stroke-width: 0.8; stroke-linejoin: miter; stroke-linecap: square"/>
   </g>
   <g id="legend_1">
    <g id="patch_17">
     <path d="M 37.49 534.168 
L 143.947812 534.168 
Q 145.947812 534.168 145.947812 532.168 
L 145.947812 489.133625 
Q 145.947812 487.133625 143.947812 487.133625 
L 37.49 487.133625 
Q 35.49 487.133625 35.49 489.133625 
L 35.49 532.168 
Q 35.49 534.168 37.49 534.168 
z
" style="fill: #ffffff; opacity: 0.8; stroke: #cccccc; stroke-linejoin: miter"/>
    </g>
    <g id="line2d_8">
     <path d="M 39.49 495.232063 
L 49.49 495.232063 
L 59.49 495.232063 
" style="fill: none; stroke: #ff0000; stroke-opacity: 0.3; stroke-width: 1.5; stroke-linecap: square"/>
    </g>
    <g id="text_6">
     <!-- KDE Estimate -->
     <g transform="translate(67.49 498.732063) scale(0.1 -0.1)">
      <defs>
       <path id="DejaVuSans-4b" d="M 628 4666 
L 1259 4666 
L 1259 2694 
L 3353 4666 
L 4166 4666 
L 1850 2491 
L 4331 0 
L 3500 0 
L 1259 2247 
L 1259 0 
L 628 0 
L 628 4666 
z
" transform="scale(0.015625)"/>
       <path id="DejaVuSans-44" d="M 1259 4147 
L 1259 519 
L 2022 519 
Q 2988 519 3436 956 
Q 3884 1394 3884 2338 
Q 3884 3275 3436 3711 
Q 2988 4147 2022 4147 
L 1259 4147 
z
M 628 4666 
L 1925 4666 
Q 3281 4666 3915 4102 
Q 4550 3538 4550 2338 
Q 4550 1131 3912 565 
Q 3275 0 1925 0 
L 628 0 
L 628 4666 
z
" transform="scale(0.015625)"/>
       <path id="DejaVuSans-45" d="M 628 4666 
L 3578 4666 
L 3578 4134 
L 1259 4134 
L 1259 2753 
L 3481 2753 
L 3481 2222 
L 1259 2222 
L 1259 531 
L 3634 531 
L 3634 0 
L 628 0 
L 628 4666 
z
" transform="scale(0.015625)"/>
       <path id="DejaVuSans-20" transform="scale(0.015625)"/>
       <path id="DejaVuSans-73" d="M 2834 3397 
L 2834 2853 
Q 2591 2978 2328 3040 
Q 2066 3103 1784 3103 
Q 1356 3103 1142 2972 
Q 928 2841 928 2578 
Q 928 2378 1081 2264 
Q 1234 2150 1697 2047 
L 1894 2003 
Q 2506 1872 2764 1633 
Q 3022 1394 3022 966 
Q 3022 478 2636 193 
Q 2250 -91 1575 -91 
Q 1294 -91 989 -36 
Q 684 19 347 128 
L 347 722 
Q 666 556 975 473 
Q 1284 391 1588 391 
Q 1994 391 2212 530 
Q 2431 669 2431 922 
Q 2431 1156 2273 1281 
Q 2116 1406 1581 1522 
L 1381 1569 
Q 847 1681 609 1914 
Q 372 2147 372 2553 
Q 372 3047 722 3315 
Q 1072 3584 1716 3584 
Q 2034 3584 2315 3537 
Q 2597 3491 2834 3397 
z
" transform="scale(0.015625)"/>
       <path id="DejaVuSans-74" d="M 1172 4494 
L 1172 3500 
L 2356 3500 
L 2356 3053 
L 1172 3053 
L 1172 1153 
Q 1172 725 1289 603 
Q 1406 481 1766 481 
L 2356 481 
L 2356 0 
L 1766 0 
Q 1100 0 847 248 
Q 594 497 594 1153 
L 594 3053 
L 172 3053 
L 172 3500 
L 594 3500 
L 594 4494 
L 1172 4494 
z
" transform="scale(0.015625)"/>
       <path id="DejaVuSans-69" d="M 603 3500 
L 1178 3500 
L 1178 0 
L 603 0 
L 603 3500 
z
M 603 4863 
L 1178 4863 
L 1178 4134 
L 603 4134 
L 603 4863 
z
" transform="scale(0.015625)"/>
       <path id="DejaVuSans-6d" d="M 3328 2828 
Q 3544 3216 3844 3400 
Q 4144 3584 4550 3584 
Q 5097 3584 5394 3201 
Q 5691 2819 5691 2113 
L 5691 0 
L 5113 0 
L 5113 2094 
Q 5113 2597 4934 2840 
Q 4756 3084 4391 3084 
Q 3944 3084 3684 2787 
Q 3425 2491 3425 1978 
L 3425 0 
L 2847 0 
L 2847 2094 
Q 2847 2600 2669 2842 
Q 2491 3084 2119 3084 
Q 1678 3084 1418 2786 
Q 1159 2488 1159 1978 
L 1159 0 
L 581 0 
L 581 3500 
L 1159 3500 
L 1159 2956 
Q 1356 3278 1631 3431 
Q 1906 3584 2284 3584 
Q 2666 3584 2933 3390 
Q 3200 3197 3328 2828 
z
" transform="scale(0.015625)"/>
       <path id="DejaVuSans-61" d="M 2194 1759 
Q 1497 1759 1228 1600 
Q 959 1441 959 1056 
Q 959 750 1161 570 
Q 1363 391 1709 391 
Q 2188 391 2477 730 
Q 2766 1069 2766 1631 
L 2766 1759 
L 2194 1759 
z
M 3341 1997 
L 3341 0 
L 2766 0 
L 2766 531 
Q 2569 213 2275 61 
Q 1981 -91 1556 -91 
Q 1019 -91 701 211 
Q 384 513 384 1019 
Q 384 1609 779 1909 
Q 1175 2209 1959 2209 
L 2766 2209 
L 2766 2266 
Q 2766 2663 2505 2880 
Q 2244 3097 1772 3097 
Q 1472 3097 1187 3025 
Q 903 2953 641 2809 
L 641 3341 
Q 956 3463 1253 3523 
Q 1550 3584 1831 3584 
Q 2591 3584 2966 3190 
Q 3341 2797 3341 1997 
z
" transform="scale(0.015625)"/>
       <path id="DejaVuSans-65" d="M 3597 1894 
L 3597 1613 
L 953 1613 
Q 991 1019 1311 708 
Q 1631 397 2203 397 
Q 2534 397 2845 478 
Q 3156 559 3463 722 
L 3463 178 
Q 3153 47 2828 -22 
Q 2503 -91 2169 -91 
Q 1331 -91 842 396 
Q 353 884 353 1716 
Q 353 2575 817 3079 
Q 1281 3584 2069 3584 
Q 2775 3584 3186 3129 
Q 3597 2675 3597 1894 
z
M 3022 2063 
Q 3016 2534 2758 2815 
Q 2500 3097 2075 3097 
Q 1594 3097 1305 2825 
Q 1016 2553 972 2059 
L 3022 2063 
z
" transform="scale(0.015625)"/>
      </defs>
      <use xlink:href="#DejaVuSans-4b"/>
      <use xlink:href="#DejaVuSans-44" x="65.576172"/>
      <use xlink:href="#DejaVuSans-45" x="142.578125"/>
      <use xlink:href="#DejaVuSans-20" x="205.761719"/>
      <use xlink:href="#DejaVuSans-45" x="237.548828"/>
      <use xlink:href="#DejaVuSans-73" x="300.732422"/>
      <use xlink:href="#DejaVuSans-74" x="352.832031"/>
      <use xlink:href="#DejaVuSans-69" x="392.041016"/>
      <use xlink:href="#DejaVuSans-6d" x="419.824219"/>
      <use xlink:href="#DejaVuSans-61" x="517.236328"/>
      <use xlink:href="#DejaVuSans-74" x="578.515625"/>
      <use xlink:href="#DejaVuSans-65" x="617.724609"/>
     </g>
    </g>
    <g id="line2d_9">
     <path d="M 39.49 509.910188 
L 49.49 509.910188 
L 59.49 509.910188 
" style="fill: none; stroke: #0000ff; stroke-width: 1.5; stroke-linecap: square"/>
    </g>
    <g id="text_7">
     <!-- Norm estimate -->
     <g transform="translate(67.49 513.410188) scale(0.1 -0.1)">
      <defs>
       <path id="DejaVuSans-4e" d="M 628 4666 
L 1478 4666 
L 3547 763 
L 3547 4666 
L 4159 4666 
L 4159 0 
L 3309 0 
L 1241 3903 
L 1241 0 
L 628 0 
L 628 4666 
z
" transform="scale(0.015625)"/>
       <path id="DejaVuSans-6f" d="M 1959 3097 
Q 1497 3097 1228 2736 
Q 959 2375 959 1747 
Q 959 1119 1226 758 
Q 1494 397 1959 397 
Q 2419 397 2687 759 
Q 2956 1122 2956 1747 
Q 2956 2369 2687 2733 
Q 2419 3097 1959 3097 
z
M 1959 3584 
Q 2709 3584 3137 3096 
Q 3566 2609 3566 1747 
Q 3566 888 3137 398 
Q 2709 -91 1959 -91 
Q 1206 -91 779 398 
Q 353 888 353 1747 
Q 353 2609 779 3096 
Q 1206 3584 1959 3584 
z
" transform="scale(0.015625)"/>
       <path id="DejaVuSans-72" d="M 2631 2963 
Q 2534 3019 2420 3045 
Q 2306 3072 2169 3072 
Q 1681 3072 1420 2755 
Q 1159 2438 1159 1844 
L 1159 0 
L 581 0 
L 581 3500 
L 1159 3500 
L 1159 2956 
Q 1341 3275 1631 3429 
Q 1922 3584 2338 3584 
Q 2397 3584 2469 3576 
Q 2541 3569 2628 3553 
L 2631 2963 
z
" transform="scale(0.015625)"/>
      </defs>
      <use xlink:href="#DejaVuSans-4e"/>
      <use xlink:href="#DejaVuSans-6f" x="74.804688"/>
      <use xlink:href="#DejaVuSans-72" x="135.986328"/>
      <use xlink:href="#DejaVuSans-6d" x="175.349609"/>
      <use xlink:href="#DejaVuSans-20" x="272.761719"/>
      <use xlink:href="#DejaVuSans-65" x="304.548828"/>
      <use xlink:href="#DejaVuSans-73" x="366.072266"/>
      <use xlink:href="#DejaVuSans-74" x="418.171875"/>
      <use xlink:href="#DejaVuSans-69" x="457.380859"/>
      <use xlink:href="#DejaVuSans-6d" x="485.164062"/>
      <use xlink:href="#DejaVuSans-61" x="582.576172"/>
      <use xlink:href="#DejaVuSans-74" x="643.855469"/>
      <use xlink:href="#DejaVuSans-65" x="683.064453"/>
     </g>
    </g>
    <g id="patch_18">
     <path d="M 39.49 528.088313 
L 59.49 528.088313 
L 59.49 521.088313 
L 39.49 521.088313 
z
" style="fill: #808080; opacity: 0.5"/>
    </g>
    <g id="text_8">
     <!-- Histogram -->
     <g transform="translate(67.49 528.088313) scale(0.1 -0.1)">
      <defs>
       <path id="DejaVuSans-48" d="M 628 4666 
L 1259 4666 
L 1259 2753 
L 3553 2753 
L 3553 4666 
L 4184 4666 
L 4184 0 
L 3553 0 
L 3553 2222 
L 1259 2222 
L 1259 0 
L 628 0 
L 628 4666 
z
" transform="scale(0.015625)"/>
       <path id="DejaVuSans-67" d="M 2906 1791 
Q 2906 2416 2648 2759 
Q 2391 3103 1925 3103 
Q 1463 3103 1205 2759 
Q 947 2416 947 1791 
Q 947 1169 1205 825 
Q 1463 481 1925 481 
Q 2391 481 2648 825 
Q 2906 1169 2906 1791 
z
M 3481 434 
Q 3481 -459 3084 -895 
Q 2688 -1331 1869 -1331 
Q 1566 -1331 1297 -1286 
Q 1028 -1241 775 -1147 
L 775 -588 
Q 1028 -725 1275 -790 
Q 1522 -856 1778 -856 
Q 2344 -856 2625 -561 
Q 2906 -266 2906 331 
L 2906 616 
Q 2728 306 2450 153 
Q 2172 0 1784 0 
Q 1141 0 747 490 
Q 353 981 353 1791 
Q 353 2603 747 3093 
Q 1141 3584 1784 3584 
Q 2172 3584 2450 3431 
Q 2728 3278 2906 2969 
L 2906 3500 
L 3481 3500 
L 3481 434 
z
" transform="scale(0.015625)"/>
      </defs>
      <use xlink:href="#DejaVuSans-48"/>
      <use xlink:href="#DejaVuSans-69" x="75.195312"/>
      <use xlink:href="#DejaVuSans-73" x="102.978516"/>
      <use xlink:href="#DejaVuSans-74" x="155.078125"/>
      <use xlink:href="#DejaVuSans-6f" x="194.287109"/>
      <use xlink:href="#DejaVuSans-67" x="255.46875"/>
      <use xlink:href="#DejaVuSans-72" x="318.945312"/>
      <use xlink:href="#DejaVuSans-61" x="360.058594"/>
      <use xlink:href="#DejaVuSans-6d" x="421.337891"/>
     </g>
    </g>
   </g>
  </g>
  <g id="axes_2">
   <g id="patch_19">
    <path d="M 217.08 539.168 
L 1069.2 539.168 
L 1069.2 26.88 
L 217.08 26.88 
z
" style="fill: #ffffff"/>
   </g>
   <g id="PathCollection_1">
    <defs>
     <path id="m31fca045c4" d="M 0 5 
C 1.326016 5 2.597899 4.473168 3.535534 3.535534 
C 4.473168 2.597899 5 1.326016 5 0 
C 5 -1.326016 4.473168 -2.597899 3.535534 -3.535534 
C 2.597899 -4.473168 1.326016 -5 0 -5 
C -1.326016 -5 -2.597899 -4.473168 -3.535534 -3.535534 
C -4.473168 -2.597899 -5 -1.326016 -5 0 
C -5 1.326016 -4.473168 2.597899 -3.535534 3.535534 
C -2.597899 4.473168 -1.326016 5 0 5 
z
" style="stroke: #000000"/>
    </defs>
    <g clip-path="url(#pf51f61a3af)">
     <use xlink:href="#m31fca045c4" x="782.170105" y="230.464582" style="fill: #ff0000; stroke: #000000"/>
     <use xlink:href="#m31fca045c4" x="764.230737" y="273.377018" style="fill: #ff0000; stroke: #000000"/>
     <use xlink:href="#m31fca045c4" x="728.352" y="264.395345" style="fill: #ff0000; stroke: #000000"/>
     <use xlink:href="#m31fca045c4" x="862.897263" y="208.842036" style="fill: #ff0000; stroke: #000000"/>
     <use xlink:href="#m31fca045c4" x="495.140211" y="135.658036" style="fill: #ff0000; stroke: #000000"/>
     <use xlink:href="#m31fca045c4" x="674.533895" y="171.584727" style="fill: #ff0000; stroke: #000000"/>
     <use xlink:href="#m31fca045c4" x="755.261053" y="218.489018" style="fill: #ff0000; stroke: #000000"/>
     <use xlink:href="#m31fca045c4" x="522.049263" y="266.391273" style="fill: #ff0000; stroke: #000000"/>
     <use xlink:href="#m31fca045c4" x="692.473263" y="226.805382" style="fill: #ff0000; stroke: #000000"/>
     <use xlink:href="#m31fca045c4" x="656.594526" y="253.7504" style="fill: #ff0000; stroke: #000000"/>
     <use xlink:href="#m31fca045c4" x="728.352" y="231.7952" style="fill: #ff0000; stroke: #000000"/>
     <use xlink:href="#m31fca045c4" x="701.442947" y="238.115636" style="fill: #ff0000; stroke: #000000"/>
     <use xlink:href="#m31fca045c4" x="674.533895" y="217.1584" style="fill: #ff0000; stroke: #000000"/>
     <use xlink:href="#m31fca045c4" x="737.321684" y="210.172655" style="fill: #ff0000; stroke: #000000"/>
     <use xlink:href="#m31fca045c4" x="719.382316" y="90.749673" style="fill: #ff0000; stroke: #000000"/>
     <use xlink:href="#m31fca045c4" x="746.291368" y="242.7728" style="fill: #ff0000; stroke: #000000"/>
     <use xlink:href="#m31fca045c4" x="710.412632" y="267.389236" style="fill: #ff0000; stroke: #000000"/>
     <use xlink:href="#m31fca045c4" x="773.200421" y="233.125818" style="fill: #ff0000; stroke: #000000"/>
     <use xlink:href="#m31fca045c4" x="746.291368" y="186.886836" style="fill: #ff0000; stroke: #000000"/>
     <use xlink:href="#m31fca045c4" x="557.928" y="90.749673" style="fill: #ff0000; stroke: #000000"/>
     <use xlink:href="#m31fca045c4" x="773.200421" y="384.483636" style="fill: #ff0000; stroke: #000000"/>
     <use xlink:href="#m31fca045c4" x="593.806737" y="227.803345" style="fill: #ff0000; stroke: #000000"/>
     <use xlink:href="#m31fca045c4" x="755.261053" y="214.497164" style="fill: #ff0000; stroke: #000000"/>
     <use xlink:href="#m31fca045c4" x="809.079158" y="218.489018" style="fill: #ff0000; stroke: #000000"/>
     <use xlink:href="#m31fca045c4" x="755.261053" y="223.146182" style="fill: #ff0000; stroke: #000000"/>
     <use xlink:href="#m31fca045c4" x="746.291368" y="480.6208" style="fill: #ff0000; stroke: #000000"/>
     <use xlink:href="#m31fca045c4" x="692.473263" y="131.333527" style="fill: #ff0000; stroke: #000000"/>
     <use xlink:href="#m31fca045c4" x="844.957895" y="438.706327" style="fill: #ff0000; stroke: #000000"/>
     <use xlink:href="#m31fca045c4" x="844.957895" y="438.706327" style="fill: #ff0000; stroke: #000000"/>
     <use xlink:href="#m31fca045c4" x="575.867368" y="398.787782" style="fill: #ff0000; stroke: #000000"/>
     <use xlink:href="#m31fca045c4" x="629.685474" y="213.166545" style="fill: #ff0000; stroke: #000000"/>
     <use xlink:href="#m31fca045c4" x="710.412632" y="235.4544" style="fill: #ff0000; stroke: #000000"/>
     <use xlink:href="#m31fca045c4" x="1024.351579" y="257.4096" style="fill: #ff0000; stroke: #000000"/>
     <use xlink:href="#m31fca045c4" x="566.897684" y="373.506036" style="fill: #ff0000; stroke: #000000"/>
     <use xlink:href="#m31fca045c4" x="800.109474" y="415.753164" style="fill: #ff0000; stroke: #000000"/>
     <use xlink:href="#m31fca045c4" x="674.533895" y="187.8848" style="fill: #ff0000; stroke: #000000"/>
     <use xlink:href="#m31fca045c4" x="593.806737" y="273.709673" style="fill: #ff0000; stroke: #000000"/>
     <use xlink:href="#m31fca045c4" x="620.715789" y="207.844073" style="fill: #ff0000; stroke: #000000"/>
     <use xlink:href="#m31fca045c4" x="710.412632" y="314.293527" style="fill: #ff0000; stroke: #000000"/>
     <use xlink:href="#m31fca045c4" x="665.564211" y="111.374255" style="fill: #ff0000; stroke: #000000"/>
     <use xlink:href="#m31fca045c4" x="665.564211" y="314.293527" style="fill: #ff0000; stroke: #000000"/>
     <use xlink:href="#m31fca045c4" x="665.564211" y="91.082327" style="fill: #ff0000; stroke: #000000"/>
     <use xlink:href="#m31fca045c4" x="755.261053" y="361.530473" style="fill: #ff0000; stroke: #000000"/>
     <use xlink:href="#m31fca045c4" x="988.472842" y="76.445527" style="fill: #ff0000; stroke: #000000"/>
     <use xlink:href="#m31fca045c4" x="495.140211" y="176.241891" style="fill: #ff0000; stroke: #000000"/>
     <use xlink:href="#m31fca045c4" x="2755.500632" y="247.097309" style="fill: #ff0000; stroke: #000000"/>
     <use xlink:href="#m31fca045c4" x="764.230737" y="113.037527" style="fill: #ff0000; stroke: #000000"/>
     <use xlink:href="#m31fca045c4" x="701.442947" y="215.495127" style="fill: #ff0000; stroke: #000000"/>
     <use xlink:href="#m31fca045c4" x="728.352" y="342.569164" style="fill: #ff0000; stroke: #000000"/>
     <use xlink:href="#m31fca045c4" x="656.594526" y="191.544" style="fill: #ff0000; stroke: #000000"/>
     <use xlink:href="#m31fca045c4" x="782.170105" y="314.293527" style="fill: #ff0000; stroke: #000000"/>
     <use xlink:href="#m31fca045c4" x="620.715789" y="243.438109" style="fill: #ff0000; stroke: #000000"/>
     <use xlink:href="#m31fca045c4" x="916.715368" y="270.383127" style="fill: #ff0000; stroke: #000000"/>
     <use xlink:href="#m31fca045c4" x="674.533895" y="242.7728" style="fill: #ff0000; stroke: #000000"/>
     <use xlink:href="#m31fca045c4" x="665.564211" y="186.886836" style="fill: #ff0000; stroke: #000000"/>
     <use xlink:href="#m31fca045c4" x="638.655158" y="351.883491" style="fill: #ff0000; stroke: #000000"/>
     <use xlink:href="#m31fca045c4" x="495.140211" y="223.478836" style="fill: #ff0000; stroke: #000000"/>
     <use xlink:href="#m31fca045c4" x="656.594526" y="227.138036" style="fill: #ff0000; stroke: #000000"/>
     <use xlink:href="#m31fca045c4" x="835.988211" y="463.988073" style="fill: #ff0000; stroke: #000000"/>
     <use xlink:href="#m31fca045c4" x="710.412632" y="234.456436" style="fill: #ff0000; stroke: #000000"/>
     <use xlink:href="#m31fca045c4" x="782.170105" y="246.099345" style="fill: #ff0000; stroke: #000000"/>
     <use xlink:href="#m31fca045c4" x="557.928" y="398.787782" style="fill: #ff0000; stroke: #000000"/>
     <use xlink:href="#m31fca045c4" x="737.321684" y="212.501236" style="fill: #ff0000; stroke: #000000"/>
     <use xlink:href="#m31fca045c4" x="764.230737" y="277.701527" style="fill: #ff0000; stroke: #000000"/>
     <use xlink:href="#m31fca045c4" x="665.564211" y="193.872582" style="fill: #ff0000; stroke: #000000"/>
     <use xlink:href="#m31fca045c4" x="791.139789" y="196.533818" style="fill: #ff0000; stroke: #000000"/>
     <use xlink:href="#m31fca045c4" x="737.321684" y="193.872582" style="fill: #ff0000; stroke: #000000"/>
     <use xlink:href="#m31fca045c4" x="791.139789" y="273.709673" style="fill: #ff0000; stroke: #000000"/>
     <use xlink:href="#m31fca045c4" x="746.291368" y="268.054545" style="fill: #ff0000; stroke: #000000"/>
     <use xlink:href="#m31fca045c4" x="719.382316" y="221.815564" style="fill: #ff0000; stroke: #000000"/>
     <use xlink:href="#m31fca045c4" x="764.230737" y="165.264291" style="fill: #ff0000; stroke: #000000"/>
     <use xlink:href="#m31fca045c4" x="522.049263" y="277.701527" style="fill: #ff0000; stroke: #000000"/>
     <use xlink:href="#m31fca045c4" x="602.776421" y="202.188945" style="fill: #ff0000; stroke: #000000"/>
     <use xlink:href="#m31fca045c4" x="710.412632" y="212.833891" style="fill: #ff0000; stroke: #000000"/>
     <use xlink:href="#m31fca045c4" x="755.261053" y="234.123782" style="fill: #ff0000; stroke: #000000"/>
     <use xlink:href="#m31fca045c4" x="692.473263" y="260.736145" style="fill: #ff0000; stroke: #000000"/>
     <use xlink:href="#m31fca045c4" x="746.291368" y="213.831855" style="fill: #ff0000; stroke: #000000"/>
     <use xlink:href="#m31fca045c4" x="647.624842" y="250.423855" style="fill: #ff0000; stroke: #000000"/>
     <use xlink:href="#m31fca045c4" x="737.321684" y="197.531782" style="fill: #ff0000; stroke: #000000"/>
     <use xlink:href="#m31fca045c4" x="557.928" y="206.513455" style="fill: #ff0000; stroke: #000000"/>
     <use xlink:href="#m31fca045c4" x="943.624421" y="147.300945" style="fill: #ff0000; stroke: #000000"/>
     <use xlink:href="#m31fca045c4" x="746.291368" y="76.445527" style="fill: #ff0000; stroke: #000000"/>
     <use xlink:href="#m31fca045c4" x="889.806316" y="495.590255" style="fill: #ff0000; stroke: #000000"/>
     <use xlink:href="#m31fca045c4" x="620.715789" y="290.009745" style="fill: #ff0000; stroke: #000000"/>
     <use xlink:href="#m31fca045c4" x="844.957895" y="480.288145" style="fill: #ff0000; stroke: #000000"/>
     <use xlink:href="#m31fca045c4" x="495.140211" y="296.330182" style="fill: #ff0000; stroke: #000000"/>
     <use xlink:href="#m31fca045c4" x="737.321684" y="55.820945" style="fill: #ff0000; stroke: #000000"/>
     <use xlink:href="#m31fca045c4" x="710.412632" y="120.023273" style="fill: #ff0000; stroke: #000000"/>
     <use xlink:href="#m31fca045c4" x="737.321684" y="137.986618" style="fill: #ff0000; stroke: #000000"/>
     <use xlink:href="#m31fca045c4" x="737.321684" y="207.844073" style="fill: #ff0000; stroke: #000000"/>
     <use xlink:href="#m31fca045c4" x="620.715789" y="295.664873" style="fill: #ff0000; stroke: #000000"/>
     <use xlink:href="#m31fca045c4" x="746.291368" y="213.831855" style="fill: #ff0000; stroke: #000000"/>
     <use xlink:href="#m31fca045c4" x="755.261053" y="191.211345" style="fill: #ff0000; stroke: #000000"/>
     <use xlink:href="#m31fca045c4" x="638.655158" y="172.250036" style="fill: #ff0000; stroke: #000000"/>
     <use xlink:href="#m31fca045c4" x="611.746105" y="187.8848" style="fill: #ff0000; stroke: #000000"/>
     <use xlink:href="#m31fca045c4" x="495.140211" y="212.833891" style="fill: #ff0000; stroke: #000000"/>
     <use xlink:href="#m31fca045c4" x="342.655579" y="263.064727" style="fill: #ff0000; stroke: #000000"/>
     <use xlink:href="#m31fca045c4" x="683.503579" y="254.083055" style="fill: #ff0000; stroke: #000000"/>
     <use xlink:href="#m31fca045c4" x="638.655158" y="237.782982" style="fill: #ff0000; stroke: #000000"/>
     <use xlink:href="#m31fca045c4" x="800.109474" y="217.823709" style="fill: #ff0000; stroke: #000000"/>
     <use xlink:href="#m31fca045c4" x="692.473263" y="410.430691" style="fill: #ff0000; stroke: #000000"/>
     <use xlink:href="#m31fca045c4" x="773.200421" y="236.452364" style="fill: #ff0000; stroke: #000000"/>
     <use xlink:href="#m31fca045c4" x="1777.805053" y="493.594327" style="fill: #ff0000; stroke: #000000"/>
     <use xlink:href="#m31fca045c4" x="952.594105" y="357.538618" style="fill: #ff0000; stroke: #000000"/>
     <use xlink:href="#m31fca045c4" x="764.230737" y="233.125818" style="fill: #ff0000; stroke: #000000"/>
     <use xlink:href="#m31fca045c4" x="620.715789" y="395.793891" style="fill: #ff0000; stroke: #000000"/>
     <use xlink:href="#m31fca045c4" x="495.140211" y="277.701527" style="fill: #ff0000; stroke: #000000"/>
     <use xlink:href="#m31fca045c4" x="656.594526" y="177.905164" style="fill: #ff0000; stroke: #000000"/>
     <use xlink:href="#m31fca045c4" x="764.230737" y="211.170618" style="fill: #ff0000; stroke: #000000"/>
     <use xlink:href="#m31fca045c4" x="809.079158" y="216.493091" style="fill: #ff0000; stroke: #000000"/>
     <use xlink:href="#m31fca045c4" x="674.533895" y="259.072873" style="fill: #ff0000; stroke: #000000"/>
     <use xlink:href="#m31fca045c4" x="710.412632" y="183.560291" style="fill: #ff0000; stroke: #000000"/>
     <use xlink:href="#m31fca045c4" x="665.564211" y="190.213382" style="fill: #ff0000; stroke: #000000"/>
     <use xlink:href="#m31fca045c4" x="764.230737" y="274.707636" style="fill: #ff0000; stroke: #000000"/>
     <use xlink:href="#m31fca045c4" x="665.564211" y="217.823709" style="fill: #ff0000; stroke: #000000"/>
     <use xlink:href="#m31fca045c4" x="764.230737" y="217.823709" style="fill: #ff0000; stroke: #000000"/>
     <use xlink:href="#m31fca045c4" x="782.170105" y="227.470691" style="fill: #ff0000; stroke: #000000"/>
     <use xlink:href="#m31fca045c4" x="728.352" y="302.983273" style="fill: #ff0000; stroke: #000000"/>
     <use xlink:href="#m31fca045c4" x="827.018526" y="197.531782" style="fill: #ff0000; stroke: #000000"/>
     <use xlink:href="#m31fca045c4" x="773.200421" y="233.458473" style="fill: #ff0000; stroke: #000000"/>
     <use xlink:href="#m31fca045c4" x="755.261053" y="216.160436" style="fill: #ff0000; stroke: #000000"/>
    </g>
   </g>
   <g id="PathCollection_2">
    <defs>
     <path id="mdcf13905b4" d="M 0 2.236068 
C 0.593012 2.236068 1.161816 2.000462 1.581139 1.581139 
C 2.000462 1.161816 2.236068 0.593012 2.236068 0 
C 2.236068 -0.593012 2.000462 -1.161816 1.581139 -1.581139 
C 1.161816 -2.000462 0.593012 -2.236068 0 -2.236068 
C -0.593012 -2.236068 -1.161816 -2.000462 -1.581139 -1.581139 
C -2.000462 -1.161816 -2.236068 -0.593012 -2.236068 0 
C -2.236068 0.593012 -2.000462 1.161816 -1.581139 1.581139 
C -1.161816 2.000462 -0.593012 2.236068 0 2.236068 
z
" style="stroke: #000000"/>
    </defs>
    <g clip-path="url(#pf51f61a3af)">
     <use xlink:href="#mdcf13905b4" x="755.261053" y="287.681164" style="fill: #808080; stroke: #000000"/>
     <use xlink:href="#mdcf13905b4" x="853.927579" y="326.601745" style="fill: #808080; stroke: #000000"/>
     <use xlink:href="#mdcf13905b4" x="782.170105" y="226.805382" style="fill: #808080; stroke: #000000"/>
     <use xlink:href="#mdcf13905b4" x="862.897263" y="302.317964" style="fill: #808080; stroke: #000000"/>
     <use xlink:href="#mdcf13905b4" x="853.927579" y="383.485673" style="fill: #808080; stroke: #000000"/>
     <use xlink:href="#mdcf13905b4" x="862.897263" y="251.089164" style="fill: #808080; stroke: #000000"/>
     <use xlink:href="#mdcf13905b4" x="835.988211" y="477.294255" style="fill: #808080; stroke: #000000"/>
     <use xlink:href="#mdcf13905b4" x="862.897263" y="214.497164" style="fill: #808080; stroke: #000000"/>
     <use xlink:href="#mdcf13905b4" x="818.048842" y="147.300945" style="fill: #808080; stroke: #000000"/>
     <use xlink:href="#mdcf13905b4" x="719.382316" y="196.866473" style="fill: #808080; stroke: #000000"/>
     <use xlink:href="#mdcf13905b4" x="871.866947" y="403.444945" style="fill: #808080; stroke: #000000"/>
     <use xlink:href="#mdcf13905b4" x="818.048842" y="189.548073" style="fill: #808080; stroke: #000000"/>
     <use xlink:href="#mdcf13905b4" x="800.109474" y="204.184873" style="fill: #808080; stroke: #000000"/>
     <use xlink:href="#mdcf13905b4" x="827.018526" y="136.988655" style="fill: #808080; stroke: #000000"/>
     <use xlink:href="#mdcf13905b4" x="844.957895" y="329.928291" style="fill: #808080; stroke: #000000"/>
     <use xlink:href="#mdcf13905b4" x="773.200421" y="312.630255" style="fill: #808080; stroke: #000000"/>
     <use xlink:href="#mdcf13905b4" x="827.018526" y="128.006982" style="fill: #808080; stroke: #000000"/>
     <use xlink:href="#mdcf13905b4" x="755.261053" y="235.4544" style="fill: #808080; stroke: #000000"/>
     <use xlink:href="#mdcf13905b4" x="889.806316" y="247.097309" style="fill: #808080; stroke: #000000"/>
     <use xlink:href="#mdcf13905b4" x="764.230737" y="258.407564" style="fill: #808080; stroke: #000000"/>
     <use xlink:href="#mdcf13905b4" x="862.897263" y="116.696727" style="fill: #808080; stroke: #000000"/>
     <use xlink:href="#mdcf13905b4" x="809.079158" y="113.370182" style="fill: #808080; stroke: #000000"/>
     <use xlink:href="#mdcf13905b4" x="746.291368" y="249.093236" style="fill: #808080; stroke: #000000"/>
     <use xlink:href="#mdcf13905b4" x="674.533895" y="208.842036" style="fill: #808080; stroke: #000000"/>
     <use xlink:href="#mdcf13905b4" x="782.170105" y="480.6208" style="fill: #808080; stroke: #000000"/>
     <use xlink:href="#mdcf13905b4" x="755.261053" y="248.427927" style="fill: #808080; stroke: #000000"/>
     <use xlink:href="#mdcf13905b4" x="737.321684" y="130.668218" style="fill: #808080; stroke: #000000"/>
     <use xlink:href="#mdcf13905b4" x="800.109474" y="235.121745" style="fill: #808080; stroke: #000000"/>
     <use xlink:href="#mdcf13905b4" x="898.776" y="323.940509" style="fill: #808080; stroke: #000000"/>
     <use xlink:href="#mdcf13905b4" x="800.109474" y="184.558255" style="fill: #808080; stroke: #000000"/>
     <use xlink:href="#mdcf13905b4" x="782.170105" y="160.274473" style="fill: #808080; stroke: #000000"/>
     <use xlink:href="#mdcf13905b4" x="880.836632" y="293.336291" style="fill: #808080; stroke: #000000"/>
     <use xlink:href="#mdcf13905b4" x="880.836632" y="264.728" style="fill: #808080; stroke: #000000"/>
     <use xlink:href="#mdcf13905b4" x="809.079158" y="193.207273" style="fill: #808080; stroke: #000000"/>
     <use xlink:href="#mdcf13905b4" x="755.261053" y="159.941818" style="fill: #808080; stroke: #000000"/>
     <use xlink:href="#mdcf13905b4" x="871.866947" y="176.574545" style="fill: #808080; stroke: #000000"/>
     <use xlink:href="#mdcf13905b4" x="746.291368" y="199.860364" style="fill: #808080; stroke: #000000"/>
     <use xlink:href="#mdcf13905b4" x="809.079158" y="157.613236" style="fill: #808080; stroke: #000000"/>
     <use xlink:href="#mdcf13905b4" x="835.988211" y="233.458473" style="fill: #808080; stroke: #000000"/>
     <use xlink:href="#mdcf13905b4" x="773.200421" y="50.165818" style="fill: #808080; stroke: #000000"/>
     <use xlink:href="#mdcf13905b4" x="800.109474" y="327.599709" style="fill: #808080; stroke: #000000"/>
     <use xlink:href="#mdcf13905b4" x="746.291368" y="219.154327" style="fill: #808080; stroke: #000000"/>
     <use xlink:href="#mdcf13905b4" x="827.018526" y="289.011782" style="fill: #808080; stroke: #000000"/>
     <use xlink:href="#mdcf13905b4" x="782.170105" y="133.994764" style="fill: #808080; stroke: #000000"/>
     <use xlink:href="#mdcf13905b4" x="800.109474" y="287.348509" style="fill: #808080; stroke: #000000"/>
     <use xlink:href="#mdcf13905b4" x="862.897263" y="50.498473" style="fill: #808080; stroke: #000000"/>
     <use xlink:href="#mdcf13905b4" x="800.109474" y="149.629527" style="fill: #808080; stroke: #000000"/>
     <use xlink:href="#mdcf13905b4" x="943.624421" y="284.021964" style="fill: #808080; stroke: #000000"/>
     <use xlink:href="#mdcf13905b4" x="818.048842" y="137.653964" style="fill: #808080; stroke: #000000"/>
     <use xlink:href="#mdcf13905b4" x="827.018526" y="274.042327" style="fill: #808080; stroke: #000000"/>
     <use xlink:href="#mdcf13905b4" x="791.139789" y="279.3648" style="fill: #808080; stroke: #000000"/>
     <use xlink:href="#mdcf13905b4" x="835.988211" y="328.930327" style="fill: #808080; stroke: #000000"/>
     <use xlink:href="#mdcf13905b4" x="737.321684" y="268.3872" style="fill: #808080; stroke: #000000"/>
     <use xlink:href="#mdcf13905b4" x="791.139789" y="305.311855" style="fill: #808080; stroke: #000000"/>
     <use xlink:href="#mdcf13905b4" x="827.018526" y="87.755782" style="fill: #808080; stroke: #000000"/>
     <use xlink:href="#mdcf13905b4" x="853.927579" y="279.032145" style="fill: #808080; stroke: #000000"/>
     <use xlink:href="#mdcf13905b4" x="791.139789" y="278.034182" style="fill: #808080; stroke: #000000"/>
     <use xlink:href="#mdcf13905b4" x="809.079158" y="203.186909" style="fill: #808080; stroke: #000000"/>
     <use xlink:href="#mdcf13905b4" x="844.957895" y="241.442182" style="fill: #808080; stroke: #000000"/>
     <use xlink:href="#mdcf13905b4" x="782.170105" y="300.654691" style="fill: #808080; stroke: #000000"/>
     <use xlink:href="#mdcf13905b4" x="809.079158" y="262.399418" style="fill: #808080; stroke: #000000"/>
     <use xlink:href="#mdcf13905b4" x="755.261053" y="211.835927" style="fill: #808080; stroke: #000000"/>
     <use xlink:href="#mdcf13905b4" x="755.261053" y="152.623418" style="fill: #808080; stroke: #000000"/>
     <use xlink:href="#mdcf13905b4" x="755.261053" y="252.419782" style="fill: #808080; stroke: #000000"/>
     <use xlink:href="#mdcf13905b4" x="755.261053" y="143.309091" style="fill: #808080; stroke: #000000"/>
     <use xlink:href="#mdcf13905b4" x="844.957895" y="165.9296" style="fill: #808080; stroke: #000000"/>
     <use xlink:href="#mdcf13905b4" x="746.291368" y="145.637673" style="fill: #808080; stroke: #000000"/>
     <use xlink:href="#mdcf13905b4" x="844.957895" y="206.846109" style="fill: #808080; stroke: #000000"/>
     <use xlink:href="#mdcf13905b4" x="853.927579" y="225.807418" style="fill: #808080; stroke: #000000"/>
     <use xlink:href="#mdcf13905b4" x="827.018526" y="61.476073" style="fill: #808080; stroke: #000000"/>
     <use xlink:href="#mdcf13905b4" x="800.109474" y="214.164509" style="fill: #808080; stroke: #000000"/>
     <use xlink:href="#mdcf13905b4" x="737.321684" y="332.589527" style="fill: #808080; stroke: #000000"/>
     <use xlink:href="#mdcf13905b4" x="764.230737" y="113.370182" style="fill: #808080; stroke: #000000"/>
     <use xlink:href="#mdcf13905b4" x="701.442947" y="171.584727" style="fill: #808080; stroke: #000000"/>
     <use xlink:href="#mdcf13905b4" x="764.230737" y="515.882182" style="fill: #808080; stroke: #000000"/>
     <use xlink:href="#mdcf13905b4" x="889.806316" y="388.808145" style="fill: #808080; stroke: #000000"/>
     <use xlink:href="#mdcf13905b4" x="692.473263" y="257.4096" style="fill: #808080; stroke: #000000"/>
     <use xlink:href="#mdcf13905b4" x="746.291368" y="57.816873" style="fill: #808080; stroke: #000000"/>
     <use xlink:href="#mdcf13905b4" x="719.382316" y="250.423855" style="fill: #808080; stroke: #000000"/>
     <use xlink:href="#mdcf13905b4" x="809.079158" y="267.056582" style="fill: #808080; stroke: #000000"/>
     <use xlink:href="#mdcf13905b4" x="755.261053" y="308.305745" style="fill: #808080; stroke: #000000"/>
     <use xlink:href="#mdcf13905b4" x="665.564211" y="179.901091" style="fill: #808080; stroke: #000000"/>
     <use xlink:href="#mdcf13905b4" x="746.291368" y="82.433309" style="fill: #808080; stroke: #000000"/>
     <use xlink:href="#mdcf13905b4" x="773.200421" y="301.985309" style="fill: #808080; stroke: #000000"/>
     <use xlink:href="#mdcf13905b4" x="827.018526" y="257.742255" style="fill: #808080; stroke: #000000"/>
     <use xlink:href="#mdcf13905b4" x="818.048842" y="89.0864" style="fill: #808080; stroke: #000000"/>
     <use xlink:href="#mdcf13905b4" x="746.291368" y="150.627491" style="fill: #808080; stroke: #000000"/>
     <use xlink:href="#mdcf13905b4" x="710.412632" y="232.460509" style="fill: #808080; stroke: #000000"/>
     <use xlink:href="#mdcf13905b4" x="737.321684" y="277.368873" style="fill: #808080; stroke: #000000"/>
     <use xlink:href="#mdcf13905b4" x="773.200421" y="168.258182" style="fill: #808080; stroke: #000000"/>
     <use xlink:href="#mdcf13905b4" x="728.352" y="202.188945" style="fill: #808080; stroke: #000000"/>
     <use xlink:href="#mdcf13905b4" x="818.048842" y="60.478109" style="fill: #808080; stroke: #000000"/>
     <use xlink:href="#mdcf13905b4" x="764.230737" y="104.388509" style="fill: #808080; stroke: #000000"/>
     <use xlink:href="#mdcf13905b4" x="746.291368" y="335.583418" style="fill: #808080; stroke: #000000"/>
     <use xlink:href="#mdcf13905b4" x="791.139789" y="189.880727" style="fill: #808080; stroke: #000000"/>
     <use xlink:href="#mdcf13905b4" x="701.442947" y="125.013091" style="fill: #808080; stroke: #000000"/>
     <use xlink:href="#mdcf13905b4" x="934.654737" y="224.144145" style="fill: #808080; stroke: #000000"/>
     <use xlink:href="#mdcf13905b4" x="710.412632" y="201.856291" style="fill: #808080; stroke: #000000"/>
     <use xlink:href="#mdcf13905b4" x="701.442947" y="229.466618" style="fill: #808080; stroke: #000000"/>
     <use xlink:href="#mdcf13905b4" x="701.442947" y="204.850182" style="fill: #808080; stroke: #000000"/>
     <use xlink:href="#mdcf13905b4" x="764.230737" y="277.701527" style="fill: #808080; stroke: #000000"/>
     <use xlink:href="#mdcf13905b4" x="764.230737" y="251.754473" style="fill: #808080; stroke: #000000"/>
     <use xlink:href="#mdcf13905b4" x="611.746105" y="270.715782" style="fill: #808080; stroke: #000000"/>
     <use xlink:href="#mdcf13905b4" x="746.291368" y="498.584145" style="fill: #808080; stroke: #000000"/>
     <use xlink:href="#mdcf13905b4" x="764.230737" y="500.580073" style="fill: #808080; stroke: #000000"/>
     <use xlink:href="#mdcf13905b4" x="773.200421" y="148.964218" style="fill: #808080; stroke: #000000"/>
     <use xlink:href="#mdcf13905b4" x="827.018526" y="197.531782" style="fill: #808080; stroke: #000000"/>
    </g>
   </g>
   <g id="matplotlib.axis_3">
    <g id="xtick_1">
     <g id="line2d_10">
      <path d="M 217.08 539.168 
L 217.08 26.88 
" clip-path="url(#pf51f61a3af)" style="fill: none; stroke: #b0b0b0; stroke-width: 0.8; stroke-linecap: square"/>
     </g>
     <g id="line2d_11">
      <defs>
       <path id="m99735711d1" d="M 0 0 
L 0 3.5 
" style="stroke: #000000; stroke-width: 0.8"/>
      </defs>
      <g>
       <use xlink:href="#m99735711d1" x="217.08" y="539.168" style="stroke: #000000; stroke-width: 0.8"/>
      </g>
     </g>
     <g id="text_9">
      <!-- 60 -->
      <g transform="translate(210.7175 553.766438) scale(0.1 -0.1)">
       <defs>
        <path id="DejaVuSans-36" d="M 2113 2584 
Q 1688 2584 1439 2293 
Q 1191 2003 1191 1497 
Q 1191 994 1439 701 
Q 1688 409 2113 409 
Q 2538 409 2786 701 
Q 3034 994 3034 1497 
Q 3034 2003 2786 2293 
Q 2538 2584 2113 2584 
z
M 3366 4563 
L 3366 3988 
Q 3128 4100 2886 4159 
Q 2644 4219 2406 4219 
Q 1781 4219 1451 3797 
Q 1122 3375 1075 2522 
Q 1259 2794 1537 2939 
Q 1816 3084 2150 3084 
Q 2853 3084 3261 2657 
Q 3669 2231 3669 1497 
Q 3669 778 3244 343 
Q 2819 -91 2113 -91 
Q 1303 -91 875 529 
Q 447 1150 447 2328 
Q 447 3434 972 4092 
Q 1497 4750 2381 4750 
Q 2619 4750 2861 4703 
Q 3103 4656 3366 4563 
z
" transform="scale(0.015625)"/>
       </defs>
       <use xlink:href="#DejaVuSans-36"/>
       <use xlink:href="#DejaVuSans-30" x="63.623047"/>
      </g>
     </g>
    </g>
    <g id="xtick_2">
     <g id="line2d_12">
      <path d="M 396.473684 539.168 
L 396.473684 26.88 
" clip-path="url(#pf51f61a3af)" style="fill: none; stroke: #b0b0b0; stroke-width: 0.8; stroke-linecap: square"/>
     </g>
     <g id="line2d_13">
      <g>
       <use xlink:href="#m99735711d1" x="396.473684" y="539.168" style="stroke: #000000; stroke-width: 0.8"/>
      </g>
     </g>
     <g id="text_10">
      <!-- 80 -->
      <g transform="translate(390.111184 553.766438) scale(0.1 -0.1)">
       <defs>
        <path id="DejaVuSans-38" d="M 2034 2216 
Q 1584 2216 1326 1975 
Q 1069 1734 1069 1313 
Q 1069 891 1326 650 
Q 1584 409 2034 409 
Q 2484 409 2743 651 
Q 3003 894 3003 1313 
Q 3003 1734 2745 1975 
Q 2488 2216 2034 2216 
z
M 1403 2484 
Q 997 2584 770 2862 
Q 544 3141 544 3541 
Q 544 4100 942 4425 
Q 1341 4750 2034 4750 
Q 2731 4750 3128 4425 
Q 3525 4100 3525 3541 
Q 3525 3141 3298 2862 
Q 3072 2584 2669 2484 
Q 3125 2378 3379 2068 
Q 3634 1759 3634 1313 
Q 3634 634 3220 271 
Q 2806 -91 2034 -91 
Q 1263 -91 848 271 
Q 434 634 434 1313 
Q 434 1759 690 2068 
Q 947 2378 1403 2484 
z
M 1172 3481 
Q 1172 3119 1398 2916 
Q 1625 2713 2034 2713 
Q 2441 2713 2670 2916 
Q 2900 3119 2900 3481 
Q 2900 3844 2670 4047 
Q 2441 4250 2034 4250 
Q 1625 4250 1398 4047 
Q 1172 3844 1172 3481 
z
" transform="scale(0.015625)"/>
       </defs>
       <use xlink:href="#DejaVuSans-38"/>
       <use xlink:href="#DejaVuSans-30" x="63.623047"/>
      </g>
     </g>
    </g>
    <g id="xtick_3">
     <g id="line2d_14">
      <path d="M 575.867368 539.168 
L 575.867368 26.88 
" clip-path="url(#pf51f61a3af)" style="fill: none; stroke: #b0b0b0; stroke-width: 0.8; stroke-linecap: square"/>
     </g>
     <g id="line2d_15">
      <g>
       <use xlink:href="#m99735711d1" x="575.867368" y="539.168" style="stroke: #000000; stroke-width: 0.8"/>
      </g>
     </g>
     <g id="text_11">
      <!-- 100 -->
      <g transform="translate(566.323618 553.766438) scale(0.1 -0.1)">
       <use xlink:href="#DejaVuSans-31"/>
       <use xlink:href="#DejaVuSans-30" x="63.623047"/>
       <use xlink:href="#DejaVuSans-30" x="127.246094"/>
      </g>
     </g>
    </g>
    <g id="xtick_4">
     <g id="line2d_16">
      <path d="M 755.261053 539.168 
L 755.261053 26.88 
" clip-path="url(#pf51f61a3af)" style="fill: none; stroke: #b0b0b0; stroke-width: 0.8; stroke-linecap: square"/>
     </g>
     <g id="line2d_17">
      <g>
       <use xlink:href="#m99735711d1" x="755.261053" y="539.168" style="stroke: #000000; stroke-width: 0.8"/>
      </g>
     </g>
     <g id="text_12">
      <!-- 120 -->
      <g transform="translate(745.717303 553.766438) scale(0.1 -0.1)">
       <use xlink:href="#DejaVuSans-31"/>
       <use xlink:href="#DejaVuSans-32" x="63.623047"/>
       <use xlink:href="#DejaVuSans-30" x="127.246094"/>
      </g>
     </g>
    </g>
    <g id="xtick_5">
     <g id="line2d_18">
      <path d="M 934.654737 539.168 
L 934.654737 26.88 
" clip-path="url(#pf51f61a3af)" style="fill: none; stroke: #b0b0b0; stroke-width: 0.8; stroke-linecap: square"/>
     </g>
     <g id="line2d_19">
      <g>
       <use xlink:href="#m99735711d1" x="934.654737" y="539.168" style="stroke: #000000; stroke-width: 0.8"/>
      </g>
     </g>
     <g id="text_13">
      <!-- 140 -->
      <g transform="translate(925.110987 553.766438) scale(0.1 -0.1)">
       <defs>
        <path id="DejaVuSans-34" d="M 2419 4116 
L 825 1625 
L 2419 1625 
L 2419 4116 
z
M 2253 4666 
L 3047 4666 
L 3047 1625 
L 3713 1625 
L 3713 1100 
L 3047 1100 
L 3047 0 
L 2419 0 
L 2419 1100 
L 313 1100 
L 313 1709 
L 2253 4666 
z
" transform="scale(0.015625)"/>
       </defs>
       <use xlink:href="#DejaVuSans-31"/>
       <use xlink:href="#DejaVuSans-34" x="63.623047"/>
       <use xlink:href="#DejaVuSans-30" x="127.246094"/>
      </g>
     </g>
    </g>
    <g id="text_14">
     <!-- Day of Year -->
     <g transform="translate(614.681406 567.444563) scale(0.1 -0.1)">
      <defs>
       <path id="DejaVuSans-79" d="M 2059 -325 
Q 1816 -950 1584 -1140 
Q 1353 -1331 966 -1331 
L 506 -1331 
L 506 -850 
L 844 -850 
Q 1081 -850 1212 -737 
Q 1344 -625 1503 -206 
L 1606 56 
L 191 3500 
L 800 3500 
L 1894 763 
L 2988 3500 
L 3597 3500 
L 2059 -325 
z
" transform="scale(0.015625)"/>
       <path id="DejaVuSans-66" d="M 2375 4863 
L 2375 4384 
L 1825 4384 
Q 1516 4384 1395 4259 
Q 1275 4134 1275 3809 
L 1275 3500 
L 2222 3500 
L 2222 3053 
L 1275 3053 
L 1275 0 
L 697 0 
L 697 3053 
L 147 3053 
L 147 3500 
L 697 3500 
L 697 3744 
Q 697 4328 969 4595 
Q 1241 4863 1831 4863 
L 2375 4863 
z
" transform="scale(0.015625)"/>
       <path id="DejaVuSans-59" d="M -13 4666 
L 666 4666 
L 1959 2747 
L 3244 4666 
L 3922 4666 
L 2272 2222 
L 2272 0 
L 1638 0 
L 1638 2222 
L -13 4666 
z
" transform="scale(0.015625)"/>
      </defs>
      <use xlink:href="#DejaVuSans-44"/>
      <use xlink:href="#DejaVuSans-61" x="77.001953"/>
      <use xlink:href="#DejaVuSans-79" x="138.28125"/>
      <use xlink:href="#DejaVuSans-20" x="197.460938"/>
      <use xlink:href="#DejaVuSans-6f" x="229.248047"/>
      <use xlink:href="#DejaVuSans-66" x="290.429688"/>
      <use xlink:href="#DejaVuSans-20" x="325.634766"/>
      <use xlink:href="#DejaVuSans-59" x="357.421875"/>
      <use xlink:href="#DejaVuSans-65" x="405.255859"/>
      <use xlink:href="#DejaVuSans-61" x="466.779297"/>
      <use xlink:href="#DejaVuSans-72" x="528.058594"/>
     </g>
    </g>
   </g>
   <g id="matplotlib.axis_4">
    <g id="ytick_6">
     <g id="line2d_20">
      <path d="M 217.08 517.2128 
L 1069.2 517.2128 
" clip-path="url(#pf51f61a3af)" style="fill: none; stroke: #b0b0b0; stroke-width: 0.8; stroke-linecap: square"/>
     </g>
     <g id="line2d_21">
      <g>
       <use xlink:href="#mbe19650f5a" x="217.08" y="517.2128" style="stroke: #000000; stroke-width: 0.8"/>
      </g>
     </g>
     <g id="text_15">
      <!-- 0 -->
      <g transform="translate(203.7175 521.012019) scale(0.1 -0.1)">
       <use xlink:href="#DejaVuSans-30"/>
      </g>
     </g>
    </g>
    <g id="ytick_7">
     <g id="line2d_22">
      <path d="M 217.08 417.416436 
L 1069.2 417.416436 
" clip-path="url(#pf51f61a3af)" style="fill: none; stroke: #b0b0b0; stroke-width: 0.8; stroke-linecap: square"/>
     </g>
     <g id="line2d_23">
      <g>
       <use xlink:href="#mbe19650f5a" x="217.08" y="417.416436" style="stroke: #000000; stroke-width: 0.8"/>
      </g>
     </g>
     <g id="text_16">
      <!-- 5 -->
      <g transform="translate(203.7175 421.215655) scale(0.1 -0.1)">
       <use xlink:href="#DejaVuSans-35"/>
      </g>
     </g>
    </g>
    <g id="ytick_8">
     <g id="line2d_24">
      <path d="M 217.08 317.620073 
L 1069.2 317.620073 
" clip-path="url(#pf51f61a3af)" style="fill: none; stroke: #b0b0b0; stroke-width: 0.8; stroke-linecap: square"/>
     </g>
     <g id="line2d_25">
      <g>
       <use xlink:href="#mbe19650f5a" x="217.08" y="317.620073" style="stroke: #000000; stroke-width: 0.8"/>
      </g>
     </g>
     <g id="text_17">
      <!-- 10 -->
      <g transform="translate(197.355 321.419291) scale(0.1 -0.1)">
       <use xlink:href="#DejaVuSans-31"/>
       <use xlink:href="#DejaVuSans-30" x="63.623047"/>
      </g>
     </g>
    </g>
    <g id="ytick_9">
     <g id="line2d_26">
      <path d="M 217.08 217.823709 
L 1069.2 217.823709 
" clip-path="url(#pf51f61a3af)" style="fill: none; stroke: #b0b0b0; stroke-width: 0.8; stroke-linecap: square"/>
     </g>
     <g id="line2d_27">
      <g>
       <use xlink:href="#mbe19650f5a" x="217.08" y="217.823709" style="stroke: #000000; stroke-width: 0.8"/>
      </g>
     </g>
     <g id="text_18">
      <!-- 15 -->
      <g transform="translate(197.355 221.622928) scale(0.1 -0.1)">
       <use xlink:href="#DejaVuSans-31"/>
       <use xlink:href="#DejaVuSans-35" x="63.623047"/>
      </g>
     </g>
    </g>
    <g id="ytick_10">
     <g id="line2d_28">
      <path d="M 217.08 118.027345 
L 1069.2 118.027345 
" clip-path="url(#pf51f61a3af)" style="fill: none; stroke: #b0b0b0; stroke-width: 0.8; stroke-linecap: square"/>
     </g>
     <g id="line2d_29">
      <g>
       <use xlink:href="#mbe19650f5a" x="217.08" y="118.027345" style="stroke: #000000; stroke-width: 0.8"/>
      </g>
     </g>
     <g id="text_19">
      <!-- 20 -->
      <g transform="translate(197.355 121.826564) scale(0.1 -0.1)">
       <use xlink:href="#DejaVuSans-32"/>
       <use xlink:href="#DejaVuSans-30" x="63.623047"/>
      </g>
     </g>
    </g>
    <g id="text_20">
     <!-- Time (Decimal) -->
     <g transform="translate(191.275313 321.1365) rotate(-90) scale(0.1 -0.1)">
      <defs>
       <path id="DejaVuSans-54" d="M -19 4666 
L 3928 4666 
L 3928 4134 
L 2272 4134 
L 2272 0 
L 1638 0 
L 1638 4134 
L -19 4134 
L -19 4666 
z
" transform="scale(0.015625)"/>
       <path id="DejaVuSans-28" d="M 1984 4856 
Q 1566 4138 1362 3434 
Q 1159 2731 1159 2009 
Q 1159 1288 1364 580 
Q 1569 -128 1984 -844 
L 1484 -844 
Q 1016 -109 783 600 
Q 550 1309 550 2009 
Q 550 2706 781 3412 
Q 1013 4119 1484 4856 
L 1984 4856 
z
" transform="scale(0.015625)"/>
       <path id="DejaVuSans-63" d="M 3122 3366 
L 3122 2828 
Q 2878 2963 2633 3030 
Q 2388 3097 2138 3097 
Q 1578 3097 1268 2742 
Q 959 2388 959 1747 
Q 959 1106 1268 751 
Q 1578 397 2138 397 
Q 2388 397 2633 464 
Q 2878 531 3122 666 
L 3122 134 
Q 2881 22 2623 -34 
Q 2366 -91 2075 -91 
Q 1284 -91 818 406 
Q 353 903 353 1747 
Q 353 2603 823 3093 
Q 1294 3584 2113 3584 
Q 2378 3584 2631 3529 
Q 2884 3475 3122 3366 
z
" transform="scale(0.015625)"/>
       <path id="DejaVuSans-6c" d="M 603 4863 
L 1178 4863 
L 1178 0 
L 603 0 
L 603 4863 
z
" transform="scale(0.015625)"/>
       <path id="DejaVuSans-29" d="M 513 4856 
L 1013 4856 
Q 1481 4119 1714 3412 
Q 1947 2706 1947 2009 
Q 1947 1309 1714 600 
Q 1481 -109 1013 -844 
L 513 -844 
Q 928 -128 1133 580 
Q 1338 1288 1338 2009 
Q 1338 2731 1133 3434 
Q 928 4138 513 4856 
z
" transform="scale(0.015625)"/>
      </defs>
      <use xlink:href="#DejaVuSans-54"/>
      <use xlink:href="#DejaVuSans-69" x="57.958984"/>
      <use xlink:href="#DejaVuSans-6d" x="85.742188"/>
      <use xlink:href="#DejaVuSans-65" x="183.154297"/>
      <use xlink:href="#DejaVuSans-20" x="244.677734"/>
      <use xlink:href="#DejaVuSans-28" x="276.464844"/>
      <use xlink:href="#DejaVuSans-44" x="315.478516"/>
      <use xlink:href="#DejaVuSans-65" x="392.480469"/>
      <use xlink:href="#DejaVuSans-63" x="454.003906"/>
      <use xlink:href="#DejaVuSans-69" x="508.984375"/>
      <use xlink:href="#DejaVuSans-6d" x="536.767578"/>
      <use xlink:href="#DejaVuSans-61" x="634.179688"/>
      <use xlink:href="#DejaVuSans-6c" x="695.458984"/>
      <use xlink:href="#DejaVuSans-29" x="723.242188"/>
     </g>
    </g>
   </g>
   <g id="line2d_30">
    <path d="M 486.170526 539.168 
L 486.170526 26.88 
" clip-path="url(#pf51f61a3af)" style="fill: none; stroke-dasharray: 5.55,2.4; stroke-dashoffset: 0; stroke: #000000; stroke-opacity: 0.5; stroke-width: 1.5"/>
   </g>
   <g id="patch_20">
    <path d="M 217.08 539.168 
L 217.08 26.88 
" style="fill: none; stroke: #000000; stroke-width: 0.8; stroke-linejoin: miter; stroke-linecap: square"/>
   </g>
   <g id="patch_21">
    <path d="M 1069.2 539.168 
L 1069.2 26.88 
" style="fill: none; stroke: #000000; stroke-width: 0.8; stroke-linejoin: miter; stroke-linecap: square"/>
   </g>
   <g id="patch_22">
    <path d="M 217.08 539.168 
L 1069.2 539.168 
" style="fill: none; stroke: #000000; stroke-width: 0.8; stroke-linejoin: miter; stroke-linecap: square"/>
   </g>
   <g id="patch_23">
    <path d="M 217.08 26.88 
L 1069.2 26.88 
" style="fill: none; stroke: #000000; stroke-width: 0.8; stroke-linejoin: miter; stroke-linecap: square"/>
   </g>
   <g id="text_21">
    <!-- Historic Breakup (with density estimates) and 2025 Predictions(only showing days 60 to 155) -->
    <g transform="translate(362.924063 20.88) scale(0.12 -0.12)">
     <defs>
      <path id="DejaVuSans-42" d="M 1259 2228 
L 1259 519 
L 2272 519 
Q 2781 519 3026 730 
Q 3272 941 3272 1375 
Q 3272 1813 3026 2020 
Q 2781 2228 2272 2228 
L 1259 2228 
z
M 1259 4147 
L 1259 2741 
L 2194 2741 
Q 2656 2741 2882 2914 
Q 3109 3088 3109 3444 
Q 3109 3797 2882 3972 
Q 2656 4147 2194 4147 
L 1259 4147 
z
M 628 4666 
L 2241 4666 
Q 2963 4666 3353 4366 
Q 3744 4066 3744 3513 
Q 3744 3084 3544 2831 
Q 3344 2578 2956 2516 
Q 3422 2416 3680 2098 
Q 3938 1781 3938 1306 
Q 3938 681 3513 340 
Q 3088 0 2303 0 
L 628 0 
L 628 4666 
z
" transform="scale(0.015625)"/>
      <path id="DejaVuSans-6b" d="M 581 4863 
L 1159 4863 
L 1159 1991 
L 2875 3500 
L 3609 3500 
L 1753 1863 
L 3688 0 
L 2938 0 
L 1159 1709 
L 1159 0 
L 581 0 
L 581 4863 
z
" transform="scale(0.015625)"/>
      <path id="DejaVuSans-75" d="M 544 1381 
L 544 3500 
L 1119 3500 
L 1119 1403 
Q 1119 906 1312 657 
Q 1506 409 1894 409 
Q 2359 409 2629 706 
Q 2900 1003 2900 1516 
L 2900 3500 
L 3475 3500 
L 3475 0 
L 2900 0 
L 2900 538 
Q 2691 219 2414 64 
Q 2138 -91 1772 -91 
Q 1169 -91 856 284 
Q 544 659 544 1381 
z
M 1991 3584 
L 1991 3584 
z
" transform="scale(0.015625)"/>
      <path id="DejaVuSans-70" d="M 1159 525 
L 1159 -1331 
L 581 -1331 
L 581 3500 
L 1159 3500 
L 1159 2969 
Q 1341 3281 1617 3432 
Q 1894 3584 2278 3584 
Q 2916 3584 3314 3078 
Q 3713 2572 3713 1747 
Q 3713 922 3314 415 
Q 2916 -91 2278 -91 
Q 1894 -91 1617 61 
Q 1341 213 1159 525 
z
M 3116 1747 
Q 3116 2381 2855 2742 
Q 2594 3103 2138 3103 
Q 1681 3103 1420 2742 
Q 1159 2381 1159 1747 
Q 1159 1113 1420 752 
Q 1681 391 2138 391 
Q 2594 391 2855 752 
Q 3116 1113 3116 1747 
z
" transform="scale(0.015625)"/>
      <path id="DejaVuSans-77" d="M 269 3500 
L 844 3500 
L 1563 769 
L 2278 3500 
L 2956 3500 
L 3675 769 
L 4391 3500 
L 4966 3500 
L 4050 0 
L 3372 0 
L 2619 2869 
L 1863 0 
L 1184 0 
L 269 3500 
z
" transform="scale(0.015625)"/>
      <path id="DejaVuSans-68" d="M 3513 2113 
L 3513 0 
L 2938 0 
L 2938 2094 
Q 2938 2591 2744 2837 
Q 2550 3084 2163 3084 
Q 1697 3084 1428 2787 
Q 1159 2491 1159 1978 
L 1159 0 
L 581 0 
L 581 4863 
L 1159 4863 
L 1159 2956 
Q 1366 3272 1645 3428 
Q 1925 3584 2291 3584 
Q 2894 3584 3203 3211 
Q 3513 2838 3513 2113 
z
" transform="scale(0.015625)"/>
      <path id="DejaVuSans-64" d="M 2906 2969 
L 2906 4863 
L 3481 4863 
L 3481 0 
L 2906 0 
L 2906 525 
Q 2725 213 2448 61 
Q 2172 -91 1784 -91 
Q 1150 -91 751 415 
Q 353 922 353 1747 
Q 353 2572 751 3078 
Q 1150 3584 1784 3584 
Q 2172 3584 2448 3432 
Q 2725 3281 2906 2969 
z
M 947 1747 
Q 947 1113 1208 752 
Q 1469 391 1925 391 
Q 2381 391 2643 752 
Q 2906 1113 2906 1747 
Q 2906 2381 2643 2742 
Q 2381 3103 1925 3103 
Q 1469 3103 1208 2742 
Q 947 2381 947 1747 
z
" transform="scale(0.015625)"/>
      <path id="DejaVuSans-6e" d="M 3513 2113 
L 3513 0 
L 2938 0 
L 2938 2094 
Q 2938 2591 2744 2837 
Q 2550 3084 2163 3084 
Q 1697 3084 1428 2787 
Q 1159 2491 1159 1978 
L 1159 0 
L 581 0 
L 581 3500 
L 1159 3500 
L 1159 2956 
Q 1366 3272 1645 3428 
Q 1925 3584 2291 3584 
Q 2894 3584 3203 3211 
Q 3513 2838 3513 2113 
z
" transform="scale(0.015625)"/>
      <path id="DejaVuSans-50" d="M 1259 4147 
L 1259 2394 
L 2053 2394 
Q 2494 2394 2734 2622 
Q 2975 2850 2975 3272 
Q 2975 3691 2734 3919 
Q 2494 4147 2053 4147 
L 1259 4147 
z
M 628 4666 
L 2053 4666 
Q 2838 4666 3239 4311 
Q 3641 3956 3641 3272 
Q 3641 2581 3239 2228 
Q 2838 1875 2053 1875 
L 1259 1875 
L 1259 0 
L 628 0 
L 628 4666 
z
" transform="scale(0.015625)"/>
     </defs>
     <use xlink:href="#DejaVuSans-48"/>
     <use xlink:href="#DejaVuSans-69" x="75.195312"/>
     <use xlink:href="#DejaVuSans-73" x="102.978516"/>
     <use xlink:href="#DejaVuSans-74" x="155.078125"/>
     <use xlink:href="#DejaVuSans-6f" x="194.287109"/>
     <use xlink:href="#DejaVuSans-72" x="255.46875"/>
     <use xlink:href="#DejaVuSans-69" x="296.582031"/>
     <use xlink:href="#DejaVuSans-63" x="324.365234"/>
     <use xlink:href="#DejaVuSans-20" x="379.345703"/>
     <use xlink:href="#DejaVuSans-42" x="411.132812"/>
     <use xlink:href="#DejaVuSans-72" x="479.736328"/>
     <use xlink:href="#DejaVuSans-65" x="518.599609"/>
     <use xlink:href="#DejaVuSans-61" x="580.123047"/>
     <use xlink:href="#DejaVuSans-6b" x="641.402344"/>
     <use xlink:href="#DejaVuSans-75" x="696.1875"/>
     <use xlink:href="#DejaVuSans-70" x="759.566406"/>
     <use xlink:href="#DejaVuSans-20" x="823.042969"/>
     <use xlink:href="#DejaVuSans-28" x="854.830078"/>
     <use xlink:href="#DejaVuSans-77" x="893.84375"/>
     <use xlink:href="#DejaVuSans-69" x="975.630859"/>
     <use xlink:href="#DejaVuSans-74" x="1003.414062"/>
     <use xlink:href="#DejaVuSans-68" x="1042.623047"/>
     <use xlink:href="#DejaVuSans-20" x="1106.001953"/>
     <use xlink:href="#DejaVuSans-64" x="1137.789062"/>
     <use xlink:href="#DejaVuSans-65" x="1201.265625"/>
     <use xlink:href="#DejaVuSans-6e" x="1262.789062"/>
     <use xlink:href="#DejaVuSans-73" x="1326.167969"/>
     <use xlink:href="#DejaVuSans-69" x="1378.267578"/>
     <use xlink:href="#DejaVuSans-74" x="1406.050781"/>
     <use xlink:href="#DejaVuSans-79" x="1445.259766"/>
     <use xlink:href="#DejaVuSans-20" x="1504.439453"/>
     <use xlink:href="#DejaVuSans-65" x="1536.226562"/>
     <use xlink:href="#DejaVuSans-73" x="1597.75"/>
     <use xlink:href="#DejaVuSans-74" x="1649.849609"/>
     <use xlink:href="#DejaVuSans-69" x="1689.058594"/>
     <use xlink:href="#DejaVuSans-6d" x="1716.841797"/>
     <use xlink:href="#DejaVuSans-61" x="1814.253906"/>
     <use xlink:href="#DejaVuSans-74" x="1875.533203"/>
     <use xlink:href="#DejaVuSans-65" x="1914.742188"/>
     <use xlink:href="#DejaVuSans-73" x="1976.265625"/>
     <use xlink:href="#DejaVuSans-29" x="2028.365234"/>
     <use xlink:href="#DejaVuSans-20" x="2067.378906"/>
     <use xlink:href="#DejaVuSans-61" x="2099.166016"/>
     <use xlink:href="#DejaVuSans-6e" x="2160.445312"/>
     <use xlink:href="#DejaVuSans-64" x="2223.824219"/>
     <use xlink:href="#DejaVuSans-20" x="2287.300781"/>
     <use xlink:href="#DejaVuSans-32" x="2319.087891"/>
     <use xlink:href="#DejaVuSans-30" x="2382.710938"/>
     <use xlink:href="#DejaVuSans-32" x="2446.333984"/>
     <use xlink:href="#DejaVuSans-35" x="2509.957031"/>
     <use xlink:href="#DejaVuSans-20" x="2573.580078"/>
     <use xlink:href="#DejaVuSans-50" x="2605.367188"/>
     <use xlink:href="#DejaVuSans-72" x="2663.919922"/>
     <use xlink:href="#DejaVuSans-65" x="2702.783203"/>
     <use xlink:href="#DejaVuSans-64" x="2764.306641"/>
     <use xlink:href="#DejaVuSans-69" x="2827.783203"/>
     <use xlink:href="#DejaVuSans-63" x="2855.566406"/>
     <use xlink:href="#DejaVuSans-74" x="2910.546875"/>
     <use xlink:href="#DejaVuSans-69" x="2949.755859"/>
     <use xlink:href="#DejaVuSans-6f" x="2977.539062"/>
     <use xlink:href="#DejaVuSans-6e" x="3038.720703"/>
     <use xlink:href="#DejaVuSans-73" x="3102.099609"/>
     <use xlink:href="#DejaVuSans-28" x="3154.199219"/>
     <use xlink:href="#DejaVuSans-6f" x="3193.212891"/>
     <use xlink:href="#DejaVuSans-6e" x="3254.394531"/>
     <use xlink:href="#DejaVuSans-6c" x="3317.773438"/>
     <use xlink:href="#DejaVuSans-79" x="3345.556641"/>
     <use xlink:href="#DejaVuSans-20" x="3404.736328"/>
     <use xlink:href="#DejaVuSans-73" x="3436.523438"/>
     <use xlink:href="#DejaVuSans-68" x="3488.623047"/>
     <use xlink:href="#DejaVuSans-6f" x="3552.001953"/>
     <use xlink:href="#DejaVuSans-77" x="3613.183594"/>
     <use xlink:href="#DejaVuSans-69" x="3694.970703"/>
     <use xlink:href="#DejaVuSans-6e" x="3722.753906"/>
     <use xlink:href="#DejaVuSans-67" x="3786.132812"/>
     <use xlink:href="#DejaVuSans-20" x="3849.609375"/>
     <use xlink:href="#DejaVuSans-64" x="3881.396484"/>
     <use xlink:href="#DejaVuSans-61" x="3944.873047"/>
     <use xlink:href="#DejaVuSans-79" x="4006.152344"/>
     <use xlink:href="#DejaVuSans-73" x="4065.332031"/>
     <use xlink:href="#DejaVuSans-20" x="4117.431641"/>
     <use xlink:href="#DejaVuSans-36" x="4149.21875"/>
     <use xlink:href="#DejaVuSans-30" x="4212.841797"/>
     <use xlink:href="#DejaVuSans-20" x="4276.464844"/>
     <use xlink:href="#DejaVuSans-74" x="4308.251953"/>
     <use xlink:href="#DejaVuSans-6f" x="4347.460938"/>
     <use xlink:href="#DejaVuSans-20" x="4408.642578"/>
     <use xlink:href="#DejaVuSans-31" x="4440.429688"/>
     <use xlink:href="#DejaVuSans-35" x="4504.052734"/>
     <use xlink:href="#DejaVuSans-35" x="4567.675781"/>
     <use xlink:href="#DejaVuSans-29" x="4631.298828"/>
    </g>
   </g>
   <g id="legend_2">
    <g id="patch_24">
     <path d="M 224.08 78.914375 
L 339.953438 78.914375 
Q 341.953438 78.914375 341.953438 76.914375 
L 341.953438 33.88 
Q 341.953438 31.88 339.953438 31.88 
L 224.08 31.88 
Q 222.08 31.88 222.08 33.88 
L 222.08 76.914375 
Q 222.08 78.914375 224.08 78.914375 
z
" style="fill: #ffffff; opacity: 0.8; stroke: #cccccc; stroke-linejoin: miter"/>
    </g>
    <g id="PathCollection_3">
     <g>
      <use xlink:href="#m31fca045c4" x="236.08" y="40.853438" style="fill: #ff0000; stroke: #000000"/>
     </g>
    </g>
    <g id="text_22">
     <!-- 2025 Predictions -->
     <g transform="translate(254.08 43.478438) scale(0.1 -0.1)">
      <use xlink:href="#DejaVuSans-32"/>
      <use xlink:href="#DejaVuSans-30" x="63.623047"/>
      <use xlink:href="#DejaVuSans-32" x="127.246094"/>
      <use xlink:href="#DejaVuSans-35" x="190.869141"/>
      <use xlink:href="#DejaVuSans-20" x="254.492188"/>
      <use xlink:href="#DejaVuSans-50" x="286.279297"/>
      <use xlink:href="#DejaVuSans-72" x="344.832031"/>
      <use xlink:href="#DejaVuSans-65" x="383.695312"/>
      <use xlink:href="#DejaVuSans-64" x="445.21875"/>
      <use xlink:href="#DejaVuSans-69" x="508.695312"/>
      <use xlink:href="#DejaVuSans-63" x="536.478516"/>
      <use xlink:href="#DejaVuSans-74" x="591.458984"/>
      <use xlink:href="#DejaVuSans-69" x="630.667969"/>
      <use xlink:href="#DejaVuSans-6f" x="658.451172"/>
      <use xlink:href="#DejaVuSans-6e" x="719.632812"/>
      <use xlink:href="#DejaVuSans-73" x="783.011719"/>
     </g>
    </g>
    <g id="PathCollection_4">
     <g>
      <use xlink:href="#mdcf13905b4" x="236.08" y="55.531563" style="fill: #808080; stroke: #000000"/>
     </g>
    </g>
    <g id="text_23">
     <!-- Historic Breakup -->
     <g transform="translate(254.08 58.156563) scale(0.1 -0.1)">
      <use xlink:href="#DejaVuSans-48"/>
      <use xlink:href="#DejaVuSans-69" x="75.195312"/>
      <use xlink:href="#DejaVuSans-73" x="102.978516"/>
      <use xlink:href="#DejaVuSans-74" x="155.078125"/>
      <use xlink:href="#DejaVuSans-6f" x="194.287109"/>
      <use xlink:href="#DejaVuSans-72" x="255.46875"/>
      <use xlink:href="#DejaVuSans-69" x="296.582031"/>
      <use xlink:href="#DejaVuSans-63" x="324.365234"/>
      <use xlink:href="#DejaVuSans-20" x="379.345703"/>
      <use xlink:href="#DejaVuSans-42" x="411.132812"/>
      <use xlink:href="#DejaVuSans-72" x="479.736328"/>
      <use xlink:href="#DejaVuSans-65" x="518.599609"/>
      <use xlink:href="#DejaVuSans-61" x="580.123047"/>
      <use xlink:href="#DejaVuSans-6b" x="641.402344"/>
      <use xlink:href="#DejaVuSans-75" x="696.1875"/>
      <use xlink:href="#DejaVuSans-70" x="759.566406"/>
     </g>
    </g>
    <g id="line2d_31">
     <path d="M 226.08 69.334688 
L 236.08 69.334688 
L 246.08 69.334688 
" style="fill: none; stroke-dasharray: 5.55,2.4; stroke-dashoffset: 0; stroke: #000000; stroke-opacity: 0.5; stroke-width: 1.5"/>
    </g>
    <g id="text_24">
     <!-- Betting Deadline -->
     <g transform="translate(254.08 72.834688) scale(0.1 -0.1)">
      <use xlink:href="#DejaVuSans-42"/>
      <use xlink:href="#DejaVuSans-65" x="68.603516"/>
      <use xlink:href="#DejaVuSans-74" x="130.126953"/>
      <use xlink:href="#DejaVuSans-74" x="169.335938"/>
      <use xlink:href="#DejaVuSans-69" x="208.544922"/>
      <use xlink:href="#DejaVuSans-6e" x="236.328125"/>
      <use xlink:href="#DejaVuSans-67" x="299.707031"/>
      <use xlink:href="#DejaVuSans-20" x="363.183594"/>
      <use xlink:href="#DejaVuSans-44" x="394.970703"/>
      <use xlink:href="#DejaVuSans-65" x="471.972656"/>
      <use xlink:href="#DejaVuSans-61" x="533.496094"/>
      <use xlink:href="#DejaVuSans-64" x="594.775391"/>
      <use xlink:href="#DejaVuSans-6c" x="658.251953"/>
      <use xlink:href="#DejaVuSans-69" x="686.035156"/>
      <use xlink:href="#DejaVuSans-6e" x="713.818359"/>
      <use xlink:href="#DejaVuSans-65" x="777.197266"/>
     </g>
    </g>
   </g>
  </g>
  <g id="axes_3"/>
  <g id="axes_4">
   <g id="patch_25">
    <path d="M 217.08 709.2 
L 1069.2 709.2 
L 1069.2 581.128 
L 217.08 581.128 
z
" style="fill: #ffffff"/>
   </g>
   <g id="patch_26">
    <path d="M 611.746105 581.128 
L 641.916861 581.128 
L 641.916861 586.611336 
L 611.746105 586.611336 
z
" clip-path="url(#p66920e923f)" style="fill: #808080; opacity: 0.5"/>
   </g>
   <g id="patch_27">
    <path d="M 641.916861 581.128 
L 672.087617 581.128 
L 672.087617 586.611336 
L 641.916861 586.611336 
z
" clip-path="url(#p66920e923f)" style="fill: #808080; opacity: 0.5"/>
   </g>
   <g id="patch_28">
    <path d="M 672.087617 581.128 
L 702.258373 581.128 
L 702.258373 614.028017 
L 672.087617 614.028017 
z
" clip-path="url(#p66920e923f)" style="fill: #808080; opacity: 0.5"/>
   </g>
   <g id="patch_29">
    <path d="M 702.258373 581.128 
L 732.429129 581.128 
L 732.429129 608.544681 
L 702.258373 608.544681 
z
" clip-path="url(#p66920e923f)" style="fill: #808080; opacity: 0.5"/>
   </g>
   <g id="patch_30">
    <path d="M 732.429129 581.128 
L 762.599885 581.128 
L 762.599885 701.761395 
L 732.429129 701.761395 
z
" clip-path="url(#p66920e923f)" style="fill: #808080; opacity: 0.5"/>
   </g>
   <g id="patch_31">
    <path d="M 762.599885 581.128 
L 792.770641 581.128 
L 792.770641 696.278059 
L 762.599885 696.278059 
z
" clip-path="url(#p66920e923f)" style="fill: #808080; opacity: 0.5"/>
   </g>
   <g id="patch_32">
    <path d="M 792.770641 581.128 
L 822.941397 581.128 
L 822.941397 679.828051 
L 792.770641 679.828051 
z
" clip-path="url(#p66920e923f)" style="fill: #808080; opacity: 0.5"/>
   </g>
   <g id="patch_33">
    <path d="M 822.941397 581.128 
L 853.112153 581.128 
L 853.112153 663.378042 
L 822.941397 663.378042 
z
" clip-path="url(#p66920e923f)" style="fill: #808080; opacity: 0.5"/>
   </g>
   <g id="patch_34">
    <path d="M 853.112153 581.128 
L 883.282909 581.128 
L 883.282909 652.41137 
L 853.112153 652.41137 
z
" clip-path="url(#p66920e923f)" style="fill: #808080; opacity: 0.5"/>
   </g>
   <g id="patch_35">
    <path d="M 883.282909 581.128 
L 913.453665 581.128 
L 913.453665 597.578008 
L 883.282909 597.578008 
z
" clip-path="url(#p66920e923f)" style="fill: #808080; opacity: 0.5"/>
   </g>
   <g id="patch_36">
    <path d="M 913.453665 581.128 
L 943.624421 581.128 
L 943.624421 592.094672 
L 913.453665 592.094672 
z
" clip-path="url(#p66920e923f)" style="fill: #808080; opacity: 0.5"/>
   </g>
   <g id="matplotlib.axis_5"/>
   <g id="matplotlib.axis_6">
    <g id="text_25">
     <!-- Density -->
     <g transform="translate(211.000313 664.172594) rotate(-90) scale(0.1 -0.1)">
      <use xlink:href="#DejaVuSans-44"/>
      <use xlink:href="#DejaVuSans-65" x="77.001953"/>
      <use xlink:href="#DejaVuSans-6e" x="138.525391"/>
      <use xlink:href="#DejaVuSans-73" x="201.904297"/>
      <use xlink:href="#DejaVuSans-69" x="254.003906"/>
      <use xlink:href="#DejaVuSans-74" x="281.787109"/>
      <use xlink:href="#DejaVuSans-79" x="320.996094"/>
     </g>
    </g>
   </g>
   <g id="line2d_32">
    <path d="M 611.746105 582.140464 
L 620.392234 582.717672 
L 627.708189 583.416377 
L 634.359057 584.271015 
L 640.344838 585.263075 
L 645.665532 586.357808 
L 650.986227 587.686738 
L 655.641834 589.068617 
L 660.297442 590.679683 
L 664.95305 592.543565 
L 668.943571 594.359837 
L 672.934091 596.392399 
L 676.924612 598.653729 
L 680.915133 601.154696 
L 684.905654 603.904098 
L 688.896175 606.908194 
L 692.886695 610.170223 
L 696.877216 613.689946 
L 701.532824 618.116209 
L 706.188432 622.873343 
L 710.844039 627.938638 
L 716.164734 634.06358 
L 722.150515 641.30658 
L 730.131557 651.351071 
L 744.763466 669.833079 
L 750.084161 676.181679 
L 754.739768 681.411161 
L 758.730289 685.583008 
L 762.72081 689.41276 
L 766.046244 692.307068 
L 769.371678 694.902767 
L 772.697112 697.175589 
L 775.357459 698.746779 
L 778.017807 700.087805 
L 780.678154 701.190353 
L 783.338501 702.047542 
L 785.998848 702.65399 
L 788.659195 703.005875 
L 791.319543 703.100974 
L 793.97989 702.938684 
L 796.640237 702.520033 
L 799.300584 701.847665 
L 801.960932 700.925813 
L 804.621279 699.760256 
L 807.281626 698.358258 
L 809.941973 696.728493 
L 813.267407 694.386331 
L 816.592841 691.726151 
L 819.918275 688.77274 
L 823.908796 684.879767 
L 827.899317 680.653648 
L 832.554925 675.372675 
L 837.875619 668.981162 
L 845.191574 659.802093 
L 861.153657 639.633445 
L 867.139438 632.466998 
L 872.460133 626.428897 
L 877.115741 621.450736 
L 881.771348 616.788298 
L 886.426956 612.461704 
L 890.417477 609.029538 
L 894.407997 605.855566 
L 898.398518 602.938791 
L 902.389039 600.274892 
L 906.37956 597.856692 
L 910.370081 595.674634 
L 914.360602 593.71725 
L 919.016209 591.700291 
L 923.671817 589.949251 
L 928.327425 588.440789 
L 932.983032 587.151205 
L 938.303727 585.915372 
L 943.624421 584.901104 
L 943.624421 584.901104 
" clip-path="url(#p66920e923f)" style="fill: none; stroke: #0000ff; stroke-width: 1.5; stroke-linecap: square"/>
   </g>
   <g id="line2d_33">
    <path d="M 611.746105 584.274637 
L 625.047841 584.529535 
L 632.363796 584.813448 
L 637.684491 585.249689 
L 642.340098 585.860357 
L 646.330619 586.58608 
L 650.32114 587.517153 
L 654.311661 588.664485 
L 658.302182 590.033711 
L 662.292702 591.626407 
L 666.283223 593.440928 
L 670.273744 595.472718 
L 674.929352 598.107674 
L 679.584959 601.012103 
L 684.240567 604.168683 
L 688.896175 607.566094 
L 693.551782 611.209856 
L 698.20739 615.133526 
L 702.197911 618.770008 
L 706.188432 622.722325 
L 709.513866 626.307054 
L 712.8393 630.196813 
L 716.164734 634.419322 
L 719.490168 638.984625 
L 723.480689 644.892681 
L 728.136296 652.266187 
L 740.772945 672.65425 
L 744.098379 677.408044 
L 746.758727 680.833772 
L 749.419074 683.860415 
L 751.414334 685.841652 
L 753.409595 687.561317 
L 755.404855 689.012932 
L 757.400116 690.19589 
L 759.395376 691.115366 
L 761.390636 691.782008 
L 763.385897 692.21143 
L 765.381157 692.423538 
L 767.376418 692.441701 
L 770.036765 692.20926 
L 772.697112 691.743559 
L 776.022546 690.933742 
L 782.673414 688.994966 
L 788.659195 687.347924 
L 793.314803 686.284784 
L 799.965671 685.029754 
L 806.616539 683.750023 
L 810.60706 682.77385 
L 813.932494 681.757455 
L 817.257928 680.513741 
L 820.583362 679.017786 
L 823.908796 677.259821 
L 827.23423 675.243988 
L 830.559664 672.985668 
L 834.550185 669.98836 
L 838.540706 666.721522 
L 843.196313 662.629517 
L 848.517008 657.65272 
L 854.502789 651.735723 
L 860.48857 645.520803 
L 867.139438 638.308315 
L 877.115741 627.111066 
L 885.761869 617.520925 
L 891.082563 611.964412 
L 895.073084 608.088575 
L 899.063605 604.531258 
L 902.389039 601.84648 
L 905.714473 599.438176 
L 909.039907 597.317515 
L 912.365341 595.485366 
L 915.690775 593.93193 
L 919.016209 592.637183 
L 922.341643 591.572153 
L 926.332164 590.546532 
L 930.987772 589.609899 
L 937.63864 588.549637 
L 943.624421 587.680946 
L 943.624421 587.680946 
" clip-path="url(#p66920e923f)" style="fill: none; stroke: #ff0000; stroke-opacity: 0.3; stroke-width: 1.5; stroke-linecap: square"/>
   </g>
   <g id="patch_37">
    <path d="M 217.08 709.2 
L 217.08 581.128 
" style="fill: none; stroke: #000000; stroke-width: 0.8; stroke-linejoin: miter; stroke-linecap: square"/>
   </g>
   <g id="patch_38">
    <path d="M 1069.2 709.2 
L 1069.2 581.128 
" style="fill: none; stroke: #000000; stroke-width: 0.8; stroke-linejoin: miter; stroke-linecap: square"/>
   </g>
   <g id="patch_39">
    <path d="M 217.08 709.2 
L 1069.2 709.2 
" style="fill: none; stroke: #000000; stroke-width: 0.8; stroke-linejoin: miter; stroke-linecap: square"/>
   </g>
   <g id="patch_40">
    <path d="M 217.08 581.128 
L 1069.2 581.128 
" style="fill: none; stroke: #000000; stroke-width: 0.8; stroke-linejoin: miter; stroke-linecap: square"/>
   </g>
   <g id="legend_3">
    <g id="patch_41">
     <path d="M 946.835938 633.162375 
L 1062.2 633.162375 
Q 1064.2 633.162375 1064.2 631.162375 
L 1064.2 588.128 
Q 1064.2 586.128 1062.2 586.128 
L 946.835938 586.128 
Q 944.835938 586.128 944.835938 588.128 
L 944.835938 631.162375 
Q 944.835938 633.162375 946.835938 633.162375 
z
" style="fill: #ffffff; opacity: 0.8; stroke: #cccccc; stroke-linejoin: miter"/>
    </g>
    <g id="patch_42">
     <path d="M 948.835938 597.726438 
L 968.835938 597.726438 
L 968.835938 590.726438 
L 948.835938 590.726438 
z
" style="fill: #808080; opacity: 0.5"/>
    </g>
    <g id="text_26">
     <!-- Histogram -->
     <g transform="translate(976.835938 597.726438) scale(0.1 -0.1)">
      <use xlink:href="#DejaVuSans-48"/>
      <use xlink:href="#DejaVuSans-69" x="75.195312"/>
      <use xlink:href="#DejaVuSans-73" x="102.978516"/>
      <use xlink:href="#DejaVuSans-74" x="155.078125"/>
      <use xlink:href="#DejaVuSans-6f" x="194.287109"/>
      <use xlink:href="#DejaVuSans-67" x="255.46875"/>
      <use xlink:href="#DejaVuSans-72" x="318.945312"/>
      <use xlink:href="#DejaVuSans-61" x="360.058594"/>
      <use xlink:href="#DejaVuSans-6d" x="421.337891"/>
     </g>
    </g>
    <g id="line2d_34">
     <path d="M 948.835938 608.904563 
L 958.835938 608.904563 
L 968.835938 608.904563 
" style="fill: none; stroke: #0000ff; stroke-width: 1.5; stroke-linecap: square"/>
    </g>
    <g id="text_27">
     <!-- Normal estimate -->
     <g transform="translate(976.835938 612.404563) scale(0.1 -0.1)">
      <use xlink:href="#DejaVuSans-4e"/>
      <use xlink:href="#DejaVuSans-6f" x="74.804688"/>
      <use xlink:href="#DejaVuSans-72" x="135.986328"/>
      <use xlink:href="#DejaVuSans-6d" x="175.349609"/>
      <use xlink:href="#DejaVuSans-61" x="272.761719"/>
      <use xlink:href="#DejaVuSans-6c" x="334.041016"/>
      <use xlink:href="#DejaVuSans-20" x="361.824219"/>
      <use xlink:href="#DejaVuSans-65" x="393.611328"/>
      <use xlink:href="#DejaVuSans-73" x="455.134766"/>
      <use xlink:href="#DejaVuSans-74" x="507.234375"/>
      <use xlink:href="#DejaVuSans-69" x="546.443359"/>
      <use xlink:href="#DejaVuSans-6d" x="574.226562"/>
      <use xlink:href="#DejaVuSans-61" x="671.638672"/>
      <use xlink:href="#DejaVuSans-74" x="732.917969"/>
      <use xlink:href="#DejaVuSans-65" x="772.126953"/>
     </g>
    </g>
    <g id="line2d_35">
     <path d="M 948.835938 623.582688 
L 958.835938 623.582688 
L 968.835938 623.582688 
" style="fill: none; stroke: #ff0000; stroke-opacity: 0.3; stroke-width: 1.5; stroke-linecap: square"/>
    </g>
    <g id="text_28">
     <!-- KDE Estimate -->
     <g transform="translate(976.835938 627.082688) scale(0.1 -0.1)">
      <use xlink:href="#DejaVuSans-4b"/>
      <use xlink:href="#DejaVuSans-44" x="65.576172"/>
      <use xlink:href="#DejaVuSans-45" x="142.578125"/>
      <use xlink:href="#DejaVuSans-20" x="205.761719"/>
      <use xlink:href="#DejaVuSans-45" x="237.548828"/>
      <use xlink:href="#DejaVuSans-73" x="300.732422"/>
      <use xlink:href="#DejaVuSans-74" x="352.832031"/>
      <use xlink:href="#DejaVuSans-69" x="392.041016"/>
      <use xlink:href="#DejaVuSans-6d" x="419.824219"/>
      <use xlink:href="#DejaVuSans-61" x="517.236328"/>
      <use xlink:href="#DejaVuSans-74" x="578.515625"/>
      <use xlink:href="#DejaVuSans-65" x="617.724609"/>
     </g>
    </g>
   </g>
  </g>
 </g>
 <defs>
  <clipPath id="p2e2adcf28b">
   <rect x="30.49" y="26.88" width="142.02" height="512.288"/>
  </clipPath>
  <clipPath id="pf51f61a3af">
   <rect x="217.08" y="26.88" width="852.12" height="512.288"/>
  </clipPath>
  <clipPath id="p66920e923f">
   <rect x="217.08" y="581.128" width="852.12" height="128.072"/>
  </clipPath>
 </defs>
</svg>
